G75*
%MOIN*%
%OFA0B0*%
%FSLAX25Y25*%
%IPPOS*%
%LPD*%
%AMOC8*
5,1,8,0,0,1.08239X$1,22.5*
%
%ADD10C,0.00600*%
%ADD11OC8,0.03175*%
%ADD12OC8,0.02781*%
%ADD13OC8,0.03569*%
D10*
X0015935Y0016160D02*
X0018766Y0015241D01*
X0020253Y0015124D01*
X0333093Y0015124D01*
X0334363Y0015341D01*
X0336828Y0016397D01*
X0338846Y0018163D01*
X0340219Y0020466D01*
X0340814Y0023081D01*
X0340807Y0023663D01*
X0340788Y0023682D01*
X0340788Y0024530D01*
X0340711Y0025375D01*
X0340788Y0025467D01*
X0340788Y0212778D01*
X0340711Y0212870D01*
X0340788Y0213715D01*
X0340788Y0214564D01*
X0340807Y0214582D01*
X0340814Y0215164D01*
X0340219Y0217779D01*
X0338846Y0220083D01*
X0336828Y0221849D01*
X0334553Y0222824D01*
X0104692Y0222824D01*
X0016989Y0222697D01*
X0015009Y0221905D01*
X0012894Y0220142D01*
X0011428Y0217813D01*
X0010754Y0215144D01*
X0010742Y0214189D01*
X0010742Y0213688D01*
X0010801Y0212813D01*
X0010742Y0212747D01*
X0010742Y0139761D01*
X0011364Y0139139D01*
X0011364Y0139139D01*
X0012711Y0137792D01*
X0012711Y0136611D01*
X0012908Y0136414D01*
X0012908Y0101832D01*
X0012711Y0101635D01*
X0012711Y0100454D01*
X0010742Y0098485D01*
X0010742Y0024635D01*
X0010859Y0023147D01*
X0011779Y0020317D01*
X0013528Y0017909D01*
X0015935Y0016160D01*
X0015585Y0016415D02*
X0336848Y0016415D01*
X0337532Y0017013D02*
X0014761Y0017013D01*
X0013938Y0017612D02*
X0338216Y0017612D01*
X0338874Y0018210D02*
X0013309Y0018210D01*
X0012875Y0018809D02*
X0339231Y0018809D01*
X0339588Y0019407D02*
X0012440Y0019407D01*
X0012005Y0020006D02*
X0339945Y0020006D01*
X0340251Y0020604D02*
X0011686Y0020604D01*
X0011491Y0021203D02*
X0340387Y0021203D01*
X0340523Y0021801D02*
X0011297Y0021801D01*
X0011102Y0022400D02*
X0340659Y0022400D01*
X0340795Y0022998D02*
X0010908Y0022998D01*
X0010824Y0023597D02*
X0340808Y0023597D01*
X0340788Y0024195D02*
X0010777Y0024195D01*
X0010742Y0024794D02*
X0340764Y0024794D01*
X0340726Y0025392D02*
X0010742Y0025392D01*
X0010742Y0025991D02*
X0340788Y0025991D01*
X0340788Y0026589D02*
X0010742Y0026589D01*
X0010742Y0027188D02*
X0340788Y0027188D01*
X0340788Y0027786D02*
X0010742Y0027786D01*
X0010742Y0028385D02*
X0340788Y0028385D01*
X0340788Y0028983D02*
X0010742Y0028983D01*
X0010742Y0029582D02*
X0340788Y0029582D01*
X0340788Y0030180D02*
X0010742Y0030180D01*
X0010742Y0030779D02*
X0340788Y0030779D01*
X0340788Y0031377D02*
X0010742Y0031377D01*
X0010742Y0031976D02*
X0340788Y0031976D01*
X0340788Y0032574D02*
X0010742Y0032574D01*
X0010742Y0033173D02*
X0340788Y0033173D01*
X0340788Y0033771D02*
X0010742Y0033771D01*
X0010742Y0034370D02*
X0340788Y0034370D01*
X0340788Y0034969D02*
X0010742Y0034969D01*
X0010742Y0035567D02*
X0340788Y0035567D01*
X0340788Y0036166D02*
X0010742Y0036166D01*
X0010742Y0036764D02*
X0340788Y0036764D01*
X0340788Y0037363D02*
X0010742Y0037363D01*
X0010742Y0037961D02*
X0340788Y0037961D01*
X0340788Y0038560D02*
X0010742Y0038560D01*
X0010742Y0039158D02*
X0340788Y0039158D01*
X0340788Y0039757D02*
X0010742Y0039757D01*
X0010742Y0040355D02*
X0340788Y0040355D01*
X0340788Y0040954D02*
X0010742Y0040954D01*
X0010742Y0041552D02*
X0340788Y0041552D01*
X0340788Y0042151D02*
X0010742Y0042151D01*
X0010742Y0042749D02*
X0340788Y0042749D01*
X0340788Y0043348D02*
X0010742Y0043348D01*
X0010742Y0043946D02*
X0340788Y0043946D01*
X0340788Y0044545D02*
X0010742Y0044545D01*
X0010742Y0045143D02*
X0340788Y0045143D01*
X0340788Y0045742D02*
X0010742Y0045742D01*
X0010742Y0046340D02*
X0340788Y0046340D01*
X0340788Y0046939D02*
X0010742Y0046939D01*
X0010742Y0047537D02*
X0340788Y0047537D01*
X0340788Y0048136D02*
X0010742Y0048136D01*
X0010742Y0048734D02*
X0340788Y0048734D01*
X0340788Y0049333D02*
X0010742Y0049333D01*
X0010742Y0049931D02*
X0340788Y0049931D01*
X0340788Y0050530D02*
X0010742Y0050530D01*
X0010742Y0051128D02*
X0340788Y0051128D01*
X0340788Y0051727D02*
X0010742Y0051727D01*
X0010742Y0052325D02*
X0340788Y0052325D01*
X0340788Y0052924D02*
X0010742Y0052924D01*
X0010742Y0053522D02*
X0340788Y0053522D01*
X0340788Y0054121D02*
X0010742Y0054121D01*
X0010742Y0054719D02*
X0340788Y0054719D01*
X0340788Y0055318D02*
X0010742Y0055318D01*
X0010742Y0055916D02*
X0340788Y0055916D01*
X0340788Y0056515D02*
X0010742Y0056515D01*
X0010742Y0057113D02*
X0340788Y0057113D01*
X0340788Y0057712D02*
X0010742Y0057712D01*
X0010742Y0058310D02*
X0340788Y0058310D01*
X0340788Y0058909D02*
X0010742Y0058909D01*
X0010742Y0059507D02*
X0340788Y0059507D01*
X0340788Y0060106D02*
X0010742Y0060106D01*
X0010742Y0060705D02*
X0340788Y0060705D01*
X0340788Y0061303D02*
X0010742Y0061303D01*
X0010742Y0061902D02*
X0340788Y0061902D01*
X0340788Y0062500D02*
X0010742Y0062500D01*
X0010742Y0063099D02*
X0340788Y0063099D01*
X0340788Y0063697D02*
X0010742Y0063697D01*
X0010742Y0064296D02*
X0340788Y0064296D01*
X0340788Y0064894D02*
X0010742Y0064894D01*
X0010742Y0065493D02*
X0340788Y0065493D01*
X0340788Y0066091D02*
X0010742Y0066091D01*
X0010742Y0066690D02*
X0340788Y0066690D01*
X0340788Y0067288D02*
X0010742Y0067288D01*
X0010742Y0067887D02*
X0340788Y0067887D01*
X0340788Y0068485D02*
X0010742Y0068485D01*
X0010742Y0069084D02*
X0340788Y0069084D01*
X0340788Y0069682D02*
X0010742Y0069682D01*
X0010742Y0070281D02*
X0340788Y0070281D01*
X0340788Y0070879D02*
X0010742Y0070879D01*
X0010742Y0071478D02*
X0340788Y0071478D01*
X0340788Y0072076D02*
X0010742Y0072076D01*
X0010742Y0072675D02*
X0340788Y0072675D01*
X0340788Y0073273D02*
X0010742Y0073273D01*
X0010742Y0073872D02*
X0340788Y0073872D01*
X0340788Y0074470D02*
X0010742Y0074470D01*
X0010742Y0075069D02*
X0340788Y0075069D01*
X0340788Y0075667D02*
X0010742Y0075667D01*
X0010742Y0076266D02*
X0340788Y0076266D01*
X0340788Y0076864D02*
X0010742Y0076864D01*
X0010742Y0077463D02*
X0340788Y0077463D01*
X0340788Y0078061D02*
X0010742Y0078061D01*
X0010742Y0078660D02*
X0340788Y0078660D01*
X0340788Y0079258D02*
X0010742Y0079258D01*
X0010742Y0079857D02*
X0340788Y0079857D01*
X0340788Y0080455D02*
X0010742Y0080455D01*
X0010742Y0081054D02*
X0340788Y0081054D01*
X0340788Y0081652D02*
X0010742Y0081652D01*
X0010742Y0082251D02*
X0340788Y0082251D01*
X0340788Y0082849D02*
X0010742Y0082849D01*
X0010742Y0083448D02*
X0224341Y0083448D01*
X0226375Y0083043D02*
X0233226Y0083043D01*
X0239946Y0084380D01*
X0246275Y0087002D01*
X0251972Y0090808D01*
X0256816Y0095652D01*
X0260623Y0101349D01*
X0263244Y0107679D01*
X0264581Y0114398D01*
X0264581Y0121249D01*
X0263244Y0127969D01*
X0260623Y0134298D01*
X0256816Y0139995D01*
X0251972Y0144839D01*
X0246275Y0148645D01*
X0239946Y0151267D01*
X0233226Y0152604D01*
X0226375Y0152604D01*
X0219656Y0151267D01*
X0213326Y0148645D01*
X0207629Y0144839D01*
X0202785Y0139995D01*
X0198979Y0134298D01*
X0196357Y0127969D01*
X0195020Y0121249D01*
X0195020Y0114398D01*
X0196357Y0107679D01*
X0198979Y0101349D01*
X0202785Y0095652D01*
X0207629Y0090808D01*
X0213326Y0087002D01*
X0219656Y0084380D01*
X0226375Y0083043D01*
X0221332Y0084046D02*
X0010742Y0084046D01*
X0010742Y0084645D02*
X0219016Y0084645D01*
X0217571Y0085243D02*
X0010742Y0085243D01*
X0010742Y0085842D02*
X0216126Y0085842D01*
X0214681Y0086440D02*
X0010742Y0086440D01*
X0010742Y0087039D02*
X0213270Y0087039D01*
X0212374Y0087638D02*
X0010742Y0087638D01*
X0010742Y0088236D02*
X0211479Y0088236D01*
X0210583Y0088835D02*
X0010742Y0088835D01*
X0010742Y0089433D02*
X0209687Y0089433D01*
X0208791Y0090032D02*
X0010742Y0090032D01*
X0010742Y0090630D02*
X0207896Y0090630D01*
X0207209Y0091229D02*
X0010742Y0091229D01*
X0010742Y0091827D02*
X0206610Y0091827D01*
X0206012Y0092426D02*
X0010742Y0092426D01*
X0010742Y0093024D02*
X0205413Y0093024D01*
X0204815Y0093623D02*
X0010742Y0093623D01*
X0010742Y0094221D02*
X0204216Y0094221D01*
X0203618Y0094820D02*
X0010742Y0094820D01*
X0010742Y0095418D02*
X0203019Y0095418D01*
X0202542Y0096017D02*
X0010742Y0096017D01*
X0010742Y0096615D02*
X0202142Y0096615D01*
X0201742Y0097214D02*
X0010742Y0097214D01*
X0010742Y0097812D02*
X0201342Y0097812D01*
X0200942Y0098411D02*
X0010742Y0098411D01*
X0011266Y0099009D02*
X0200542Y0099009D01*
X0200142Y0099608D02*
X0011865Y0099608D01*
X0012464Y0100206D02*
X0199742Y0100206D01*
X0199342Y0100805D02*
X0012711Y0100805D01*
X0012711Y0101403D02*
X0198956Y0101403D01*
X0198708Y0102002D02*
X0012908Y0102002D01*
X0012908Y0102600D02*
X0198460Y0102600D01*
X0198212Y0103199D02*
X0012908Y0103199D01*
X0012908Y0103797D02*
X0197965Y0103797D01*
X0197717Y0104396D02*
X0012908Y0104396D01*
X0012908Y0104994D02*
X0197469Y0104994D01*
X0197221Y0105593D02*
X0012908Y0105593D01*
X0012908Y0106191D02*
X0196973Y0106191D01*
X0196725Y0106790D02*
X0012908Y0106790D01*
X0012908Y0107388D02*
X0196477Y0107388D01*
X0196296Y0107987D02*
X0012908Y0107987D01*
X0012908Y0108585D02*
X0196177Y0108585D01*
X0196057Y0109184D02*
X0012908Y0109184D01*
X0012908Y0109782D02*
X0195938Y0109782D01*
X0195819Y0110381D02*
X0012908Y0110381D01*
X0012908Y0110979D02*
X0195700Y0110979D01*
X0195581Y0111578D02*
X0107813Y0111578D01*
X0108190Y0111734D02*
X0106693Y0111114D01*
X0105073Y0111114D01*
X0103577Y0111734D01*
X0102432Y0112879D01*
X0101812Y0114376D01*
X0101812Y0115996D01*
X0102432Y0117492D01*
X0103577Y0118638D01*
X0105073Y0119257D01*
X0106693Y0119257D01*
X0108190Y0118638D01*
X0109335Y0117492D01*
X0109955Y0115996D01*
X0109955Y0114376D01*
X0109335Y0112879D01*
X0108190Y0111734D01*
X0108632Y0112176D02*
X0195462Y0112176D01*
X0195343Y0112775D02*
X0109231Y0112775D01*
X0109540Y0113373D02*
X0195224Y0113373D01*
X0195105Y0113972D02*
X0109788Y0113972D01*
X0109955Y0114571D02*
X0195020Y0114571D01*
X0195020Y0115169D02*
X0109955Y0115169D01*
X0109955Y0115768D02*
X0195020Y0115768D01*
X0195020Y0116366D02*
X0109802Y0116366D01*
X0109554Y0116965D02*
X0195020Y0116965D01*
X0195020Y0117563D02*
X0109264Y0117563D01*
X0108666Y0118162D02*
X0195020Y0118162D01*
X0195020Y0118760D02*
X0107894Y0118760D01*
X0110759Y0121318D02*
X0112015Y0120062D01*
X0113656Y0119382D01*
X0115433Y0119382D01*
X0117074Y0120062D01*
X0118330Y0121318D01*
X0119010Y0122959D01*
X0119010Y0124735D01*
X0118330Y0126377D01*
X0117074Y0127633D01*
X0115433Y0128313D01*
X0113656Y0128313D01*
X0112015Y0127633D01*
X0110759Y0126377D01*
X0110079Y0124735D01*
X0110079Y0122959D01*
X0110759Y0121318D01*
X0110923Y0121154D02*
X0012908Y0121154D01*
X0012908Y0120556D02*
X0111521Y0120556D01*
X0112268Y0119957D02*
X0012908Y0119957D01*
X0012908Y0119359D02*
X0195020Y0119359D01*
X0195020Y0119957D02*
X0116822Y0119957D01*
X0117568Y0120556D02*
X0195020Y0120556D01*
X0195020Y0121154D02*
X0118167Y0121154D01*
X0118510Y0121753D02*
X0195120Y0121753D01*
X0195240Y0122351D02*
X0118758Y0122351D01*
X0119006Y0122950D02*
X0195359Y0122950D01*
X0195478Y0123548D02*
X0119010Y0123548D01*
X0119010Y0124147D02*
X0195597Y0124147D01*
X0195716Y0124745D02*
X0119006Y0124745D01*
X0118758Y0125344D02*
X0195835Y0125344D01*
X0195954Y0125942D02*
X0118510Y0125942D01*
X0118166Y0126541D02*
X0196073Y0126541D01*
X0196192Y0127139D02*
X0117568Y0127139D01*
X0116821Y0127738D02*
X0196311Y0127738D01*
X0196509Y0128336D02*
X0012908Y0128336D01*
X0012908Y0127738D02*
X0112269Y0127738D01*
X0111522Y0127139D02*
X0012908Y0127139D01*
X0012908Y0126541D02*
X0110923Y0126541D01*
X0110579Y0125942D02*
X0012908Y0125942D01*
X0012908Y0125344D02*
X0110331Y0125344D01*
X0110083Y0124745D02*
X0012908Y0124745D01*
X0012908Y0124147D02*
X0110079Y0124147D01*
X0110079Y0123548D02*
X0012908Y0123548D01*
X0012908Y0122950D02*
X0110083Y0122950D01*
X0110331Y0122351D02*
X0012908Y0122351D01*
X0012908Y0121753D02*
X0110579Y0121753D01*
X0103873Y0118760D02*
X0012908Y0118760D01*
X0012908Y0118162D02*
X0103101Y0118162D01*
X0102502Y0117563D02*
X0012908Y0117563D01*
X0012908Y0116965D02*
X0102213Y0116965D01*
X0101965Y0116366D02*
X0012908Y0116366D01*
X0012908Y0115768D02*
X0101812Y0115768D01*
X0101812Y0115169D02*
X0012908Y0115169D01*
X0012908Y0114571D02*
X0101812Y0114571D01*
X0101979Y0113972D02*
X0012908Y0113972D01*
X0012908Y0113373D02*
X0102227Y0113373D01*
X0102536Y0112775D02*
X0012908Y0112775D01*
X0012908Y0112176D02*
X0103134Y0112176D01*
X0103954Y0111578D02*
X0012908Y0111578D01*
X0012908Y0128935D02*
X0196757Y0128935D01*
X0197005Y0129533D02*
X0012908Y0129533D01*
X0012908Y0130132D02*
X0197253Y0130132D01*
X0197501Y0130730D02*
X0012908Y0130730D01*
X0012908Y0131329D02*
X0197749Y0131329D01*
X0197997Y0131927D02*
X0012908Y0131927D01*
X0012908Y0132526D02*
X0198245Y0132526D01*
X0198492Y0133124D02*
X0012908Y0133124D01*
X0012908Y0133723D02*
X0198740Y0133723D01*
X0198994Y0134321D02*
X0012908Y0134321D01*
X0012908Y0134920D02*
X0199394Y0134920D01*
X0199794Y0135518D02*
X0012908Y0135518D01*
X0012908Y0136117D02*
X0200194Y0136117D01*
X0200594Y0136715D02*
X0012711Y0136715D01*
X0012711Y0137314D02*
X0200994Y0137314D01*
X0201394Y0137912D02*
X0012590Y0137912D01*
X0011992Y0138511D02*
X0201794Y0138511D01*
X0202193Y0139109D02*
X0011393Y0139109D01*
X0010795Y0139708D02*
X0202593Y0139708D01*
X0203097Y0140307D02*
X0010742Y0140307D01*
X0010742Y0140905D02*
X0203695Y0140905D01*
X0204294Y0141504D02*
X0010742Y0141504D01*
X0010742Y0142102D02*
X0204892Y0142102D01*
X0205491Y0142701D02*
X0010742Y0142701D01*
X0010742Y0143299D02*
X0206089Y0143299D01*
X0206688Y0143898D02*
X0010742Y0143898D01*
X0010742Y0144496D02*
X0207286Y0144496D01*
X0208012Y0145095D02*
X0010742Y0145095D01*
X0010742Y0145693D02*
X0208907Y0145693D01*
X0209803Y0146292D02*
X0010742Y0146292D01*
X0010742Y0146890D02*
X0210699Y0146890D01*
X0211595Y0147489D02*
X0010742Y0147489D01*
X0010742Y0148087D02*
X0212490Y0148087D01*
X0213423Y0148686D02*
X0010742Y0148686D01*
X0010742Y0149284D02*
X0214868Y0149284D01*
X0216313Y0149883D02*
X0010742Y0149883D01*
X0010742Y0150481D02*
X0217758Y0150481D01*
X0219203Y0151080D02*
X0010742Y0151080D01*
X0010742Y0151678D02*
X0221721Y0151678D01*
X0224730Y0152277D02*
X0010742Y0152277D01*
X0010742Y0152875D02*
X0340788Y0152875D01*
X0340788Y0152277D02*
X0234871Y0152277D01*
X0237880Y0151678D02*
X0340788Y0151678D01*
X0340788Y0151080D02*
X0240399Y0151080D01*
X0241844Y0150481D02*
X0340788Y0150481D01*
X0340788Y0149883D02*
X0243288Y0149883D01*
X0244733Y0149284D02*
X0340788Y0149284D01*
X0340788Y0148686D02*
X0246178Y0148686D01*
X0247111Y0148087D02*
X0340788Y0148087D01*
X0340788Y0147489D02*
X0248007Y0147489D01*
X0248902Y0146890D02*
X0340788Y0146890D01*
X0340788Y0146292D02*
X0249798Y0146292D01*
X0250694Y0145693D02*
X0340788Y0145693D01*
X0340788Y0145095D02*
X0251590Y0145095D01*
X0252315Y0144496D02*
X0340788Y0144496D01*
X0340788Y0143898D02*
X0252913Y0143898D01*
X0253512Y0143299D02*
X0340788Y0143299D01*
X0340788Y0142701D02*
X0254110Y0142701D01*
X0254709Y0142102D02*
X0340788Y0142102D01*
X0340788Y0141504D02*
X0255307Y0141504D01*
X0255906Y0140905D02*
X0340788Y0140905D01*
X0340788Y0140307D02*
X0256504Y0140307D01*
X0257008Y0139708D02*
X0340788Y0139708D01*
X0340788Y0139109D02*
X0257408Y0139109D01*
X0257808Y0138511D02*
X0340788Y0138511D01*
X0340788Y0137912D02*
X0258208Y0137912D01*
X0258608Y0137314D02*
X0340788Y0137314D01*
X0340788Y0136715D02*
X0259007Y0136715D01*
X0259407Y0136117D02*
X0340788Y0136117D01*
X0340788Y0135518D02*
X0259807Y0135518D01*
X0260207Y0134920D02*
X0340788Y0134920D01*
X0340788Y0134321D02*
X0260607Y0134321D01*
X0260861Y0133723D02*
X0340788Y0133723D01*
X0340788Y0133124D02*
X0261109Y0133124D01*
X0261357Y0132526D02*
X0340788Y0132526D01*
X0340788Y0131927D02*
X0261605Y0131927D01*
X0261853Y0131329D02*
X0340788Y0131329D01*
X0340788Y0130730D02*
X0262100Y0130730D01*
X0262348Y0130132D02*
X0340788Y0130132D01*
X0340788Y0129533D02*
X0262596Y0129533D01*
X0262844Y0128935D02*
X0340788Y0128935D01*
X0340788Y0128336D02*
X0263092Y0128336D01*
X0263290Y0127738D02*
X0340788Y0127738D01*
X0340788Y0127139D02*
X0263409Y0127139D01*
X0263528Y0126541D02*
X0340788Y0126541D01*
X0340788Y0125942D02*
X0263647Y0125942D01*
X0263766Y0125344D02*
X0340788Y0125344D01*
X0340788Y0124745D02*
X0263886Y0124745D01*
X0264005Y0124147D02*
X0340788Y0124147D01*
X0340788Y0123548D02*
X0264124Y0123548D01*
X0264243Y0122950D02*
X0340788Y0122950D01*
X0340788Y0122351D02*
X0264362Y0122351D01*
X0264481Y0121753D02*
X0340788Y0121753D01*
X0340788Y0121154D02*
X0264581Y0121154D01*
X0264581Y0120556D02*
X0340788Y0120556D01*
X0340788Y0119957D02*
X0264581Y0119957D01*
X0264581Y0119359D02*
X0340788Y0119359D01*
X0340788Y0118760D02*
X0264581Y0118760D01*
X0264581Y0118162D02*
X0340788Y0118162D01*
X0340788Y0117563D02*
X0264581Y0117563D01*
X0264581Y0116965D02*
X0340788Y0116965D01*
X0340788Y0116366D02*
X0264581Y0116366D01*
X0264581Y0115768D02*
X0340788Y0115768D01*
X0340788Y0115169D02*
X0264581Y0115169D01*
X0264581Y0114571D02*
X0340788Y0114571D01*
X0340788Y0113972D02*
X0264496Y0113972D01*
X0264377Y0113373D02*
X0340788Y0113373D01*
X0340788Y0112775D02*
X0264258Y0112775D01*
X0264139Y0112176D02*
X0340788Y0112176D01*
X0340788Y0111578D02*
X0264020Y0111578D01*
X0263901Y0110979D02*
X0340788Y0110979D01*
X0340788Y0110381D02*
X0263782Y0110381D01*
X0263663Y0109782D02*
X0340788Y0109782D01*
X0340788Y0109184D02*
X0263544Y0109184D01*
X0263425Y0108585D02*
X0340788Y0108585D01*
X0340788Y0107987D02*
X0263306Y0107987D01*
X0263124Y0107388D02*
X0340788Y0107388D01*
X0340788Y0106790D02*
X0262876Y0106790D01*
X0262628Y0106191D02*
X0340788Y0106191D01*
X0340788Y0105593D02*
X0262380Y0105593D01*
X0262133Y0104994D02*
X0340788Y0104994D01*
X0340788Y0104396D02*
X0261885Y0104396D01*
X0261637Y0103797D02*
X0340788Y0103797D01*
X0340788Y0103199D02*
X0261389Y0103199D01*
X0261141Y0102600D02*
X0340788Y0102600D01*
X0340788Y0102002D02*
X0260893Y0102002D01*
X0260645Y0101403D02*
X0340788Y0101403D01*
X0340788Y0100805D02*
X0260259Y0100805D01*
X0259859Y0100206D02*
X0340788Y0100206D01*
X0340788Y0099608D02*
X0259459Y0099608D01*
X0259059Y0099009D02*
X0340788Y0099009D01*
X0340788Y0098411D02*
X0258659Y0098411D01*
X0258259Y0097812D02*
X0340788Y0097812D01*
X0340788Y0097214D02*
X0257859Y0097214D01*
X0257460Y0096615D02*
X0340788Y0096615D01*
X0340788Y0096017D02*
X0257060Y0096017D01*
X0256582Y0095418D02*
X0340788Y0095418D01*
X0340788Y0094820D02*
X0255983Y0094820D01*
X0255385Y0094221D02*
X0340788Y0094221D01*
X0340788Y0093623D02*
X0254786Y0093623D01*
X0254188Y0093024D02*
X0340788Y0093024D01*
X0340788Y0092426D02*
X0253589Y0092426D01*
X0252991Y0091827D02*
X0340788Y0091827D01*
X0340788Y0091229D02*
X0252392Y0091229D01*
X0251706Y0090630D02*
X0340788Y0090630D01*
X0340788Y0090032D02*
X0250810Y0090032D01*
X0249914Y0089433D02*
X0340788Y0089433D01*
X0340788Y0088835D02*
X0249018Y0088835D01*
X0248123Y0088236D02*
X0340788Y0088236D01*
X0340788Y0087638D02*
X0247227Y0087638D01*
X0246331Y0087039D02*
X0340788Y0087039D01*
X0340788Y0086440D02*
X0244920Y0086440D01*
X0243475Y0085842D02*
X0340788Y0085842D01*
X0340788Y0085243D02*
X0242031Y0085243D01*
X0240586Y0084645D02*
X0340788Y0084645D01*
X0340788Y0084046D02*
X0238269Y0084046D01*
X0235260Y0083448D02*
X0340788Y0083448D01*
X0335473Y0015816D02*
X0016994Y0015816D01*
X0019058Y0015218D02*
X0333643Y0015218D01*
X0340788Y0153474D02*
X0010742Y0153474D01*
X0010742Y0154072D02*
X0340788Y0154072D01*
X0340788Y0154671D02*
X0010742Y0154671D01*
X0010742Y0155269D02*
X0340788Y0155269D01*
X0340788Y0155868D02*
X0010742Y0155868D01*
X0010742Y0156466D02*
X0340788Y0156466D01*
X0340788Y0157065D02*
X0010742Y0157065D01*
X0010742Y0157663D02*
X0340788Y0157663D01*
X0340788Y0158262D02*
X0010742Y0158262D01*
X0010742Y0158860D02*
X0340788Y0158860D01*
X0340788Y0159459D02*
X0010742Y0159459D01*
X0010742Y0160057D02*
X0340788Y0160057D01*
X0340788Y0160656D02*
X0010742Y0160656D01*
X0010742Y0161254D02*
X0340788Y0161254D01*
X0340788Y0161853D02*
X0010742Y0161853D01*
X0010742Y0162451D02*
X0340788Y0162451D01*
X0340788Y0163050D02*
X0010742Y0163050D01*
X0010742Y0163648D02*
X0340788Y0163648D01*
X0340788Y0164247D02*
X0010742Y0164247D01*
X0010742Y0164845D02*
X0340788Y0164845D01*
X0340788Y0165444D02*
X0010742Y0165444D01*
X0010742Y0166042D02*
X0340788Y0166042D01*
X0340788Y0166641D02*
X0010742Y0166641D01*
X0010742Y0167240D02*
X0340788Y0167240D01*
X0340788Y0167838D02*
X0010742Y0167838D01*
X0010742Y0168437D02*
X0340788Y0168437D01*
X0340788Y0169035D02*
X0010742Y0169035D01*
X0010742Y0169634D02*
X0340788Y0169634D01*
X0340788Y0170232D02*
X0010742Y0170232D01*
X0010742Y0170831D02*
X0340788Y0170831D01*
X0340788Y0171429D02*
X0010742Y0171429D01*
X0010742Y0172028D02*
X0340788Y0172028D01*
X0340788Y0172626D02*
X0010742Y0172626D01*
X0010742Y0173225D02*
X0340788Y0173225D01*
X0340788Y0173823D02*
X0010742Y0173823D01*
X0010742Y0174422D02*
X0340788Y0174422D01*
X0340788Y0175020D02*
X0010742Y0175020D01*
X0010742Y0175619D02*
X0340788Y0175619D01*
X0340788Y0176217D02*
X0010742Y0176217D01*
X0010742Y0176816D02*
X0340788Y0176816D01*
X0340788Y0177414D02*
X0010742Y0177414D01*
X0010742Y0178013D02*
X0340788Y0178013D01*
X0340788Y0178611D02*
X0010742Y0178611D01*
X0010742Y0179210D02*
X0340788Y0179210D01*
X0340788Y0179808D02*
X0010742Y0179808D01*
X0010742Y0180407D02*
X0340788Y0180407D01*
X0340788Y0181005D02*
X0010742Y0181005D01*
X0010742Y0181604D02*
X0340788Y0181604D01*
X0340788Y0182202D02*
X0010742Y0182202D01*
X0010742Y0182801D02*
X0340788Y0182801D01*
X0340788Y0183399D02*
X0010742Y0183399D01*
X0010742Y0183998D02*
X0340788Y0183998D01*
X0340788Y0184596D02*
X0010742Y0184596D01*
X0010742Y0185195D02*
X0340788Y0185195D01*
X0340788Y0185793D02*
X0010742Y0185793D01*
X0010742Y0186392D02*
X0340788Y0186392D01*
X0340788Y0186990D02*
X0010742Y0186990D01*
X0010742Y0187589D02*
X0340788Y0187589D01*
X0340788Y0188187D02*
X0010742Y0188187D01*
X0010742Y0188786D02*
X0340788Y0188786D01*
X0340788Y0189384D02*
X0010742Y0189384D01*
X0010742Y0189983D02*
X0340788Y0189983D01*
X0340788Y0190581D02*
X0010742Y0190581D01*
X0010742Y0191180D02*
X0340788Y0191180D01*
X0340788Y0191778D02*
X0010742Y0191778D01*
X0010742Y0192377D02*
X0340788Y0192377D01*
X0340788Y0192976D02*
X0010742Y0192976D01*
X0010742Y0193574D02*
X0340788Y0193574D01*
X0340788Y0194173D02*
X0010742Y0194173D01*
X0010742Y0194771D02*
X0340788Y0194771D01*
X0340788Y0195370D02*
X0010742Y0195370D01*
X0010742Y0195968D02*
X0340788Y0195968D01*
X0340788Y0196567D02*
X0010742Y0196567D01*
X0010742Y0197165D02*
X0340788Y0197165D01*
X0340788Y0197764D02*
X0010742Y0197764D01*
X0010742Y0198362D02*
X0340788Y0198362D01*
X0340788Y0198961D02*
X0010742Y0198961D01*
X0010742Y0199559D02*
X0340788Y0199559D01*
X0340788Y0200158D02*
X0010742Y0200158D01*
X0010742Y0200756D02*
X0340788Y0200756D01*
X0340788Y0201355D02*
X0010742Y0201355D01*
X0010742Y0201953D02*
X0340788Y0201953D01*
X0340788Y0202552D02*
X0010742Y0202552D01*
X0010742Y0203150D02*
X0340788Y0203150D01*
X0340788Y0203749D02*
X0010742Y0203749D01*
X0010742Y0204347D02*
X0340788Y0204347D01*
X0340788Y0204946D02*
X0010742Y0204946D01*
X0010742Y0205544D02*
X0340788Y0205544D01*
X0340788Y0206143D02*
X0010742Y0206143D01*
X0010742Y0206741D02*
X0340788Y0206741D01*
X0340788Y0207340D02*
X0010742Y0207340D01*
X0010742Y0207938D02*
X0340788Y0207938D01*
X0340788Y0208537D02*
X0010742Y0208537D01*
X0010742Y0209135D02*
X0340788Y0209135D01*
X0340788Y0209734D02*
X0010742Y0209734D01*
X0010742Y0210332D02*
X0340788Y0210332D01*
X0340788Y0210931D02*
X0010742Y0210931D01*
X0010742Y0211529D02*
X0340788Y0211529D01*
X0340788Y0212128D02*
X0010742Y0212128D01*
X0010742Y0212726D02*
X0340788Y0212726D01*
X0340753Y0213325D02*
X0010767Y0213325D01*
X0010742Y0213923D02*
X0340788Y0213923D01*
X0340788Y0214522D02*
X0010746Y0214522D01*
X0010753Y0215120D02*
X0340813Y0215120D01*
X0340688Y0215719D02*
X0010899Y0215719D01*
X0011050Y0216317D02*
X0340552Y0216317D01*
X0340416Y0216916D02*
X0011202Y0216916D01*
X0011353Y0217514D02*
X0340280Y0217514D01*
X0340020Y0218113D02*
X0011617Y0218113D01*
X0011994Y0218711D02*
X0339663Y0218711D01*
X0339307Y0219310D02*
X0012371Y0219310D01*
X0012747Y0219909D02*
X0338950Y0219909D01*
X0338361Y0220507D02*
X0013332Y0220507D01*
X0014050Y0221106D02*
X0337677Y0221106D01*
X0336993Y0221704D02*
X0014768Y0221704D01*
X0016003Y0222303D02*
X0335769Y0222303D01*
D11*
X0313068Y0128965D03*
X0314053Y0124044D03*
X0317497Y0124044D03*
X0310608Y0124044D03*
X0307163Y0124044D03*
X0303718Y0124044D03*
X0302734Y0128965D03*
X0306179Y0128965D03*
X0299289Y0128965D03*
X0288954Y0128965D03*
X0285509Y0128965D03*
X0282064Y0128965D03*
X0278620Y0128965D03*
X0235805Y0037430D03*
X0235805Y0034477D03*
X0072911Y0065481D03*
X0068974Y0065481D03*
X0068974Y0061544D03*
X0065037Y0065481D03*
X0068974Y0069418D03*
X0018285Y0105343D03*
X0014348Y0105343D03*
X0014348Y0109280D03*
X0018285Y0109280D03*
X0024190Y0109280D03*
X0028127Y0109280D03*
X0028127Y0128965D03*
X0024190Y0128965D03*
X0018285Y0128965D03*
X0014348Y0128965D03*
X0014348Y0132902D03*
X0018285Y0132902D03*
X0068482Y0167351D03*
X0068482Y0171288D03*
X0072419Y0171288D03*
X0068482Y0175225D03*
X0064545Y0171288D03*
D12*
X0132458Y0119615D03*
X0134919Y0119615D03*
X0144269Y0119615D03*
X0146238Y0121583D03*
X0178718Y0154556D03*
X0178718Y0157017D03*
X0178718Y0164398D03*
X0178718Y0166859D03*
X0170352Y0164398D03*
X0167891Y0164398D03*
X0165431Y0164398D03*
X0162970Y0164398D03*
X0158049Y0073847D03*
X0158049Y0071387D03*
X0145746Y0063513D03*
X0145746Y0060560D03*
X0142793Y0060560D03*
X0142793Y0063513D03*
X0135411Y0036938D03*
X0135411Y0034477D03*
D13*
X0283049Y0124044D03*
X0286494Y0124044D03*
X0289938Y0124044D03*
X0293383Y0124044D03*
X0296828Y0124044D03*
X0300273Y0124044D03*
X0295844Y0128965D03*
X0316513Y0128965D03*
X0319958Y0128965D03*
M02*
