G75*
%MOIN*%
%OFA0B0*%
%FSLAX25Y25*%
%IPPOS*%
%LPD*%
%AMOC8*
5,1,8,0,0,1.08239X$1,22.5*
%
%ADD10C,0.00000*%
D10*
X0020253Y0012824D02*
X0333246Y0012824D01*
X0333245Y0012824D02*
X0333507Y0012851D01*
X0333767Y0012884D01*
X0334027Y0012923D01*
X0334286Y0012969D01*
X0334543Y0013021D01*
X0334799Y0013079D01*
X0335054Y0013144D01*
X0335307Y0013214D01*
X0335558Y0013291D01*
X0335808Y0013374D01*
X0336055Y0013462D01*
X0336300Y0013557D01*
X0336543Y0013658D01*
X0336783Y0013764D01*
X0337020Y0013876D01*
X0337255Y0013994D01*
X0337487Y0014118D01*
X0337716Y0014247D01*
X0337941Y0014381D01*
X0338164Y0014521D01*
X0338383Y0014666D01*
X0338598Y0014817D01*
X0338809Y0014973D01*
X0339017Y0015133D01*
X0339221Y0015299D01*
X0339421Y0015470D01*
X0339616Y0015645D01*
X0339808Y0015825D01*
X0339995Y0016010D01*
X0340177Y0016199D01*
X0340355Y0016392D01*
X0340528Y0016590D01*
X0340696Y0016792D01*
X0340859Y0016998D01*
X0341017Y0017207D01*
X0341170Y0017421D01*
X0341318Y0017638D01*
X0341461Y0017859D01*
X0341598Y0018083D01*
X0341730Y0018310D01*
X0341856Y0018540D01*
X0341977Y0018774D01*
X0342092Y0019010D01*
X0342201Y0019249D01*
X0342305Y0019490D01*
X0342402Y0019734D01*
X0342494Y0019980D01*
X0342580Y0020229D01*
X0342659Y0020479D01*
X0342733Y0020731D01*
X0342800Y0020985D01*
X0342862Y0021241D01*
X0342917Y0021497D01*
X0342966Y0021755D01*
X0343008Y0022015D01*
X0343045Y0022275D01*
X0343075Y0022536D01*
X0343099Y0022797D01*
X0343116Y0023060D01*
X0343127Y0023322D01*
X0343132Y0023585D01*
X0343130Y0023847D01*
X0343122Y0024110D01*
X0343108Y0024372D01*
X0343087Y0024634D01*
X0343088Y0024635D02*
X0343088Y0213611D01*
X0343087Y0213611D02*
X0343108Y0213873D01*
X0343122Y0214135D01*
X0343130Y0214398D01*
X0343132Y0214660D01*
X0343127Y0214923D01*
X0343116Y0215185D01*
X0343099Y0215448D01*
X0343075Y0215709D01*
X0343045Y0215970D01*
X0343008Y0216230D01*
X0342966Y0216490D01*
X0342917Y0216748D01*
X0342862Y0217004D01*
X0342800Y0217260D01*
X0342733Y0217514D01*
X0342659Y0217766D01*
X0342580Y0218016D01*
X0342494Y0218265D01*
X0342402Y0218511D01*
X0342305Y0218755D01*
X0342201Y0218996D01*
X0342092Y0219235D01*
X0341977Y0219471D01*
X0341856Y0219705D01*
X0341730Y0219935D01*
X0341598Y0220162D01*
X0341461Y0220386D01*
X0341318Y0220607D01*
X0341170Y0220824D01*
X0341017Y0221038D01*
X0340859Y0221247D01*
X0340696Y0221453D01*
X0340528Y0221655D01*
X0340355Y0221853D01*
X0340177Y0222046D01*
X0339995Y0222235D01*
X0339808Y0222420D01*
X0339616Y0222600D01*
X0339421Y0222775D01*
X0339221Y0222946D01*
X0339017Y0223112D01*
X0338809Y0223272D01*
X0338598Y0223428D01*
X0338383Y0223579D01*
X0338164Y0223724D01*
X0337941Y0223864D01*
X0337716Y0223998D01*
X0337487Y0224127D01*
X0337255Y0224251D01*
X0337020Y0224369D01*
X0336783Y0224481D01*
X0336543Y0224587D01*
X0336300Y0224688D01*
X0336055Y0224783D01*
X0335808Y0224871D01*
X0335558Y0224954D01*
X0335307Y0225031D01*
X0335054Y0225101D01*
X0334799Y0225166D01*
X0334543Y0225224D01*
X0334286Y0225276D01*
X0334027Y0225322D01*
X0333767Y0225361D01*
X0333507Y0225394D01*
X0333245Y0225421D01*
X0333246Y0225422D02*
X0018777Y0225422D01*
X0018777Y0225421D02*
X0018510Y0225400D01*
X0018243Y0225373D01*
X0017977Y0225339D01*
X0017712Y0225298D01*
X0017448Y0225252D01*
X0017185Y0225199D01*
X0016923Y0225139D01*
X0016663Y0225073D01*
X0016405Y0225001D01*
X0016148Y0224923D01*
X0015894Y0224839D01*
X0015642Y0224748D01*
X0015391Y0224651D01*
X0015144Y0224549D01*
X0014898Y0224440D01*
X0014656Y0224326D01*
X0014416Y0224205D01*
X0014180Y0224079D01*
X0013946Y0223947D01*
X0013716Y0223810D01*
X0013489Y0223667D01*
X0013265Y0223519D01*
X0013046Y0223365D01*
X0012830Y0223206D01*
X0012618Y0223042D01*
X0012410Y0222873D01*
X0012206Y0222699D01*
X0012006Y0222520D01*
X0011811Y0222336D01*
X0011620Y0222147D01*
X0011434Y0221954D01*
X0011253Y0221757D01*
X0011076Y0221555D01*
X0010904Y0221349D01*
X0010738Y0221139D01*
X0010576Y0220925D01*
X0010420Y0220707D01*
X0010269Y0220485D01*
X0010123Y0220260D01*
X0009983Y0220031D01*
X0009849Y0219799D01*
X0009720Y0219564D01*
X0009597Y0219326D01*
X0009479Y0219085D01*
X0009368Y0218841D01*
X0009262Y0218594D01*
X0009163Y0218346D01*
X0009069Y0218094D01*
X0008982Y0217841D01*
X0008900Y0217585D01*
X0008825Y0217328D01*
X0008756Y0217069D01*
X0008694Y0216808D01*
X0008638Y0216546D01*
X0008588Y0216282D01*
X0008544Y0216017D01*
X0008507Y0215752D01*
X0008476Y0215485D01*
X0008452Y0215218D01*
X0008434Y0214951D01*
X0008423Y0214683D01*
X0008418Y0214415D01*
X0008420Y0214147D01*
X0008428Y0213879D01*
X0008443Y0213611D01*
X0008442Y0213611D02*
X0008442Y0138808D01*
X0010411Y0136839D01*
X0010411Y0101406D01*
X0008442Y0099438D01*
X0008442Y0024635D01*
X0008445Y0024350D01*
X0008456Y0024064D01*
X0008473Y0023779D01*
X0008497Y0023495D01*
X0008528Y0023211D01*
X0008566Y0022928D01*
X0008611Y0022647D01*
X0008662Y0022366D01*
X0008720Y0022086D01*
X0008785Y0021808D01*
X0008857Y0021532D01*
X0008935Y0021258D01*
X0009020Y0020985D01*
X0009112Y0020715D01*
X0009210Y0020447D01*
X0009314Y0020181D01*
X0009425Y0019918D01*
X0009542Y0019658D01*
X0009665Y0019400D01*
X0009795Y0019146D01*
X0009931Y0018895D01*
X0010072Y0018647D01*
X0010220Y0018403D01*
X0010373Y0018162D01*
X0010533Y0017926D01*
X0010698Y0017693D01*
X0010868Y0017464D01*
X0011044Y0017239D01*
X0011226Y0017019D01*
X0011412Y0016803D01*
X0011604Y0016592D01*
X0011801Y0016385D01*
X0012003Y0016183D01*
X0012210Y0015986D01*
X0012421Y0015794D01*
X0012637Y0015608D01*
X0012857Y0015426D01*
X0013082Y0015250D01*
X0013311Y0015080D01*
X0013544Y0014915D01*
X0013780Y0014755D01*
X0014021Y0014602D01*
X0014265Y0014454D01*
X0014513Y0014313D01*
X0014764Y0014177D01*
X0015018Y0014047D01*
X0015276Y0013924D01*
X0015536Y0013807D01*
X0015799Y0013696D01*
X0016065Y0013592D01*
X0016333Y0013494D01*
X0016603Y0013402D01*
X0016876Y0013317D01*
X0017150Y0013239D01*
X0017426Y0013167D01*
X0017704Y0013102D01*
X0017984Y0013044D01*
X0018265Y0012993D01*
X0018546Y0012948D01*
X0018829Y0012910D01*
X0019113Y0012879D01*
X0019397Y0012855D01*
X0019682Y0012838D01*
X0019968Y0012827D01*
X0020253Y0012824D01*
X0010608Y0102784D02*
X0010608Y0135461D01*
X0104111Y0115186D02*
X0104113Y0115270D01*
X0104119Y0115353D01*
X0104129Y0115436D01*
X0104143Y0115519D01*
X0104160Y0115601D01*
X0104182Y0115682D01*
X0104207Y0115761D01*
X0104236Y0115840D01*
X0104269Y0115917D01*
X0104305Y0115992D01*
X0104345Y0116066D01*
X0104388Y0116138D01*
X0104435Y0116207D01*
X0104485Y0116274D01*
X0104538Y0116339D01*
X0104594Y0116401D01*
X0104652Y0116461D01*
X0104714Y0116518D01*
X0104778Y0116571D01*
X0104845Y0116622D01*
X0104914Y0116669D01*
X0104985Y0116714D01*
X0105058Y0116754D01*
X0105133Y0116791D01*
X0105210Y0116825D01*
X0105288Y0116855D01*
X0105367Y0116881D01*
X0105448Y0116904D01*
X0105530Y0116922D01*
X0105612Y0116937D01*
X0105695Y0116948D01*
X0105778Y0116955D01*
X0105862Y0116958D01*
X0105946Y0116957D01*
X0106029Y0116952D01*
X0106113Y0116943D01*
X0106195Y0116930D01*
X0106277Y0116914D01*
X0106358Y0116893D01*
X0106439Y0116869D01*
X0106517Y0116841D01*
X0106595Y0116809D01*
X0106671Y0116773D01*
X0106745Y0116734D01*
X0106817Y0116692D01*
X0106887Y0116646D01*
X0106955Y0116597D01*
X0107020Y0116545D01*
X0107083Y0116490D01*
X0107143Y0116432D01*
X0107201Y0116371D01*
X0107255Y0116307D01*
X0107307Y0116241D01*
X0107355Y0116173D01*
X0107400Y0116102D01*
X0107441Y0116029D01*
X0107480Y0115955D01*
X0107514Y0115879D01*
X0107545Y0115801D01*
X0107572Y0115722D01*
X0107596Y0115641D01*
X0107615Y0115560D01*
X0107631Y0115478D01*
X0107643Y0115395D01*
X0107651Y0115311D01*
X0107655Y0115228D01*
X0107655Y0115144D01*
X0107651Y0115061D01*
X0107643Y0114977D01*
X0107631Y0114894D01*
X0107615Y0114812D01*
X0107596Y0114731D01*
X0107572Y0114650D01*
X0107545Y0114571D01*
X0107514Y0114493D01*
X0107480Y0114417D01*
X0107441Y0114343D01*
X0107400Y0114270D01*
X0107355Y0114199D01*
X0107307Y0114131D01*
X0107255Y0114065D01*
X0107201Y0114001D01*
X0107143Y0113940D01*
X0107083Y0113882D01*
X0107020Y0113827D01*
X0106955Y0113775D01*
X0106887Y0113726D01*
X0106817Y0113680D01*
X0106745Y0113638D01*
X0106671Y0113599D01*
X0106595Y0113563D01*
X0106517Y0113531D01*
X0106439Y0113503D01*
X0106358Y0113479D01*
X0106277Y0113458D01*
X0106195Y0113442D01*
X0106113Y0113429D01*
X0106029Y0113420D01*
X0105946Y0113415D01*
X0105862Y0113414D01*
X0105778Y0113417D01*
X0105695Y0113424D01*
X0105612Y0113435D01*
X0105530Y0113450D01*
X0105448Y0113468D01*
X0105367Y0113491D01*
X0105288Y0113517D01*
X0105210Y0113547D01*
X0105133Y0113581D01*
X0105058Y0113618D01*
X0104985Y0113658D01*
X0104914Y0113703D01*
X0104845Y0113750D01*
X0104778Y0113801D01*
X0104714Y0113854D01*
X0104652Y0113911D01*
X0104594Y0113971D01*
X0104538Y0114033D01*
X0104485Y0114098D01*
X0104435Y0114165D01*
X0104388Y0114234D01*
X0104345Y0114306D01*
X0104305Y0114380D01*
X0104269Y0114455D01*
X0104236Y0114532D01*
X0104207Y0114611D01*
X0104182Y0114690D01*
X0104160Y0114771D01*
X0104143Y0114853D01*
X0104129Y0114936D01*
X0104119Y0115019D01*
X0104113Y0115102D01*
X0104111Y0115186D01*
X0112380Y0123847D02*
X0112382Y0123940D01*
X0112388Y0124032D01*
X0112398Y0124124D01*
X0112412Y0124215D01*
X0112429Y0124306D01*
X0112451Y0124396D01*
X0112476Y0124485D01*
X0112505Y0124573D01*
X0112538Y0124659D01*
X0112575Y0124744D01*
X0112615Y0124828D01*
X0112659Y0124909D01*
X0112706Y0124989D01*
X0112756Y0125067D01*
X0112810Y0125142D01*
X0112867Y0125215D01*
X0112927Y0125285D01*
X0112990Y0125353D01*
X0113056Y0125418D01*
X0113124Y0125480D01*
X0113195Y0125540D01*
X0113269Y0125596D01*
X0113345Y0125649D01*
X0113423Y0125698D01*
X0113503Y0125745D01*
X0113585Y0125787D01*
X0113669Y0125827D01*
X0113754Y0125862D01*
X0113841Y0125894D01*
X0113929Y0125923D01*
X0114018Y0125947D01*
X0114108Y0125968D01*
X0114199Y0125984D01*
X0114291Y0125997D01*
X0114383Y0126006D01*
X0114476Y0126011D01*
X0114568Y0126012D01*
X0114661Y0126009D01*
X0114753Y0126002D01*
X0114845Y0125991D01*
X0114936Y0125976D01*
X0115027Y0125958D01*
X0115117Y0125935D01*
X0115205Y0125909D01*
X0115293Y0125879D01*
X0115379Y0125845D01*
X0115463Y0125808D01*
X0115546Y0125766D01*
X0115627Y0125722D01*
X0115707Y0125674D01*
X0115784Y0125623D01*
X0115858Y0125568D01*
X0115931Y0125510D01*
X0116001Y0125450D01*
X0116068Y0125386D01*
X0116132Y0125320D01*
X0116194Y0125250D01*
X0116252Y0125179D01*
X0116307Y0125105D01*
X0116359Y0125028D01*
X0116408Y0124949D01*
X0116454Y0124869D01*
X0116496Y0124786D01*
X0116534Y0124702D01*
X0116569Y0124616D01*
X0116600Y0124529D01*
X0116627Y0124441D01*
X0116650Y0124351D01*
X0116670Y0124261D01*
X0116686Y0124170D01*
X0116698Y0124078D01*
X0116706Y0123986D01*
X0116710Y0123893D01*
X0116710Y0123801D01*
X0116706Y0123708D01*
X0116698Y0123616D01*
X0116686Y0123524D01*
X0116670Y0123433D01*
X0116650Y0123343D01*
X0116627Y0123253D01*
X0116600Y0123165D01*
X0116569Y0123078D01*
X0116534Y0122992D01*
X0116496Y0122908D01*
X0116454Y0122825D01*
X0116408Y0122745D01*
X0116359Y0122666D01*
X0116307Y0122589D01*
X0116252Y0122515D01*
X0116194Y0122444D01*
X0116132Y0122374D01*
X0116068Y0122308D01*
X0116001Y0122244D01*
X0115931Y0122184D01*
X0115858Y0122126D01*
X0115784Y0122071D01*
X0115707Y0122020D01*
X0115628Y0121972D01*
X0115546Y0121928D01*
X0115463Y0121886D01*
X0115379Y0121849D01*
X0115293Y0121815D01*
X0115205Y0121785D01*
X0115117Y0121759D01*
X0115027Y0121736D01*
X0114936Y0121718D01*
X0114845Y0121703D01*
X0114753Y0121692D01*
X0114661Y0121685D01*
X0114568Y0121682D01*
X0114476Y0121683D01*
X0114383Y0121688D01*
X0114291Y0121697D01*
X0114199Y0121710D01*
X0114108Y0121726D01*
X0114018Y0121747D01*
X0113929Y0121771D01*
X0113841Y0121800D01*
X0113754Y0121832D01*
X0113669Y0121867D01*
X0113585Y0121907D01*
X0113503Y0121949D01*
X0113423Y0121996D01*
X0113345Y0122045D01*
X0113269Y0122098D01*
X0113195Y0122154D01*
X0113124Y0122214D01*
X0113056Y0122276D01*
X0112990Y0122341D01*
X0112927Y0122409D01*
X0112867Y0122479D01*
X0112810Y0122552D01*
X0112756Y0122627D01*
X0112706Y0122705D01*
X0112659Y0122785D01*
X0112615Y0122866D01*
X0112575Y0122950D01*
X0112538Y0123035D01*
X0112505Y0123121D01*
X0112476Y0123209D01*
X0112451Y0123298D01*
X0112429Y0123388D01*
X0112412Y0123479D01*
X0112398Y0123570D01*
X0112388Y0123662D01*
X0112382Y0123754D01*
X0112380Y0123847D01*
X0197321Y0117824D02*
X0197331Y0118621D01*
X0197360Y0119418D01*
X0197409Y0120213D01*
X0197477Y0121008D01*
X0197565Y0121800D01*
X0197673Y0122590D01*
X0197799Y0123377D01*
X0197945Y0124161D01*
X0198110Y0124940D01*
X0198294Y0125716D01*
X0198498Y0126487D01*
X0198720Y0127252D01*
X0198960Y0128012D01*
X0199220Y0128766D01*
X0199497Y0129513D01*
X0199793Y0130254D01*
X0200107Y0130986D01*
X0200439Y0131711D01*
X0200789Y0132427D01*
X0201156Y0133135D01*
X0201541Y0133833D01*
X0201942Y0134522D01*
X0202360Y0135201D01*
X0202795Y0135869D01*
X0203246Y0136526D01*
X0203713Y0137172D01*
X0204196Y0137807D01*
X0204694Y0138429D01*
X0205207Y0139039D01*
X0205735Y0139636D01*
X0206277Y0140220D01*
X0206834Y0140791D01*
X0207405Y0141348D01*
X0207989Y0141890D01*
X0208586Y0142418D01*
X0209196Y0142931D01*
X0209818Y0143429D01*
X0210453Y0143912D01*
X0211099Y0144379D01*
X0211756Y0144830D01*
X0212424Y0145265D01*
X0213103Y0145683D01*
X0213792Y0146084D01*
X0214490Y0146469D01*
X0215198Y0146836D01*
X0215914Y0147186D01*
X0216639Y0147518D01*
X0217371Y0147832D01*
X0218112Y0148128D01*
X0218859Y0148405D01*
X0219613Y0148665D01*
X0220373Y0148905D01*
X0221138Y0149127D01*
X0221909Y0149331D01*
X0222685Y0149515D01*
X0223464Y0149680D01*
X0224248Y0149826D01*
X0225035Y0149952D01*
X0225825Y0150060D01*
X0226617Y0150148D01*
X0227412Y0150216D01*
X0228207Y0150265D01*
X0229004Y0150294D01*
X0229801Y0150304D01*
X0230598Y0150294D01*
X0231395Y0150265D01*
X0232190Y0150216D01*
X0232985Y0150148D01*
X0233777Y0150060D01*
X0234567Y0149952D01*
X0235354Y0149826D01*
X0236138Y0149680D01*
X0236917Y0149515D01*
X0237693Y0149331D01*
X0238464Y0149127D01*
X0239229Y0148905D01*
X0239989Y0148665D01*
X0240743Y0148405D01*
X0241490Y0148128D01*
X0242231Y0147832D01*
X0242963Y0147518D01*
X0243688Y0147186D01*
X0244404Y0146836D01*
X0245112Y0146469D01*
X0245810Y0146084D01*
X0246499Y0145683D01*
X0247178Y0145265D01*
X0247846Y0144830D01*
X0248503Y0144379D01*
X0249149Y0143912D01*
X0249784Y0143429D01*
X0250406Y0142931D01*
X0251016Y0142418D01*
X0251613Y0141890D01*
X0252197Y0141348D01*
X0252768Y0140791D01*
X0253325Y0140220D01*
X0253867Y0139636D01*
X0254395Y0139039D01*
X0254908Y0138429D01*
X0255406Y0137807D01*
X0255889Y0137172D01*
X0256356Y0136526D01*
X0256807Y0135869D01*
X0257242Y0135201D01*
X0257660Y0134522D01*
X0258061Y0133833D01*
X0258446Y0133135D01*
X0258813Y0132427D01*
X0259163Y0131711D01*
X0259495Y0130986D01*
X0259809Y0130254D01*
X0260105Y0129513D01*
X0260382Y0128766D01*
X0260642Y0128012D01*
X0260882Y0127252D01*
X0261104Y0126487D01*
X0261308Y0125716D01*
X0261492Y0124940D01*
X0261657Y0124161D01*
X0261803Y0123377D01*
X0261929Y0122590D01*
X0262037Y0121800D01*
X0262125Y0121008D01*
X0262193Y0120213D01*
X0262242Y0119418D01*
X0262271Y0118621D01*
X0262281Y0117824D01*
X0262271Y0117027D01*
X0262242Y0116230D01*
X0262193Y0115435D01*
X0262125Y0114640D01*
X0262037Y0113848D01*
X0261929Y0113058D01*
X0261803Y0112271D01*
X0261657Y0111487D01*
X0261492Y0110708D01*
X0261308Y0109932D01*
X0261104Y0109161D01*
X0260882Y0108396D01*
X0260642Y0107636D01*
X0260382Y0106882D01*
X0260105Y0106135D01*
X0259809Y0105394D01*
X0259495Y0104662D01*
X0259163Y0103937D01*
X0258813Y0103221D01*
X0258446Y0102513D01*
X0258061Y0101815D01*
X0257660Y0101126D01*
X0257242Y0100447D01*
X0256807Y0099779D01*
X0256356Y0099122D01*
X0255889Y0098476D01*
X0255406Y0097841D01*
X0254908Y0097219D01*
X0254395Y0096609D01*
X0253867Y0096012D01*
X0253325Y0095428D01*
X0252768Y0094857D01*
X0252197Y0094300D01*
X0251613Y0093758D01*
X0251016Y0093230D01*
X0250406Y0092717D01*
X0249784Y0092219D01*
X0249149Y0091736D01*
X0248503Y0091269D01*
X0247846Y0090818D01*
X0247178Y0090383D01*
X0246499Y0089965D01*
X0245810Y0089564D01*
X0245112Y0089179D01*
X0244404Y0088812D01*
X0243688Y0088462D01*
X0242963Y0088130D01*
X0242231Y0087816D01*
X0241490Y0087520D01*
X0240743Y0087243D01*
X0239989Y0086983D01*
X0239229Y0086743D01*
X0238464Y0086521D01*
X0237693Y0086317D01*
X0236917Y0086133D01*
X0236138Y0085968D01*
X0235354Y0085822D01*
X0234567Y0085696D01*
X0233777Y0085588D01*
X0232985Y0085500D01*
X0232190Y0085432D01*
X0231395Y0085383D01*
X0230598Y0085354D01*
X0229801Y0085344D01*
X0229004Y0085354D01*
X0228207Y0085383D01*
X0227412Y0085432D01*
X0226617Y0085500D01*
X0225825Y0085588D01*
X0225035Y0085696D01*
X0224248Y0085822D01*
X0223464Y0085968D01*
X0222685Y0086133D01*
X0221909Y0086317D01*
X0221138Y0086521D01*
X0220373Y0086743D01*
X0219613Y0086983D01*
X0218859Y0087243D01*
X0218112Y0087520D01*
X0217371Y0087816D01*
X0216639Y0088130D01*
X0215914Y0088462D01*
X0215198Y0088812D01*
X0214490Y0089179D01*
X0213792Y0089564D01*
X0213103Y0089965D01*
X0212424Y0090383D01*
X0211756Y0090818D01*
X0211099Y0091269D01*
X0210453Y0091736D01*
X0209818Y0092219D01*
X0209196Y0092717D01*
X0208586Y0093230D01*
X0207989Y0093758D01*
X0207405Y0094300D01*
X0206834Y0094857D01*
X0206277Y0095428D01*
X0205735Y0096012D01*
X0205207Y0096609D01*
X0204694Y0097219D01*
X0204196Y0097841D01*
X0203713Y0098476D01*
X0203246Y0099122D01*
X0202795Y0099779D01*
X0202360Y0100447D01*
X0201942Y0101126D01*
X0201541Y0101815D01*
X0201156Y0102513D01*
X0200789Y0103221D01*
X0200439Y0103937D01*
X0200107Y0104662D01*
X0199793Y0105394D01*
X0199497Y0106135D01*
X0199220Y0106882D01*
X0198960Y0107636D01*
X0198720Y0108396D01*
X0198498Y0109161D01*
X0198294Y0109932D01*
X0198110Y0110708D01*
X0197945Y0111487D01*
X0197799Y0112271D01*
X0197673Y0113058D01*
X0197565Y0113848D01*
X0197477Y0114640D01*
X0197409Y0115435D01*
X0197360Y0116230D01*
X0197331Y0117027D01*
X0197321Y0117824D01*
M02*
