G75*
%MOIN*%
%OFA0B0*%
%FSLAX25Y25*%
%IPPOS*%
%LPD*%
%AMOC8*
5,1,8,0,0,1.08239X$1,22.5*
%
%ADD10R,0.06890X0.17717*%
%ADD11R,0.02165X0.04724*%
%ADD12R,0.03150X0.02559*%
%ADD13R,0.03150X0.04134*%
%ADD14R,0.01500X0.03000*%
%ADD15R,0.11024X0.05512*%
%ADD16R,0.05906X0.05906*%
%ADD17R,0.05906X0.05906*%
%ADD18R,0.05118X0.05906*%
%ADD19R,0.05906X0.05118*%
%ADD20C,0.31496*%
%ADD21C,0.07874*%
%ADD22R,0.06299X0.05118*%
%ADD23R,0.05118X0.06299*%
%ADD24R,0.06693X0.01772*%
%ADD25R,0.08268X0.05807*%
%ADD26R,0.07480X0.09350*%
%ADD27R,0.03150X0.01969*%
%ADD28R,0.01378X0.01378*%
%ADD29R,0.03937X0.04331*%
%ADD30R,0.00984X0.02756*%
%ADD31C,0.01299*%
%ADD32R,0.04252X0.04134*%
%ADD33R,0.04331X0.03937*%
%ADD34R,0.03500X0.03100*%
%ADD35R,0.03150X0.04724*%
%ADD36R,0.03937X0.05118*%
%ADD37R,0.03150X0.05118*%
%ADD38R,0.06299X0.05512*%
%ADD39C,0.02400*%
%ADD40OC8,0.03175*%
%ADD41C,0.01200*%
%ADD42C,0.03200*%
%ADD43OC8,0.02781*%
%ADD44C,0.02362*%
%ADD45OC8,0.03569*%
%ADD46C,0.01600*%
%ADD47C,0.02000*%
%ADD48C,0.01000*%
D10*
X0016316Y0119123D03*
D11*
X0163167Y0159280D03*
X0170647Y0159280D03*
X0170647Y0169517D03*
X0166907Y0169517D03*
X0163167Y0169517D03*
D12*
X0179486Y0142981D03*
D13*
X0179486Y0148099D03*
D14*
X0179486Y0150237D03*
X0179486Y0141737D03*
D15*
X0165923Y0137036D03*
X0165923Y0150422D03*
D16*
G36*
X0134779Y0156120D02*
X0131826Y0151007D01*
X0126713Y0153960D01*
X0129666Y0159073D01*
X0134779Y0156120D01*
G37*
G36*
X0127889Y0144187D02*
X0124936Y0139074D01*
X0119823Y0142027D01*
X0122776Y0147140D01*
X0127889Y0144187D01*
G37*
G36*
X0156617Y0184549D02*
X0151504Y0181596D01*
X0148551Y0186709D01*
X0153664Y0189662D01*
X0156617Y0184549D01*
G37*
G36*
X0168550Y0191438D02*
X0163437Y0188485D01*
X0160484Y0193598D01*
X0165597Y0196551D01*
X0168550Y0191438D01*
G37*
G36*
X0295254Y0196551D02*
X0300367Y0193598D01*
X0297414Y0188485D01*
X0292301Y0191438D01*
X0295254Y0196551D01*
G37*
G36*
X0307187Y0189662D02*
X0312300Y0186709D01*
X0309347Y0181596D01*
X0304234Y0184549D01*
X0307187Y0189662D01*
G37*
G36*
X0328951Y0164073D02*
X0331904Y0158960D01*
X0326791Y0156007D01*
X0323838Y0161120D01*
X0328951Y0164073D01*
G37*
G36*
X0335841Y0152140D02*
X0338794Y0147027D01*
X0333681Y0144074D01*
X0330728Y0149187D01*
X0335841Y0152140D01*
G37*
G36*
X0338794Y0087370D02*
X0335841Y0082257D01*
X0330728Y0085210D01*
X0333681Y0090323D01*
X0338794Y0087370D01*
G37*
G36*
X0331904Y0075437D02*
X0328951Y0070324D01*
X0323838Y0073277D01*
X0326791Y0078390D01*
X0331904Y0075437D01*
G37*
G36*
X0312300Y0047688D02*
X0307187Y0044735D01*
X0304234Y0049848D01*
X0309347Y0052801D01*
X0312300Y0047688D01*
G37*
G36*
X0300367Y0040799D02*
X0295254Y0037846D01*
X0292301Y0042959D01*
X0297414Y0045912D01*
X0300367Y0040799D01*
G37*
G36*
X0162187Y0045912D02*
X0167300Y0042959D01*
X0164347Y0037846D01*
X0159234Y0040799D01*
X0162187Y0045912D01*
G37*
G36*
X0150254Y0052801D02*
X0155367Y0049848D01*
X0152414Y0044735D01*
X0147301Y0047688D01*
X0150254Y0052801D01*
G37*
G36*
X0133076Y0078390D02*
X0136029Y0073277D01*
X0130916Y0070324D01*
X0127963Y0075437D01*
X0133076Y0078390D01*
G37*
G36*
X0126186Y0090323D02*
X0129139Y0085210D01*
X0124026Y0082257D01*
X0121073Y0087370D01*
X0126186Y0090323D01*
G37*
D17*
X0194161Y0029074D03*
X0207940Y0029074D03*
X0255411Y0029074D03*
X0269190Y0029074D03*
X0266690Y0205324D03*
X0252911Y0205324D03*
X0206690Y0205324D03*
X0192911Y0205324D03*
D18*
X0330490Y0117154D03*
X0337970Y0117154D03*
D19*
X0229801Y0034595D03*
X0229801Y0027115D03*
X0146553Y0157617D03*
X0146553Y0165097D03*
X0229801Y0199802D03*
X0229801Y0207282D03*
D20*
X0078324Y0171288D02*
X0058640Y0171288D01*
X0059726Y0068749D02*
X0078222Y0062017D01*
D21*
X0121140Y0061059D02*
X0111716Y0035163D01*
X0016807Y0069707D02*
X0026231Y0095603D01*
X0017982Y0157509D02*
X0017982Y0185067D01*
X0118982Y0185067D02*
X0118982Y0157509D01*
D22*
X0156572Y0157509D03*
X0156572Y0165383D03*
X0020342Y0149851D03*
X0020342Y0141977D03*
X0127862Y0041898D03*
X0127862Y0034024D03*
D23*
G36*
X0187440Y0159479D02*
X0191059Y0155860D01*
X0186606Y0151407D01*
X0182987Y0155026D01*
X0187440Y0159479D01*
G37*
G36*
X0181873Y0165047D02*
X0185492Y0161428D01*
X0181039Y0156975D01*
X0177420Y0160594D01*
X0181873Y0165047D01*
G37*
D24*
X0027340Y0124241D03*
X0027340Y0121682D03*
X0027340Y0119123D03*
X0027340Y0116564D03*
X0027340Y0114005D03*
D25*
X0025371Y0109280D03*
X0025371Y0128965D03*
D26*
X0016316Y0130737D03*
X0016316Y0107509D03*
D27*
X0152635Y0067942D03*
X0152635Y0061052D03*
D28*
X0152635Y0062528D03*
X0152635Y0066465D03*
D29*
X0157655Y0065973D03*
X0164348Y0065973D03*
X0153521Y0072863D03*
X0146828Y0072863D03*
D30*
X0147222Y0067646D03*
X0145253Y0067646D03*
X0143285Y0067646D03*
X0141316Y0067646D03*
X0141316Y0056426D03*
X0143285Y0056426D03*
X0145253Y0056426D03*
X0147222Y0056426D03*
D31*
X0147261Y0059437D02*
X0141277Y0059437D01*
X0141277Y0064635D01*
X0147261Y0064635D01*
X0147261Y0059437D01*
X0147261Y0060735D02*
X0141277Y0060735D01*
X0141277Y0062033D02*
X0147261Y0062033D01*
X0147261Y0063331D02*
X0141277Y0063331D01*
X0141277Y0064629D02*
X0147261Y0064629D01*
D32*
X0135411Y0064497D03*
X0135411Y0057607D03*
X0135411Y0048749D03*
X0135411Y0041859D03*
D33*
X0126060Y0124142D03*
X0126060Y0130835D03*
X0147714Y0132804D03*
X0147714Y0126111D03*
X0138856Y0164989D03*
X0132458Y0164989D03*
X0132458Y0171682D03*
X0138856Y0171682D03*
X0127537Y0187135D03*
X0127537Y0193828D03*
D34*
X0131411Y0131389D03*
X0139411Y0127589D03*
X0131411Y0123789D03*
X0126490Y0116625D03*
X0126490Y0109025D03*
X0134490Y0112825D03*
D35*
X0046927Y0115678D03*
X0039840Y0115678D03*
D36*
X0104702Y0106918D03*
X0114938Y0106918D03*
X0114938Y0130934D03*
X0104702Y0130934D03*
D37*
X0110214Y0106918D03*
D38*
X0122320Y0200816D03*
X0122320Y0209674D03*
X0122320Y0218532D03*
X0155391Y0218532D03*
X0155391Y0200816D03*
D39*
X0138856Y0171682D02*
X0132458Y0171682D01*
X0165923Y0154064D02*
X0165923Y0150422D01*
X0174781Y0148847D02*
X0174781Y0143237D01*
X0175037Y0142981D01*
X0179486Y0142981D01*
X0174781Y0143237D02*
X0170352Y0138316D01*
X0168580Y0138513D01*
X0165923Y0137036D01*
X0174781Y0148847D02*
X0174781Y0167843D01*
X0173108Y0169517D01*
X0170647Y0169517D01*
X0178718Y0166859D02*
X0178718Y0164398D01*
X0178718Y0164064D01*
X0181179Y0161603D01*
X0181456Y0161011D02*
X0178718Y0158335D01*
X0178718Y0157017D01*
X0178718Y0154556D01*
X0134490Y0112825D02*
X0134490Y0111678D01*
X0138610Y0107558D01*
X0129505Y0098454D01*
X0110805Y0098454D01*
X0104702Y0104556D01*
X0104702Y0106918D01*
X0128029Y0068926D02*
X0129505Y0067450D01*
X0129505Y0062036D01*
X0133934Y0057607D01*
X0135411Y0057607D01*
D40*
X0068974Y0061544D03*
X0068974Y0065481D03*
X0072911Y0065481D03*
X0068974Y0069418D03*
X0065037Y0065481D03*
X0018285Y0105343D03*
X0014348Y0105343D03*
X0014348Y0109280D03*
X0018285Y0109280D03*
X0024190Y0109280D03*
X0028127Y0109280D03*
X0028127Y0128965D03*
X0024190Y0128965D03*
X0018285Y0128965D03*
X0014348Y0128965D03*
X0014348Y0132902D03*
X0018285Y0132902D03*
X0068482Y0167351D03*
X0068482Y0171288D03*
X0072419Y0171288D03*
X0068482Y0175225D03*
X0064545Y0171288D03*
X0235805Y0037430D03*
X0235805Y0034477D03*
X0303718Y0124044D03*
X0307163Y0124044D03*
X0310608Y0124044D03*
X0314053Y0124044D03*
X0317497Y0124044D03*
X0313068Y0128965D03*
X0306179Y0128965D03*
X0302734Y0128965D03*
X0299289Y0128965D03*
X0288954Y0128965D03*
X0285509Y0128965D03*
X0282064Y0128965D03*
X0278620Y0128965D03*
D41*
X0276174Y0131476D02*
X0340135Y0131476D01*
X0340135Y0130278D02*
X0272878Y0130278D01*
X0269801Y0129159D02*
X0334230Y0152587D01*
X0340135Y0144713D01*
X0340135Y0123060D01*
X0324387Y0123060D01*
X0324387Y0121354D01*
X0271402Y0121354D01*
X0270237Y0127963D01*
X0269801Y0129159D01*
X0269830Y0129079D02*
X0340135Y0129079D01*
X0340135Y0127881D02*
X0270251Y0127881D01*
X0270237Y0127963D02*
X0270237Y0127963D01*
X0270462Y0126682D02*
X0340135Y0126682D01*
X0340135Y0125484D02*
X0270674Y0125484D01*
X0270885Y0124285D02*
X0340135Y0124285D01*
X0340135Y0123087D02*
X0271096Y0123087D01*
X0271308Y0121888D02*
X0324387Y0121888D01*
X0325633Y0112954D02*
X0325726Y0112729D01*
X0326458Y0111997D01*
X0327413Y0111602D01*
X0333566Y0111602D01*
X0334521Y0111997D01*
X0335253Y0112729D01*
X0335649Y0113684D01*
X0335649Y0119123D01*
X0340135Y0119123D01*
X0340135Y0087627D01*
X0335214Y0079753D01*
X0269426Y0104119D01*
X0270237Y0106346D01*
X0271402Y0112954D01*
X0325633Y0112954D01*
X0326155Y0112300D02*
X0271286Y0112300D01*
X0271075Y0111102D02*
X0340135Y0111102D01*
X0340135Y0112300D02*
X0334824Y0112300D01*
X0335572Y0113499D02*
X0340135Y0113499D01*
X0340135Y0114697D02*
X0335649Y0114697D01*
X0335649Y0115896D02*
X0340135Y0115896D01*
X0340135Y0117094D02*
X0335649Y0117094D01*
X0335649Y0118293D02*
X0340135Y0118293D01*
X0340135Y0109903D02*
X0270864Y0109903D01*
X0270652Y0108705D02*
X0340135Y0108705D01*
X0340135Y0107506D02*
X0270441Y0107506D01*
X0270237Y0106346D02*
X0270237Y0106346D01*
X0270223Y0106307D02*
X0340135Y0106307D01*
X0340135Y0105109D02*
X0269786Y0105109D01*
X0269988Y0103910D02*
X0340135Y0103910D01*
X0340135Y0102712D02*
X0273224Y0102712D01*
X0276460Y0101513D02*
X0340135Y0101513D01*
X0340135Y0100315D02*
X0279696Y0100315D01*
X0282932Y0099116D02*
X0340135Y0099116D01*
X0340135Y0097918D02*
X0286168Y0097918D01*
X0289404Y0096719D02*
X0340135Y0096719D01*
X0340135Y0095521D02*
X0292640Y0095521D01*
X0295876Y0094322D02*
X0340135Y0094322D01*
X0340135Y0093124D02*
X0299112Y0093124D01*
X0302348Y0091925D02*
X0340135Y0091925D01*
X0340135Y0090727D02*
X0305584Y0090727D01*
X0308820Y0089528D02*
X0340135Y0089528D01*
X0340135Y0088330D02*
X0312056Y0088330D01*
X0315292Y0087131D02*
X0339826Y0087131D01*
X0339077Y0085933D02*
X0318528Y0085933D01*
X0321764Y0084734D02*
X0338327Y0084734D01*
X0337578Y0083536D02*
X0325000Y0083536D01*
X0328236Y0082337D02*
X0336829Y0082337D01*
X0336080Y0081139D02*
X0331472Y0081139D01*
X0334708Y0079940D02*
X0335331Y0079940D01*
X0331966Y0077543D02*
X0272067Y0077543D01*
X0273266Y0076345D02*
X0334230Y0076345D01*
X0334230Y0076673D02*
X0334230Y0050225D01*
X0312576Y0028572D01*
X0305934Y0028572D01*
X0305934Y0042988D01*
X0305447Y0044164D01*
X0304546Y0045064D01*
X0260595Y0089016D01*
X0264107Y0093201D01*
X0264107Y0093201D01*
X0267747Y0099506D01*
X0268331Y0101112D01*
X0333796Y0076866D01*
X0334058Y0076702D01*
X0334230Y0076673D01*
X0334230Y0075146D02*
X0274464Y0075146D01*
X0275663Y0073948D02*
X0334230Y0073948D01*
X0334230Y0072749D02*
X0276861Y0072749D01*
X0278060Y0071551D02*
X0334230Y0071551D01*
X0334230Y0070352D02*
X0279258Y0070352D01*
X0280457Y0069154D02*
X0334230Y0069154D01*
X0334230Y0067955D02*
X0281655Y0067955D01*
X0282854Y0066757D02*
X0334230Y0066757D01*
X0334230Y0065558D02*
X0284052Y0065558D01*
X0285251Y0064360D02*
X0334230Y0064360D01*
X0334230Y0063161D02*
X0286449Y0063161D01*
X0287648Y0061963D02*
X0334230Y0061963D01*
X0334230Y0060764D02*
X0288846Y0060764D01*
X0290045Y0059566D02*
X0334230Y0059566D01*
X0334230Y0058367D02*
X0291243Y0058367D01*
X0292442Y0057169D02*
X0334230Y0057169D01*
X0334230Y0055970D02*
X0293640Y0055970D01*
X0294839Y0054771D02*
X0334230Y0054771D01*
X0334230Y0053573D02*
X0296037Y0053573D01*
X0297236Y0052374D02*
X0334230Y0052374D01*
X0334230Y0051176D02*
X0298434Y0051176D01*
X0299633Y0049977D02*
X0333982Y0049977D01*
X0332784Y0048779D02*
X0300831Y0048779D01*
X0302030Y0047580D02*
X0331585Y0047580D01*
X0330387Y0046382D02*
X0303228Y0046382D01*
X0304427Y0045183D02*
X0329188Y0045183D01*
X0327989Y0043985D02*
X0305521Y0043985D01*
X0305934Y0042786D02*
X0326791Y0042786D01*
X0325592Y0041588D02*
X0305934Y0041588D01*
X0305934Y0040389D02*
X0324394Y0040389D01*
X0323195Y0039191D02*
X0305934Y0039191D01*
X0305934Y0037992D02*
X0321997Y0037992D01*
X0320798Y0036794D02*
X0305934Y0036794D01*
X0305934Y0035595D02*
X0319600Y0035595D01*
X0318401Y0034397D02*
X0305934Y0034397D01*
X0305934Y0033198D02*
X0317203Y0033198D01*
X0316004Y0032000D02*
X0305934Y0032000D01*
X0305934Y0030801D02*
X0314806Y0030801D01*
X0313607Y0029603D02*
X0305934Y0029603D01*
X0302734Y0029603D02*
X0264936Y0029603D01*
X0265332Y0028572D02*
X0246031Y0078754D01*
X0247548Y0079306D01*
X0253852Y0082946D01*
X0258358Y0086727D01*
X0302734Y0042351D01*
X0302734Y0028572D01*
X0265332Y0028572D01*
X0264475Y0030801D02*
X0302734Y0030801D01*
X0302734Y0032000D02*
X0264014Y0032000D01*
X0263553Y0033198D02*
X0302734Y0033198D01*
X0302734Y0034397D02*
X0263092Y0034397D01*
X0262631Y0035595D02*
X0302734Y0035595D01*
X0302734Y0036794D02*
X0262170Y0036794D01*
X0261709Y0037992D02*
X0302734Y0037992D01*
X0302734Y0039191D02*
X0261248Y0039191D01*
X0260787Y0040389D02*
X0302734Y0040389D01*
X0302734Y0041588D02*
X0260326Y0041588D01*
X0259865Y0042786D02*
X0302298Y0042786D01*
X0301100Y0043985D02*
X0259404Y0043985D01*
X0258943Y0045183D02*
X0299901Y0045183D01*
X0298703Y0046382D02*
X0258482Y0046382D01*
X0258021Y0047580D02*
X0297504Y0047580D01*
X0296306Y0048779D02*
X0257560Y0048779D01*
X0257099Y0049977D02*
X0295107Y0049977D01*
X0293909Y0051176D02*
X0256638Y0051176D01*
X0256177Y0052374D02*
X0292710Y0052374D01*
X0291512Y0053573D02*
X0255716Y0053573D01*
X0255255Y0054771D02*
X0290313Y0054771D01*
X0289115Y0055970D02*
X0254794Y0055970D01*
X0254333Y0057169D02*
X0287916Y0057169D01*
X0286718Y0058367D02*
X0253872Y0058367D01*
X0253411Y0059566D02*
X0285519Y0059566D01*
X0284321Y0060764D02*
X0252950Y0060764D01*
X0252489Y0061963D02*
X0283122Y0061963D01*
X0281924Y0063161D02*
X0252028Y0063161D01*
X0251568Y0064360D02*
X0280725Y0064360D01*
X0279527Y0065558D02*
X0251107Y0065558D01*
X0250646Y0066757D02*
X0278328Y0066757D01*
X0277130Y0067955D02*
X0250185Y0067955D01*
X0249724Y0069154D02*
X0275931Y0069154D01*
X0274733Y0070352D02*
X0249263Y0070352D01*
X0248802Y0071551D02*
X0273534Y0071551D01*
X0272336Y0072749D02*
X0248341Y0072749D01*
X0247880Y0073948D02*
X0271137Y0073948D01*
X0269939Y0075146D02*
X0247419Y0075146D01*
X0246958Y0076345D02*
X0268740Y0076345D01*
X0267542Y0077543D02*
X0246497Y0077543D01*
X0246036Y0078742D02*
X0266343Y0078742D01*
X0265145Y0079940D02*
X0248646Y0079940D01*
X0247548Y0079306D02*
X0247548Y0079306D01*
X0250721Y0081139D02*
X0263946Y0081139D01*
X0262748Y0082337D02*
X0252797Y0082337D01*
X0253852Y0082946D02*
X0253852Y0082946D01*
X0254555Y0083536D02*
X0261549Y0083536D01*
X0260351Y0084734D02*
X0255983Y0084734D01*
X0257411Y0085933D02*
X0259152Y0085933D01*
X0261281Y0088330D02*
X0302842Y0088330D01*
X0299606Y0089528D02*
X0261025Y0089528D01*
X0262031Y0090727D02*
X0296370Y0090727D01*
X0293134Y0091925D02*
X0263036Y0091925D01*
X0264042Y0093124D02*
X0289898Y0093124D01*
X0286662Y0094322D02*
X0264754Y0094322D01*
X0265446Y0095521D02*
X0283426Y0095521D01*
X0280190Y0096719D02*
X0266138Y0096719D01*
X0266830Y0097918D02*
X0276955Y0097918D01*
X0273719Y0099116D02*
X0267522Y0099116D01*
X0267747Y0099506D02*
X0267747Y0099506D01*
X0268041Y0100315D02*
X0270483Y0100315D01*
X0262479Y0087131D02*
X0306078Y0087131D01*
X0309314Y0085933D02*
X0263678Y0085933D01*
X0264876Y0084734D02*
X0312550Y0084734D01*
X0315786Y0083536D02*
X0266075Y0083536D01*
X0267273Y0082337D02*
X0319022Y0082337D01*
X0322258Y0081139D02*
X0268472Y0081139D01*
X0269670Y0079940D02*
X0325494Y0079940D01*
X0328730Y0078742D02*
X0270869Y0078742D01*
X0246756Y0067955D02*
X0229162Y0067955D01*
X0229162Y0066757D02*
X0247217Y0066757D01*
X0247678Y0065558D02*
X0229162Y0065558D01*
X0229162Y0064360D02*
X0248139Y0064360D01*
X0248600Y0063161D02*
X0229162Y0063161D01*
X0229162Y0061963D02*
X0249061Y0061963D01*
X0249522Y0060764D02*
X0229162Y0060764D01*
X0229162Y0059566D02*
X0249983Y0059566D01*
X0250444Y0058367D02*
X0229162Y0058367D01*
X0229162Y0057169D02*
X0250905Y0057169D01*
X0251366Y0055970D02*
X0229162Y0055970D01*
X0229162Y0054771D02*
X0251827Y0054771D01*
X0252288Y0053573D02*
X0229162Y0053573D01*
X0229162Y0052374D02*
X0252749Y0052374D01*
X0253210Y0051176D02*
X0229162Y0051176D01*
X0229162Y0049977D02*
X0253671Y0049977D01*
X0253958Y0049229D02*
X0261395Y0028572D01*
X0237036Y0028572D01*
X0237036Y0031177D01*
X0236549Y0032353D01*
X0235649Y0033253D01*
X0234473Y0033740D01*
X0229162Y0033740D01*
X0229162Y0075422D01*
X0229195Y0075553D01*
X0229845Y0075553D01*
X0230627Y0075533D01*
X0230679Y0075553D01*
X0233539Y0075553D01*
X0240707Y0076817D01*
X0240707Y0076817D01*
X0243024Y0077660D01*
X0253958Y0049229D01*
X0254120Y0048779D02*
X0229162Y0048779D01*
X0229162Y0047580D02*
X0254552Y0047580D01*
X0254983Y0046382D02*
X0229162Y0046382D01*
X0229162Y0045183D02*
X0255415Y0045183D01*
X0255846Y0043985D02*
X0229162Y0043985D01*
X0229162Y0042786D02*
X0256278Y0042786D01*
X0256709Y0041588D02*
X0229162Y0041588D01*
X0229162Y0040389D02*
X0257141Y0040389D01*
X0257572Y0039191D02*
X0229162Y0039191D01*
X0229162Y0037992D02*
X0258004Y0037992D01*
X0258435Y0036794D02*
X0229162Y0036794D01*
X0229162Y0035595D02*
X0258867Y0035595D01*
X0259298Y0034397D02*
X0229162Y0034397D01*
X0224248Y0034397D02*
X0204204Y0034397D01*
X0204588Y0035595D02*
X0224248Y0035595D01*
X0224248Y0036794D02*
X0204971Y0036794D01*
X0205355Y0037992D02*
X0224381Y0037992D01*
X0224248Y0037671D02*
X0224248Y0031519D01*
X0224644Y0030563D01*
X0225375Y0029832D01*
X0226331Y0029436D01*
X0233271Y0029436D01*
X0233836Y0029670D01*
X0233836Y0024635D01*
X0225962Y0024635D01*
X0222025Y0028572D01*
X0202340Y0028572D01*
X0217978Y0077440D01*
X0218761Y0077132D01*
X0225962Y0075671D01*
X0225962Y0039602D01*
X0225375Y0039358D01*
X0224644Y0038627D01*
X0224248Y0037671D01*
X0225207Y0039191D02*
X0205738Y0039191D01*
X0206122Y0040389D02*
X0225962Y0040389D01*
X0225962Y0041588D02*
X0206505Y0041588D01*
X0206889Y0042786D02*
X0225962Y0042786D01*
X0225962Y0043985D02*
X0207272Y0043985D01*
X0207656Y0045183D02*
X0225962Y0045183D01*
X0225962Y0046382D02*
X0208039Y0046382D01*
X0208423Y0047580D02*
X0225962Y0047580D01*
X0225962Y0048779D02*
X0208806Y0048779D01*
X0209190Y0049977D02*
X0225962Y0049977D01*
X0225962Y0051176D02*
X0209573Y0051176D01*
X0209957Y0052374D02*
X0225962Y0052374D01*
X0225962Y0053573D02*
X0210340Y0053573D01*
X0210724Y0054771D02*
X0225962Y0054771D01*
X0225962Y0055970D02*
X0211107Y0055970D01*
X0211491Y0057169D02*
X0225962Y0057169D01*
X0225962Y0058367D02*
X0211875Y0058367D01*
X0212258Y0059566D02*
X0225962Y0059566D01*
X0225962Y0060764D02*
X0212642Y0060764D01*
X0213025Y0061963D02*
X0225962Y0061963D01*
X0225962Y0063161D02*
X0213409Y0063161D01*
X0213792Y0064360D02*
X0225962Y0064360D01*
X0225962Y0065558D02*
X0214176Y0065558D01*
X0214559Y0066757D02*
X0225962Y0066757D01*
X0225962Y0067955D02*
X0214943Y0067955D01*
X0215326Y0069154D02*
X0225962Y0069154D01*
X0225962Y0070352D02*
X0215710Y0070352D01*
X0216093Y0071551D02*
X0225962Y0071551D01*
X0225962Y0072749D02*
X0216477Y0072749D01*
X0216860Y0073948D02*
X0225962Y0073948D01*
X0225962Y0075146D02*
X0217244Y0075146D01*
X0217627Y0076345D02*
X0222640Y0076345D01*
X0229162Y0075146D02*
X0243990Y0075146D01*
X0244451Y0073948D02*
X0229162Y0073948D01*
X0229162Y0072749D02*
X0244912Y0072749D01*
X0245373Y0071551D02*
X0229162Y0071551D01*
X0229162Y0070352D02*
X0245834Y0070352D01*
X0246295Y0069154D02*
X0229162Y0069154D01*
X0238030Y0076345D02*
X0243529Y0076345D01*
X0243068Y0077543D02*
X0242703Y0077543D01*
X0214993Y0078613D02*
X0206042Y0050640D01*
X0198403Y0028572D01*
X0160464Y0028572D01*
X0160464Y0044880D01*
X0201967Y0086382D01*
X0202164Y0086496D01*
X0202244Y0086599D01*
X0205467Y0083751D01*
X0211824Y0079860D01*
X0211824Y0079860D01*
X0214993Y0078613D01*
X0214667Y0078742D02*
X0194326Y0078742D01*
X0195525Y0079940D02*
X0211693Y0079940D01*
X0209735Y0081139D02*
X0196723Y0081139D01*
X0197922Y0082337D02*
X0207776Y0082337D01*
X0205818Y0083536D02*
X0199120Y0083536D01*
X0200319Y0084734D02*
X0204354Y0084734D01*
X0205467Y0083751D02*
X0205467Y0083751D01*
X0202998Y0085933D02*
X0201517Y0085933D01*
X0193128Y0077543D02*
X0214651Y0077543D01*
X0214268Y0076345D02*
X0191929Y0076345D01*
X0190731Y0075146D02*
X0213884Y0075146D01*
X0213500Y0073948D02*
X0189532Y0073948D01*
X0188334Y0072749D02*
X0213117Y0072749D01*
X0212733Y0071551D02*
X0187135Y0071551D01*
X0185937Y0070352D02*
X0212350Y0070352D01*
X0211966Y0069154D02*
X0184738Y0069154D01*
X0183540Y0067955D02*
X0211583Y0067955D01*
X0211199Y0066757D02*
X0182341Y0066757D01*
X0181143Y0065558D02*
X0210816Y0065558D01*
X0210432Y0064360D02*
X0179944Y0064360D01*
X0178746Y0063161D02*
X0210049Y0063161D01*
X0209665Y0061963D02*
X0177547Y0061963D01*
X0176349Y0060764D02*
X0209282Y0060764D01*
X0208898Y0059566D02*
X0175150Y0059566D01*
X0173952Y0058367D02*
X0208515Y0058367D01*
X0208131Y0057169D02*
X0172753Y0057169D01*
X0171555Y0055970D02*
X0207748Y0055970D01*
X0207364Y0054771D02*
X0170356Y0054771D01*
X0169158Y0053573D02*
X0206981Y0053573D01*
X0206597Y0052374D02*
X0167959Y0052374D01*
X0166761Y0051176D02*
X0206214Y0051176D01*
X0205813Y0049977D02*
X0165562Y0049977D01*
X0164363Y0048779D02*
X0205398Y0048779D01*
X0204983Y0047580D02*
X0163165Y0047580D01*
X0161966Y0046382D02*
X0204568Y0046382D01*
X0204153Y0045183D02*
X0160768Y0045183D01*
X0160464Y0043985D02*
X0203738Y0043985D01*
X0203323Y0042786D02*
X0160464Y0042786D01*
X0160464Y0041588D02*
X0202909Y0041588D01*
X0202494Y0040389D02*
X0160464Y0040389D01*
X0160464Y0039191D02*
X0202079Y0039191D01*
X0201664Y0037992D02*
X0160464Y0037992D01*
X0160464Y0036794D02*
X0201249Y0036794D01*
X0200834Y0035595D02*
X0160464Y0035595D01*
X0160464Y0034397D02*
X0200419Y0034397D01*
X0200005Y0033198D02*
X0160464Y0033198D01*
X0160464Y0032000D02*
X0199590Y0032000D01*
X0199175Y0030801D02*
X0160464Y0030801D01*
X0160464Y0029603D02*
X0198760Y0029603D01*
X0202670Y0029603D02*
X0225929Y0029603D01*
X0224545Y0030801D02*
X0203053Y0030801D01*
X0203437Y0032000D02*
X0224248Y0032000D01*
X0224248Y0033198D02*
X0203821Y0033198D01*
X0222192Y0028404D02*
X0233836Y0028404D01*
X0233836Y0027206D02*
X0223391Y0027206D01*
X0224589Y0026007D02*
X0233836Y0026007D01*
X0233836Y0024809D02*
X0225788Y0024809D01*
X0233673Y0029603D02*
X0233836Y0029603D01*
X0237036Y0029603D02*
X0261024Y0029603D01*
X0260592Y0030801D02*
X0237036Y0030801D01*
X0236695Y0032000D02*
X0260161Y0032000D01*
X0259730Y0033198D02*
X0235703Y0033198D01*
X0152635Y0066465D02*
X0151651Y0067942D01*
X0147517Y0067942D01*
X0147222Y0067646D01*
X0145253Y0067646D02*
X0145253Y0064005D01*
X0145746Y0063513D01*
X0141316Y0067646D02*
X0141316Y0069910D01*
X0144269Y0072863D01*
X0146828Y0072863D01*
X0129297Y0068434D02*
X0128029Y0068926D01*
X0127537Y0068434D01*
X0127537Y0068926D01*
X0141316Y0056426D02*
X0141316Y0054162D01*
X0142301Y0054162D01*
X0143285Y0055146D01*
X0143285Y0056426D01*
X0145253Y0056426D02*
X0145253Y0053178D01*
X0146238Y0053178D01*
X0147222Y0053178D01*
X0147222Y0056426D01*
X0141316Y0054162D02*
X0140332Y0054162D01*
X0130982Y0105835D02*
X0130982Y0106820D01*
X0130490Y0107312D01*
X0130490Y0114694D01*
X0131966Y0116170D01*
X0135903Y0116170D01*
X0143285Y0123552D01*
X0143285Y0132804D01*
X0147714Y0132804D01*
X0143285Y0132804D02*
X0143285Y0140776D01*
X0143285Y0132804D01*
X0139411Y0127589D02*
X0135411Y0127652D01*
X0135411Y0133394D01*
X0133442Y0135363D01*
X0124092Y0135363D01*
X0117202Y0139792D01*
X0117202Y0142745D01*
X0122616Y0151603D01*
X0131966Y0146190D01*
X0137379Y0157017D01*
X0132458Y0160461D01*
X0132458Y0164989D01*
X0127693Y0165035D02*
X0125845Y0165035D01*
X0125831Y0166233D02*
X0127693Y0166233D01*
X0127693Y0167432D02*
X0125816Y0167432D01*
X0125802Y0168630D02*
X0127927Y0168630D01*
X0128049Y0168335D02*
X0127693Y0167475D01*
X0127693Y0162503D01*
X0128089Y0161548D01*
X0128820Y0160816D01*
X0129222Y0160650D01*
X0129196Y0160532D01*
X0129258Y0160181D01*
X0129258Y0159825D01*
X0129368Y0159560D01*
X0129417Y0159278D01*
X0129609Y0158978D01*
X0129745Y0158649D01*
X0129948Y0158446D01*
X0130102Y0158205D01*
X0130393Y0158001D01*
X0130645Y0157749D01*
X0130910Y0157639D01*
X0130919Y0157633D01*
X0128019Y0152173D01*
X0125986Y0153349D01*
X0125634Y0182566D01*
X0130219Y0182566D01*
X0131175Y0182962D01*
X0131906Y0183693D01*
X0132302Y0184649D01*
X0132302Y0189620D01*
X0131946Y0190481D01*
X0132302Y0191342D01*
X0132302Y0194754D01*
X0144006Y0206458D01*
X0144006Y0198012D01*
X0144646Y0196468D01*
X0145827Y0195287D01*
X0147371Y0194647D01*
X0147741Y0194647D01*
X0163473Y0177302D01*
X0162634Y0176954D01*
X0161354Y0175674D01*
X0160454Y0174774D01*
X0159967Y0173598D01*
X0159967Y0173504D01*
X0143621Y0173504D01*
X0143621Y0174168D01*
X0143225Y0175123D01*
X0142494Y0175855D01*
X0141538Y0176250D01*
X0136173Y0176250D01*
X0135657Y0176036D01*
X0135141Y0176250D01*
X0129776Y0176250D01*
X0128820Y0175855D01*
X0128089Y0175123D01*
X0127693Y0174168D01*
X0127693Y0169196D01*
X0128049Y0168335D01*
X0127693Y0169829D02*
X0125788Y0169829D01*
X0125773Y0171027D02*
X0127693Y0171027D01*
X0127693Y0172226D02*
X0125759Y0172226D01*
X0125744Y0173424D02*
X0127693Y0173424D01*
X0127881Y0174623D02*
X0125730Y0174623D01*
X0125715Y0175821D02*
X0128787Y0175821D01*
X0125701Y0177020D02*
X0162793Y0177020D01*
X0162642Y0178218D02*
X0125686Y0178218D01*
X0125672Y0179417D02*
X0161555Y0179417D01*
X0160468Y0180615D02*
X0125658Y0180615D01*
X0125643Y0181814D02*
X0159381Y0181814D01*
X0158294Y0183012D02*
X0131225Y0183012D01*
X0132121Y0184211D02*
X0157207Y0184211D01*
X0156120Y0185409D02*
X0132302Y0185409D01*
X0132302Y0186608D02*
X0155033Y0186608D01*
X0153946Y0187806D02*
X0132302Y0187806D01*
X0132302Y0189005D02*
X0152859Y0189005D01*
X0151772Y0190203D02*
X0132061Y0190203D01*
X0132302Y0191402D02*
X0150685Y0191402D01*
X0149598Y0192600D02*
X0132302Y0192600D01*
X0132302Y0193799D02*
X0148511Y0193799D01*
X0146525Y0194997D02*
X0132545Y0194997D01*
X0133744Y0196196D02*
X0144918Y0196196D01*
X0144262Y0197394D02*
X0134942Y0197394D01*
X0136141Y0198593D02*
X0144006Y0198593D01*
X0144006Y0199791D02*
X0137339Y0199791D01*
X0138538Y0200990D02*
X0144006Y0200990D01*
X0144006Y0202188D02*
X0139736Y0202188D01*
X0140935Y0203387D02*
X0144006Y0203387D01*
X0144006Y0204585D02*
X0142133Y0204585D01*
X0143332Y0205784D02*
X0144006Y0205784D01*
X0148206Y0198847D02*
X0148698Y0198355D01*
X0167891Y0177194D01*
X0167891Y0175225D01*
X0166907Y0174241D01*
X0164446Y0174241D01*
X0163167Y0172961D01*
X0163167Y0169517D01*
X0163167Y0169615D01*
X0162478Y0170304D01*
X0140234Y0170304D01*
X0138856Y0171682D01*
X0143433Y0174623D02*
X0160391Y0174623D01*
X0161501Y0175821D02*
X0142527Y0175821D01*
X0127693Y0163836D02*
X0125860Y0163836D01*
X0125874Y0162638D02*
X0127693Y0162638D01*
X0128197Y0161439D02*
X0125889Y0161439D01*
X0125903Y0160240D02*
X0129248Y0160240D01*
X0129568Y0159042D02*
X0125917Y0159042D01*
X0125932Y0157843D02*
X0130551Y0157843D01*
X0130395Y0156645D02*
X0125946Y0156645D01*
X0125961Y0155446D02*
X0129758Y0155446D01*
X0129121Y0154248D02*
X0125975Y0154248D01*
X0126504Y0153049D02*
X0128484Y0153049D01*
X0143285Y0148158D02*
X0143285Y0140776D01*
X0143285Y0148158D02*
X0145253Y0152095D01*
X0150175Y0152095D01*
X0175938Y0172226D02*
X0208471Y0172226D01*
X0208086Y0173424D02*
X0174792Y0173424D01*
X0173646Y0174623D02*
X0207701Y0174623D01*
X0207316Y0175821D02*
X0172499Y0175821D01*
X0171353Y0177020D02*
X0206931Y0177020D01*
X0206545Y0178218D02*
X0170930Y0178218D01*
X0170877Y0178346D02*
X0170689Y0178872D01*
X0170635Y0178932D01*
X0170604Y0179006D01*
X0170209Y0179401D01*
X0157064Y0193894D01*
X0157064Y0195460D01*
X0159058Y0195460D01*
X0160014Y0195856D01*
X0160745Y0196587D01*
X0161141Y0197543D01*
X0161141Y0204089D01*
X0160745Y0205044D01*
X0160014Y0205776D01*
X0159058Y0206172D01*
X0157064Y0206172D01*
X0157064Y0209674D01*
X0196434Y0209674D01*
X0213740Y0155835D01*
X0210649Y0154652D01*
X0203876Y0150387D01*
X0201203Y0147853D01*
X0196232Y0152824D01*
X0196175Y0152941D01*
X0195644Y0153412D01*
X0195142Y0153914D01*
X0195022Y0153963D01*
X0193608Y0155218D01*
X0193660Y0155344D01*
X0193660Y0156378D01*
X0193264Y0157334D01*
X0188914Y0161684D01*
X0188053Y0162041D01*
X0187696Y0162901D01*
X0183346Y0167252D01*
X0182708Y0167516D01*
X0182708Y0168512D01*
X0180371Y0170850D01*
X0177255Y0170850D01*
X0171099Y0177284D01*
X0171118Y0177674D01*
X0171091Y0177749D01*
X0171091Y0177830D01*
X0170877Y0178346D01*
X0170195Y0179417D02*
X0206160Y0179417D01*
X0205775Y0180615D02*
X0169108Y0180615D01*
X0168021Y0181814D02*
X0205390Y0181814D01*
X0205004Y0183012D02*
X0166934Y0183012D01*
X0165847Y0184211D02*
X0204619Y0184211D01*
X0204234Y0185409D02*
X0164760Y0185409D01*
X0163673Y0186608D02*
X0203849Y0186608D01*
X0203463Y0187806D02*
X0162586Y0187806D01*
X0161499Y0189005D02*
X0203078Y0189005D01*
X0202693Y0190203D02*
X0160412Y0190203D01*
X0159325Y0191402D02*
X0202308Y0191402D01*
X0201922Y0192600D02*
X0158238Y0192600D01*
X0157151Y0193799D02*
X0201537Y0193799D01*
X0201152Y0194997D02*
X0157064Y0194997D01*
X0160354Y0196196D02*
X0200767Y0196196D01*
X0200382Y0197394D02*
X0161079Y0197394D01*
X0161141Y0198593D02*
X0199996Y0198593D01*
X0199611Y0199791D02*
X0161141Y0199791D01*
X0161141Y0200990D02*
X0199226Y0200990D01*
X0198841Y0202188D02*
X0161141Y0202188D01*
X0161141Y0203387D02*
X0198455Y0203387D01*
X0198070Y0204585D02*
X0160935Y0204585D01*
X0159994Y0205784D02*
X0197685Y0205784D01*
X0197300Y0206982D02*
X0157064Y0206982D01*
X0157064Y0208181D02*
X0196914Y0208181D01*
X0196529Y0209379D02*
X0157064Y0209379D01*
X0202340Y0209379D02*
X0223994Y0209379D01*
X0223994Y0209674D02*
X0202340Y0209674D01*
X0202340Y0201800D01*
X0205328Y0192461D01*
X0217095Y0155853D01*
X0217245Y0155591D01*
X0217288Y0155253D01*
X0217392Y0154929D01*
X0217381Y0154796D01*
X0218088Y0152587D01*
X0231371Y0156382D01*
X0231304Y0156494D01*
X0231143Y0156651D01*
X0230979Y0157035D01*
X0230765Y0157392D01*
X0230731Y0157615D01*
X0230643Y0157822D01*
X0230639Y0158239D01*
X0230577Y0158651D01*
X0230632Y0158870D01*
X0230178Y0201553D01*
X0227294Y0201553D01*
X0226697Y0201800D01*
X0223994Y0201800D01*
X0223994Y0209674D01*
X0223994Y0208181D02*
X0202340Y0208181D01*
X0202340Y0206982D02*
X0223994Y0206982D01*
X0223994Y0205784D02*
X0202340Y0205784D01*
X0202340Y0204585D02*
X0223994Y0204585D01*
X0223994Y0203387D02*
X0202340Y0203387D01*
X0202340Y0202188D02*
X0223994Y0202188D01*
X0227931Y0204961D02*
X0227931Y0209674D01*
X0259427Y0209674D01*
X0259427Y0205737D01*
X0241902Y0157057D01*
X0240707Y0157492D01*
X0234099Y0158657D01*
X0234099Y0194986D01*
X0234226Y0195039D01*
X0234958Y0195770D01*
X0235353Y0196726D01*
X0235353Y0202878D01*
X0234958Y0203834D01*
X0234226Y0204565D01*
X0233271Y0204961D01*
X0227931Y0204961D01*
X0227931Y0205784D02*
X0259427Y0205784D01*
X0259427Y0206982D02*
X0227931Y0206982D01*
X0227931Y0208181D02*
X0259427Y0208181D01*
X0259427Y0209379D02*
X0227931Y0209379D01*
X0234177Y0204585D02*
X0259012Y0204585D01*
X0258581Y0203387D02*
X0235143Y0203387D01*
X0235353Y0202188D02*
X0258149Y0202188D01*
X0257718Y0200990D02*
X0235353Y0200990D01*
X0235353Y0199791D02*
X0257286Y0199791D01*
X0256855Y0198593D02*
X0235353Y0198593D01*
X0235353Y0197394D02*
X0256423Y0197394D01*
X0255992Y0196196D02*
X0235134Y0196196D01*
X0234126Y0194997D02*
X0255560Y0194997D01*
X0255129Y0193799D02*
X0234099Y0193799D01*
X0234099Y0192600D02*
X0254697Y0192600D01*
X0254266Y0191402D02*
X0234099Y0191402D01*
X0234099Y0190203D02*
X0253834Y0190203D01*
X0253403Y0189005D02*
X0234099Y0189005D01*
X0234099Y0187806D02*
X0252972Y0187806D01*
X0252540Y0186608D02*
X0234099Y0186608D01*
X0234099Y0185409D02*
X0252109Y0185409D01*
X0251677Y0184211D02*
X0234099Y0184211D01*
X0234099Y0183012D02*
X0251246Y0183012D01*
X0250814Y0181814D02*
X0234099Y0181814D01*
X0234099Y0180615D02*
X0250383Y0180615D01*
X0249951Y0179417D02*
X0234099Y0179417D01*
X0234099Y0178218D02*
X0249520Y0178218D01*
X0249088Y0177020D02*
X0234099Y0177020D01*
X0234099Y0175821D02*
X0248657Y0175821D01*
X0248225Y0174623D02*
X0234099Y0174623D01*
X0234099Y0173424D02*
X0247794Y0173424D01*
X0247363Y0172226D02*
X0234099Y0172226D01*
X0234099Y0171027D02*
X0246931Y0171027D01*
X0246500Y0169829D02*
X0234099Y0169829D01*
X0234099Y0168630D02*
X0246068Y0168630D01*
X0245637Y0167432D02*
X0234099Y0167432D01*
X0234099Y0166233D02*
X0245205Y0166233D01*
X0244774Y0165035D02*
X0234099Y0165035D01*
X0234099Y0163836D02*
X0244342Y0163836D01*
X0243911Y0162638D02*
X0234099Y0162638D01*
X0234099Y0161439D02*
X0243479Y0161439D01*
X0243048Y0160240D02*
X0234099Y0160240D01*
X0234099Y0159042D02*
X0242616Y0159042D01*
X0242185Y0157843D02*
X0238713Y0157843D01*
X0240707Y0157492D02*
X0240707Y0157492D01*
X0245647Y0156524D02*
X0252347Y0176624D01*
X0262412Y0204582D01*
X0262627Y0205100D01*
X0262627Y0205179D01*
X0262653Y0205252D01*
X0262627Y0205812D01*
X0262627Y0209037D01*
X0262627Y0209674D01*
X0300765Y0209674D01*
X0300765Y0191957D01*
X0257458Y0148650D01*
X0255638Y0149864D01*
X0253852Y0151362D01*
X0250404Y0153353D01*
X0245647Y0156524D01*
X0245687Y0156645D02*
X0265453Y0156645D01*
X0266651Y0157843D02*
X0246087Y0157843D01*
X0246486Y0159042D02*
X0267850Y0159042D01*
X0269048Y0160240D02*
X0246886Y0160240D01*
X0247285Y0161439D02*
X0270247Y0161439D01*
X0271445Y0162638D02*
X0247685Y0162638D01*
X0248084Y0163836D02*
X0272644Y0163836D01*
X0273842Y0165035D02*
X0248484Y0165035D01*
X0248883Y0166233D02*
X0275041Y0166233D01*
X0276239Y0167432D02*
X0249283Y0167432D01*
X0249682Y0168630D02*
X0277438Y0168630D01*
X0278636Y0169829D02*
X0250082Y0169829D01*
X0250481Y0171027D02*
X0279835Y0171027D01*
X0281033Y0172226D02*
X0250881Y0172226D01*
X0251280Y0173424D02*
X0282232Y0173424D01*
X0283430Y0174623D02*
X0251680Y0174623D01*
X0252079Y0175821D02*
X0284629Y0175821D01*
X0285827Y0177020D02*
X0252489Y0177020D01*
X0252921Y0178218D02*
X0287026Y0178218D01*
X0288224Y0179417D02*
X0253352Y0179417D01*
X0253784Y0180615D02*
X0289423Y0180615D01*
X0290621Y0181814D02*
X0254215Y0181814D01*
X0254647Y0183012D02*
X0291820Y0183012D01*
X0293018Y0184211D02*
X0255078Y0184211D01*
X0255510Y0185409D02*
X0294217Y0185409D01*
X0295415Y0186608D02*
X0255941Y0186608D01*
X0256373Y0187806D02*
X0296614Y0187806D01*
X0297813Y0189005D02*
X0256804Y0189005D01*
X0257235Y0190203D02*
X0299011Y0190203D01*
X0300210Y0191402D02*
X0257667Y0191402D01*
X0258098Y0192600D02*
X0300765Y0192600D01*
X0300765Y0193799D02*
X0258530Y0193799D01*
X0258961Y0194997D02*
X0300765Y0194997D01*
X0300765Y0196196D02*
X0259393Y0196196D01*
X0259824Y0197394D02*
X0300765Y0197394D01*
X0300765Y0198593D02*
X0260256Y0198593D01*
X0260687Y0199791D02*
X0300765Y0199791D01*
X0300765Y0200990D02*
X0261119Y0200990D01*
X0261550Y0202188D02*
X0300765Y0202188D01*
X0300765Y0203387D02*
X0261982Y0203387D01*
X0262413Y0204585D02*
X0300765Y0204585D01*
X0300765Y0205784D02*
X0262628Y0205784D01*
X0262627Y0206982D02*
X0300765Y0206982D01*
X0300765Y0208181D02*
X0262627Y0208181D01*
X0262627Y0209379D02*
X0300765Y0209379D01*
X0303965Y0209379D02*
X0312871Y0209379D01*
X0312576Y0209674D02*
X0303965Y0209674D01*
X0303965Y0191321D01*
X0303478Y0190145D01*
X0302578Y0189245D01*
X0259945Y0146612D01*
X0259768Y0146346D01*
X0259732Y0146322D01*
X0264107Y0141107D01*
X0264107Y0141107D01*
X0267747Y0134803D01*
X0267747Y0134803D01*
X0268707Y0132166D01*
X0332474Y0155354D01*
X0334230Y0156524D01*
X0334230Y0188020D01*
X0312576Y0209674D01*
X0314069Y0208181D02*
X0303965Y0208181D01*
X0303965Y0206982D02*
X0315268Y0206982D01*
X0316466Y0205784D02*
X0303965Y0205784D01*
X0303965Y0204585D02*
X0317665Y0204585D01*
X0318863Y0203387D02*
X0303965Y0203387D01*
X0303965Y0202188D02*
X0320062Y0202188D01*
X0321260Y0200990D02*
X0303965Y0200990D01*
X0303965Y0199791D02*
X0322459Y0199791D01*
X0323657Y0198593D02*
X0303965Y0198593D01*
X0303965Y0197394D02*
X0324856Y0197394D01*
X0326054Y0196196D02*
X0303965Y0196196D01*
X0303965Y0194997D02*
X0327253Y0194997D01*
X0328451Y0193799D02*
X0303965Y0193799D01*
X0303965Y0192600D02*
X0329650Y0192600D01*
X0330848Y0191402D02*
X0303965Y0191402D01*
X0303502Y0190203D02*
X0332047Y0190203D01*
X0333245Y0189005D02*
X0302338Y0189005D01*
X0301139Y0187806D02*
X0334230Y0187806D01*
X0334230Y0186608D02*
X0299941Y0186608D01*
X0298742Y0185409D02*
X0334230Y0185409D01*
X0334230Y0184211D02*
X0297544Y0184211D01*
X0296345Y0183012D02*
X0334230Y0183012D01*
X0334230Y0181814D02*
X0295147Y0181814D01*
X0293948Y0180615D02*
X0334230Y0180615D01*
X0334230Y0179417D02*
X0292750Y0179417D01*
X0291551Y0178218D02*
X0334230Y0178218D01*
X0334230Y0177020D02*
X0290353Y0177020D01*
X0289154Y0175821D02*
X0334230Y0175821D01*
X0334230Y0174623D02*
X0287956Y0174623D01*
X0286757Y0173424D02*
X0334230Y0173424D01*
X0334230Y0172226D02*
X0285559Y0172226D01*
X0284360Y0171027D02*
X0334230Y0171027D01*
X0334230Y0169829D02*
X0283162Y0169829D01*
X0281963Y0168630D02*
X0334230Y0168630D01*
X0334230Y0167432D02*
X0280765Y0167432D01*
X0279566Y0166233D02*
X0334230Y0166233D01*
X0334230Y0165035D02*
X0278368Y0165035D01*
X0277169Y0163836D02*
X0334230Y0163836D01*
X0334230Y0162638D02*
X0275971Y0162638D01*
X0274772Y0161439D02*
X0334230Y0161439D01*
X0334230Y0160240D02*
X0273574Y0160240D01*
X0272375Y0159042D02*
X0334230Y0159042D01*
X0334230Y0157843D02*
X0271177Y0157843D01*
X0269978Y0156645D02*
X0334230Y0156645D01*
X0332613Y0155446D02*
X0268780Y0155446D01*
X0267581Y0154248D02*
X0329433Y0154248D01*
X0326137Y0153049D02*
X0266383Y0153049D01*
X0265184Y0151851D02*
X0322841Y0151851D01*
X0319545Y0150652D02*
X0263986Y0150652D01*
X0262787Y0149454D02*
X0316249Y0149454D01*
X0312953Y0148255D02*
X0261589Y0148255D01*
X0260390Y0147057D02*
X0309657Y0147057D01*
X0306361Y0145858D02*
X0260120Y0145858D01*
X0261126Y0144660D02*
X0303065Y0144660D01*
X0299769Y0143461D02*
X0262132Y0143461D01*
X0263138Y0142263D02*
X0296474Y0142263D01*
X0293178Y0141064D02*
X0264132Y0141064D01*
X0264824Y0139866D02*
X0289882Y0139866D01*
X0286586Y0138667D02*
X0265516Y0138667D01*
X0266208Y0137469D02*
X0283290Y0137469D01*
X0279994Y0136270D02*
X0266900Y0136270D01*
X0267592Y0135072D02*
X0276698Y0135072D01*
X0273402Y0133873D02*
X0268085Y0133873D01*
X0268522Y0132675D02*
X0270106Y0132675D01*
X0279470Y0132675D02*
X0340135Y0132675D01*
X0340135Y0133873D02*
X0282766Y0133873D01*
X0286062Y0135072D02*
X0340135Y0135072D01*
X0340135Y0136270D02*
X0289358Y0136270D01*
X0292654Y0137469D02*
X0340135Y0137469D01*
X0340135Y0138667D02*
X0295950Y0138667D01*
X0299245Y0139866D02*
X0340135Y0139866D01*
X0340135Y0141064D02*
X0302541Y0141064D01*
X0305837Y0142263D02*
X0340135Y0142263D01*
X0340135Y0143461D02*
X0309133Y0143461D01*
X0312429Y0144660D02*
X0340135Y0144660D01*
X0339277Y0145858D02*
X0315725Y0145858D01*
X0319021Y0147057D02*
X0338378Y0147057D01*
X0337479Y0148255D02*
X0322317Y0148255D01*
X0325613Y0149454D02*
X0336580Y0149454D01*
X0335681Y0150652D02*
X0328909Y0150652D01*
X0332204Y0151851D02*
X0334782Y0151851D01*
X0264254Y0155446D02*
X0247264Y0155446D01*
X0249062Y0154248D02*
X0263056Y0154248D01*
X0261857Y0153049D02*
X0250930Y0153049D01*
X0253006Y0151851D02*
X0260659Y0151851D01*
X0259460Y0150652D02*
X0254698Y0150652D01*
X0253852Y0151362D02*
X0253852Y0151362D01*
X0256253Y0149454D02*
X0258262Y0149454D01*
X0231149Y0156645D02*
X0216841Y0156645D01*
X0216456Y0157843D02*
X0230643Y0157843D01*
X0230630Y0159042D02*
X0216070Y0159042D01*
X0215685Y0160240D02*
X0230617Y0160240D01*
X0230605Y0161439D02*
X0215300Y0161439D01*
X0214915Y0162638D02*
X0230592Y0162638D01*
X0230579Y0163836D02*
X0214529Y0163836D01*
X0214144Y0165035D02*
X0230566Y0165035D01*
X0230554Y0166233D02*
X0213759Y0166233D01*
X0213374Y0167432D02*
X0230541Y0167432D01*
X0230528Y0168630D02*
X0212988Y0168630D01*
X0212603Y0169829D02*
X0230515Y0169829D01*
X0230503Y0171027D02*
X0212218Y0171027D01*
X0211833Y0172226D02*
X0230490Y0172226D01*
X0230477Y0173424D02*
X0211447Y0173424D01*
X0211062Y0174623D02*
X0230464Y0174623D01*
X0230452Y0175821D02*
X0210677Y0175821D01*
X0210292Y0177020D02*
X0230439Y0177020D01*
X0230426Y0178218D02*
X0209907Y0178218D01*
X0209521Y0179417D02*
X0230413Y0179417D01*
X0230401Y0180615D02*
X0209136Y0180615D01*
X0208751Y0181814D02*
X0230388Y0181814D01*
X0230375Y0183012D02*
X0208366Y0183012D01*
X0207980Y0184211D02*
X0230362Y0184211D01*
X0230350Y0185409D02*
X0207595Y0185409D01*
X0207210Y0186608D02*
X0230337Y0186608D01*
X0230324Y0187806D02*
X0206825Y0187806D01*
X0206439Y0189005D02*
X0230311Y0189005D01*
X0230299Y0190203D02*
X0206054Y0190203D01*
X0205669Y0191402D02*
X0230286Y0191402D01*
X0230273Y0192600D02*
X0205284Y0192600D01*
X0204900Y0193799D02*
X0230260Y0193799D01*
X0230248Y0194997D02*
X0204517Y0194997D01*
X0204133Y0196196D02*
X0230235Y0196196D01*
X0230222Y0197394D02*
X0203750Y0197394D01*
X0203366Y0198593D02*
X0230209Y0198593D01*
X0230197Y0199791D02*
X0202983Y0199791D01*
X0202599Y0200990D02*
X0230184Y0200990D01*
X0208857Y0171027D02*
X0177085Y0171027D01*
X0181392Y0169829D02*
X0209242Y0169829D01*
X0209627Y0168630D02*
X0182590Y0168630D01*
X0182912Y0167432D02*
X0210012Y0167432D01*
X0210398Y0166233D02*
X0184365Y0166233D01*
X0185563Y0165035D02*
X0210783Y0165035D01*
X0211168Y0163836D02*
X0186762Y0163836D01*
X0187806Y0162638D02*
X0211553Y0162638D01*
X0211939Y0161439D02*
X0189159Y0161439D01*
X0190357Y0160240D02*
X0212324Y0160240D01*
X0212709Y0159042D02*
X0191556Y0159042D01*
X0192754Y0157843D02*
X0213094Y0157843D01*
X0213480Y0156645D02*
X0193550Y0156645D01*
X0193660Y0155446D02*
X0212724Y0155446D01*
X0210008Y0154248D02*
X0194701Y0154248D01*
X0196053Y0153049D02*
X0208105Y0153049D01*
X0206201Y0151851D02*
X0197205Y0151851D01*
X0198404Y0150652D02*
X0204298Y0150652D01*
X0202892Y0149454D02*
X0199602Y0149454D01*
X0200801Y0148255D02*
X0201627Y0148255D01*
X0217940Y0153049D02*
X0219705Y0153049D01*
X0217557Y0154248D02*
X0223900Y0154248D01*
X0228095Y0155446D02*
X0217264Y0155446D01*
X0132458Y0119615D02*
X0131411Y0120662D01*
X0126490Y0119615D02*
X0126060Y0120044D01*
X0035017Y0114005D02*
X0035017Y0109280D01*
X0028127Y0109280D01*
X0027340Y0114005D02*
X0035017Y0114005D01*
D42*
X0043383Y0121091D02*
X0043383Y0128965D01*
X0043383Y0121091D02*
X0047812Y0121091D01*
X0043383Y0121091D01*
X0047812Y0121091D02*
X0090627Y0121091D01*
X0104702Y0107017D01*
X0104702Y0106918D01*
X0114938Y0106918D02*
X0117497Y0104359D01*
X0129505Y0104359D01*
X0130982Y0105835D01*
X0126490Y0109025D02*
X0121886Y0109025D01*
X0117202Y0113709D01*
X0115726Y0113709D01*
X0115171Y0114265D01*
X0112281Y0117154D01*
X0104702Y0124733D01*
X0104702Y0130934D01*
X0114938Y0130934D02*
X0115468Y0131389D01*
X0126060Y0131389D01*
X0126060Y0130835D01*
X0126060Y0131389D02*
X0131411Y0131389D01*
X0131411Y0123789D02*
X0131411Y0120662D01*
X0132458Y0119615D02*
X0126490Y0119615D01*
X0126490Y0116625D01*
X0126490Y0124142D01*
X0126060Y0124142D01*
X0132458Y0119615D02*
X0134919Y0119615D01*
X0144269Y0119615D02*
X0146238Y0121583D01*
X0147714Y0123158D01*
X0147714Y0126111D01*
X0156572Y0125520D02*
X0138610Y0107558D01*
X0115037Y0106820D02*
X0114938Y0106918D01*
X0116218Y0078768D02*
X0118679Y0068926D01*
X0127537Y0068926D01*
X0135411Y0064497D02*
X0136395Y0063513D01*
X0142793Y0063513D01*
X0146238Y0053178D02*
X0143285Y0050225D01*
X0141809Y0048749D01*
X0135411Y0048749D01*
X0124024Y0048749D01*
X0118695Y0054077D01*
X0119663Y0056623D01*
X0118695Y0054077D02*
X0116428Y0048111D01*
X0116428Y0042141D01*
X0113757Y0034969D01*
X0115459Y0034024D02*
X0112416Y0037067D01*
X0116428Y0048111D01*
X0127862Y0041898D02*
X0127901Y0041859D01*
X0135411Y0041859D01*
X0135411Y0036938D01*
X0135411Y0034477D01*
X0135411Y0034969D01*
X0127862Y0034024D02*
X0115459Y0034024D01*
X0111297Y0033985D02*
X0112416Y0037067D01*
X0043384Y0107311D02*
X0042349Y0106641D01*
X0041330Y0105947D01*
X0040328Y0105229D01*
X0039343Y0104487D01*
X0038377Y0103721D01*
X0037428Y0102933D01*
X0036499Y0102123D01*
X0035590Y0101291D01*
X0034700Y0100437D01*
X0033831Y0099562D01*
X0032983Y0098667D01*
X0032157Y0097752D01*
X0031353Y0096818D01*
X0030571Y0095865D01*
X0029812Y0094893D01*
X0029076Y0093904D01*
X0028364Y0092897D01*
X0027677Y0091874D01*
X0027013Y0090835D01*
X0026375Y0089780D01*
X0025762Y0088710D01*
X0025175Y0087626D01*
X0025175Y0087627D02*
X0021519Y0089877D01*
X0021519Y0082655D01*
X0018285Y0105343D02*
X0018118Y0105343D01*
X0046927Y0115678D02*
X0047419Y0116170D01*
X0049289Y0114202D01*
X0067990Y0114202D01*
X0021238Y0141977D02*
X0018285Y0138808D01*
X0018285Y0132902D01*
X0020342Y0141977D02*
X0021238Y0141977D01*
X0024466Y0148867D02*
X0023206Y0150127D01*
X0021238Y0150127D01*
X0020342Y0149851D01*
X0017982Y0152211D01*
X0017982Y0171288D01*
X0024465Y0148866D02*
X0025082Y0147765D01*
X0025724Y0146678D01*
X0026392Y0145607D01*
X0027086Y0144552D01*
X0027804Y0143514D01*
X0028547Y0142493D01*
X0029314Y0141490D01*
X0030105Y0140506D01*
X0030918Y0139541D01*
X0031755Y0138596D01*
X0032614Y0137670D01*
X0033494Y0136766D01*
X0034396Y0135882D01*
X0035319Y0135021D01*
X0036262Y0134181D01*
X0037224Y0133364D01*
X0038206Y0132571D01*
X0039207Y0131801D01*
X0040225Y0131055D01*
X0041261Y0130333D01*
X0042314Y0129636D01*
X0043383Y0128965D01*
X0118982Y0171288D02*
X0119171Y0171477D01*
X0119171Y0186544D01*
X0119761Y0187135D01*
X0127537Y0187135D01*
X0127537Y0193828D02*
X0122320Y0199044D01*
X0122320Y0200816D01*
X0148206Y0198847D02*
X0148206Y0211347D01*
X0155391Y0218532D01*
X0229801Y0199802D02*
X0229899Y0199802D01*
X0229899Y0154556D01*
X0200371Y0142745D02*
X0192763Y0150353D01*
X0187023Y0155443D01*
X0179486Y0147568D01*
X0179486Y0148099D01*
X0170352Y0157509D02*
X0166907Y0154064D01*
X0165923Y0154064D01*
X0157557Y0154064D01*
X0157192Y0157381D01*
X0156572Y0157509D02*
X0156572Y0125520D01*
X0181179Y0160954D02*
X0181179Y0161603D01*
X0170352Y0164398D02*
X0167891Y0164398D01*
X0157281Y0164398D01*
X0156572Y0165383D01*
X0156257Y0165560D01*
X0154112Y0164398D01*
X0147222Y0164398D01*
X0146730Y0164891D01*
X0146553Y0165097D01*
X0192497Y0119123D02*
X0192532Y0120017D01*
X0192589Y0120909D01*
X0192668Y0121800D01*
X0192769Y0122688D01*
X0192892Y0123574D01*
X0193036Y0124456D01*
X0193202Y0125335D01*
X0193389Y0126209D01*
X0193598Y0127079D01*
X0193828Y0127943D01*
X0194079Y0128801D01*
X0194351Y0129652D01*
X0194644Y0130497D01*
X0194958Y0131334D01*
X0195292Y0132164D01*
X0195646Y0132985D01*
X0196020Y0133797D01*
X0196415Y0134599D01*
X0196828Y0135392D01*
X0197261Y0136174D01*
X0197714Y0136946D01*
X0198185Y0137706D01*
X0198674Y0138454D01*
X0199182Y0139190D01*
X0199707Y0139913D01*
X0200250Y0140624D01*
X0200811Y0141320D01*
X0201388Y0142003D01*
X0201982Y0142671D01*
X0202592Y0143325D01*
X0203218Y0143963D01*
X0203860Y0144586D01*
X0204516Y0145193D01*
X0205188Y0145784D01*
X0205873Y0146358D01*
X0206573Y0146915D01*
X0207286Y0147454D01*
X0208012Y0147976D01*
X0208750Y0148480D01*
X0209501Y0148966D01*
X0210263Y0149433D01*
X0211037Y0149882D01*
X0211821Y0150311D01*
X0212616Y0150721D01*
X0213420Y0151111D01*
X0214234Y0151481D01*
X0215057Y0151831D01*
X0215888Y0152161D01*
X0216727Y0152471D01*
X0217573Y0152759D01*
X0218426Y0153027D01*
X0219285Y0153274D01*
X0220151Y0153500D01*
X0221021Y0153704D01*
X0221896Y0153887D01*
X0222776Y0154049D01*
X0223659Y0154189D01*
X0224545Y0154307D01*
X0225434Y0154403D01*
X0226325Y0154478D01*
X0227218Y0154530D01*
X0228111Y0154561D01*
X0229005Y0154570D01*
X0229899Y0154557D01*
X0192498Y0119123D02*
X0192485Y0118195D01*
X0192495Y0117268D01*
X0192527Y0116340D01*
X0192582Y0115414D01*
X0192659Y0114489D01*
X0192758Y0113567D01*
X0192880Y0112647D01*
X0193024Y0111730D01*
X0193190Y0110817D01*
X0193377Y0109908D01*
X0193587Y0109005D01*
X0193819Y0108106D01*
X0194072Y0107213D01*
X0194347Y0106327D01*
X0194643Y0105448D01*
X0194960Y0104576D01*
X0195299Y0103712D01*
X0195658Y0102856D01*
X0196037Y0102009D01*
X0196437Y0101172D01*
X0196857Y0100345D01*
X0197297Y0099528D01*
X0197757Y0098721D01*
X0198235Y0097927D01*
X0198733Y0097144D01*
X0199250Y0096373D01*
X0199785Y0095615D01*
X0200339Y0094870D01*
X0200910Y0094139D01*
X0201498Y0093421D01*
X0202104Y0092719D01*
X0202727Y0092031D01*
X0203366Y0091358D01*
X0204021Y0090701D01*
X0204692Y0090060D01*
X0205378Y0089435D01*
X0206079Y0088827D01*
X0206795Y0088236D01*
X0207524Y0087663D01*
X0208268Y0087108D01*
X0209024Y0086570D01*
X0209793Y0086051D01*
X0210575Y0085551D01*
X0211368Y0085070D01*
X0212173Y0084608D01*
X0212989Y0084166D01*
X0213815Y0083743D01*
X0214651Y0083341D01*
X0215496Y0082959D01*
X0216351Y0082597D01*
X0217214Y0082256D01*
X0218085Y0081936D01*
X0218964Y0081638D01*
X0219849Y0081360D01*
X0220741Y0081105D01*
X0221639Y0080870D01*
X0222542Y0080658D01*
X0223450Y0080467D01*
X0224363Y0080299D01*
X0225279Y0080152D01*
X0226199Y0080028D01*
X0227121Y0079926D01*
X0228045Y0079846D01*
X0228972Y0079789D01*
X0229899Y0079754D01*
X0229899Y0079752D02*
X0230803Y0079763D01*
X0231706Y0079796D01*
X0232608Y0079850D01*
X0233509Y0079927D01*
X0234407Y0080025D01*
X0235303Y0080144D01*
X0236196Y0080286D01*
X0237085Y0080449D01*
X0237970Y0080633D01*
X0238850Y0080839D01*
X0239725Y0081066D01*
X0240594Y0081314D01*
X0241457Y0081583D01*
X0242313Y0081872D01*
X0243162Y0082183D01*
X0244003Y0082513D01*
X0244836Y0082864D01*
X0245660Y0083235D01*
X0246475Y0083626D01*
X0247281Y0084036D01*
X0248076Y0084466D01*
X0248860Y0084915D01*
X0249634Y0085382D01*
X0250396Y0085868D01*
X0251146Y0086373D01*
X0251883Y0086895D01*
X0252608Y0087435D01*
X0253320Y0087993D01*
X0254017Y0088567D01*
X0254701Y0089158D01*
X0255370Y0089766D01*
X0256025Y0090389D01*
X0256664Y0091028D01*
X0257287Y0091683D01*
X0257895Y0092352D01*
X0258486Y0093036D01*
X0259060Y0093733D01*
X0259618Y0094445D01*
X0260158Y0095170D01*
X0260680Y0095907D01*
X0261185Y0096657D01*
X0261671Y0097419D01*
X0262138Y0098193D01*
X0262587Y0098977D01*
X0263017Y0099772D01*
X0263427Y0100578D01*
X0263818Y0101393D01*
X0264189Y0102217D01*
X0264540Y0103050D01*
X0264870Y0103891D01*
X0265181Y0104740D01*
X0265470Y0105596D01*
X0265739Y0106459D01*
X0265987Y0107328D01*
X0266214Y0108203D01*
X0266420Y0109083D01*
X0266604Y0109968D01*
X0266767Y0110857D01*
X0266909Y0111750D01*
X0267028Y0112646D01*
X0267126Y0113544D01*
X0267203Y0114445D01*
X0267257Y0115347D01*
X0267290Y0116250D01*
X0267301Y0117154D01*
X0330490Y0117154D01*
X0267301Y0117154D02*
X0267290Y0118058D01*
X0267257Y0118961D01*
X0267203Y0119863D01*
X0267126Y0120764D01*
X0267028Y0121662D01*
X0266909Y0122558D01*
X0266767Y0123451D01*
X0266604Y0124340D01*
X0266420Y0125225D01*
X0266214Y0126105D01*
X0265987Y0126980D01*
X0265739Y0127849D01*
X0265470Y0128712D01*
X0265181Y0129568D01*
X0264870Y0130417D01*
X0264540Y0131258D01*
X0264189Y0132091D01*
X0263818Y0132915D01*
X0263427Y0133730D01*
X0263017Y0134536D01*
X0262587Y0135331D01*
X0262138Y0136115D01*
X0261671Y0136889D01*
X0261185Y0137651D01*
X0260680Y0138401D01*
X0260158Y0139138D01*
X0259618Y0139863D01*
X0259060Y0140575D01*
X0258486Y0141272D01*
X0257895Y0141956D01*
X0257287Y0142625D01*
X0256664Y0143280D01*
X0256025Y0143919D01*
X0255370Y0144542D01*
X0254701Y0145150D01*
X0254017Y0145741D01*
X0253320Y0146315D01*
X0252608Y0146873D01*
X0251883Y0147413D01*
X0251146Y0147935D01*
X0250396Y0148440D01*
X0249634Y0148926D01*
X0248860Y0149393D01*
X0248076Y0149842D01*
X0247281Y0150272D01*
X0246475Y0150682D01*
X0245660Y0151073D01*
X0244836Y0151444D01*
X0244003Y0151795D01*
X0243162Y0152125D01*
X0242313Y0152436D01*
X0241457Y0152725D01*
X0240594Y0152994D01*
X0239725Y0153242D01*
X0238850Y0153469D01*
X0237970Y0153675D01*
X0237085Y0153859D01*
X0236196Y0154022D01*
X0235303Y0154164D01*
X0234407Y0154283D01*
X0233509Y0154381D01*
X0232608Y0154458D01*
X0231706Y0154512D01*
X0230803Y0154545D01*
X0229899Y0154556D01*
X0158049Y0073847D02*
X0158049Y0072863D01*
X0158049Y0071387D01*
X0158049Y0072863D02*
X0153521Y0072863D01*
X0229801Y0034595D02*
X0229801Y0034477D01*
X0235805Y0034477D01*
X0235805Y0037430D01*
X0116217Y0078769D02*
X0115871Y0079909D01*
X0115498Y0081040D01*
X0115097Y0082162D01*
X0114668Y0083274D01*
X0114214Y0084375D01*
X0113732Y0085465D01*
X0113224Y0086543D01*
X0112691Y0087608D01*
X0112131Y0088660D01*
X0111547Y0089698D01*
X0110937Y0090722D01*
X0110302Y0091730D01*
X0109644Y0092723D01*
X0108961Y0093700D01*
X0108255Y0094660D01*
X0107526Y0095602D01*
X0106775Y0096527D01*
X0106001Y0097433D01*
X0105205Y0098320D01*
X0104389Y0099187D01*
X0103551Y0100034D01*
X0102693Y0100861D01*
X0101815Y0101667D01*
X0100919Y0102451D01*
X0100003Y0103214D01*
X0099069Y0103953D01*
X0098117Y0104671D01*
X0097149Y0105364D01*
X0096163Y0106034D01*
X0095162Y0106680D01*
X0094146Y0107302D01*
X0093115Y0107899D01*
X0092069Y0108470D01*
X0091010Y0109016D01*
X0089938Y0109536D01*
X0088854Y0110030D01*
X0087758Y0110498D01*
X0086651Y0110939D01*
X0085534Y0111353D01*
X0084407Y0111740D01*
X0083271Y0112099D01*
X0082127Y0112431D01*
X0080975Y0112735D01*
X0079816Y0113011D01*
X0078650Y0113258D01*
X0077479Y0113478D01*
X0076303Y0113669D01*
X0075123Y0113831D01*
X0073939Y0113965D01*
X0072752Y0114070D01*
X0071563Y0114146D01*
X0070372Y0114193D01*
X0069181Y0114212D01*
X0067989Y0114201D01*
D43*
X0132458Y0119615D03*
X0134919Y0119615D03*
X0144269Y0119615D03*
X0146238Y0121583D03*
X0178718Y0154556D03*
X0178718Y0157017D03*
X0178718Y0164398D03*
X0178718Y0166859D03*
X0170352Y0164398D03*
X0167891Y0164398D03*
X0165431Y0164398D03*
X0162970Y0164398D03*
X0158049Y0073847D03*
X0158049Y0071387D03*
X0145746Y0063513D03*
X0145746Y0060560D03*
X0142793Y0060560D03*
X0142793Y0063513D03*
X0135411Y0036938D03*
X0135411Y0034477D03*
D44*
X0166907Y0164398D02*
X0167891Y0164398D01*
X0166907Y0164398D02*
X0166907Y0169517D01*
D45*
X0283049Y0124044D03*
X0286494Y0124044D03*
X0289938Y0124044D03*
X0293383Y0124044D03*
X0296828Y0124044D03*
X0300273Y0124044D03*
X0295844Y0128965D03*
X0316513Y0128965D03*
X0319958Y0128965D03*
D46*
X0200371Y0142745D02*
X0193482Y0127981D01*
X0192497Y0119123D01*
X0193199Y0119924D02*
X0157198Y0119924D01*
X0155600Y0118325D02*
X0193228Y0118325D01*
X0193257Y0116727D02*
X0154001Y0116727D01*
X0152403Y0115128D02*
X0193286Y0115128D01*
X0193315Y0113530D02*
X0150804Y0113530D01*
X0149206Y0111931D02*
X0193344Y0111931D01*
X0193373Y0110333D02*
X0147607Y0110333D01*
X0146009Y0108734D02*
X0193402Y0108734D01*
X0193431Y0107136D02*
X0144410Y0107136D01*
X0142812Y0105537D02*
X0192558Y0105537D01*
X0192739Y0105561D02*
X0192313Y0105505D01*
X0191883Y0105517D01*
X0191609Y0105413D01*
X0191319Y0105374D01*
X0190946Y0105160D01*
X0127420Y0080913D01*
X0119663Y0092548D01*
X0119642Y0094454D01*
X0130301Y0094454D01*
X0131771Y0095062D01*
X0132896Y0096188D01*
X0140136Y0103428D01*
X0141102Y0103828D01*
X0159003Y0121728D01*
X0175437Y0121728D01*
X0176650Y0122231D01*
X0177579Y0123159D01*
X0178081Y0124372D01*
X0178081Y0137477D01*
X0178179Y0137437D01*
X0180793Y0137437D01*
X0181822Y0137863D01*
X0182609Y0138651D01*
X0183036Y0139680D01*
X0183036Y0139717D01*
X0183434Y0140115D01*
X0183860Y0141145D01*
X0183860Y0144818D01*
X0183434Y0145847D01*
X0182647Y0146634D01*
X0181617Y0147061D01*
X0178781Y0147061D01*
X0178781Y0150365D01*
X0180454Y0150365D01*
X0182908Y0152820D01*
X0182908Y0154885D01*
X0184548Y0156524D01*
X0186100Y0156524D01*
X0199879Y0141761D01*
X0192990Y0131426D01*
X0193463Y0105411D01*
X0193314Y0105477D01*
X0193022Y0105485D01*
X0192739Y0105561D01*
X0192827Y0105537D02*
X0193460Y0105537D01*
X0191337Y0101455D02*
X0191494Y0100986D01*
X0195071Y0094407D01*
X0199554Y0088777D01*
X0157064Y0046288D01*
X0157064Y0042640D01*
X0156530Y0041716D01*
X0156385Y0040611D01*
X0156673Y0039535D01*
X0157064Y0039026D01*
X0157064Y0028572D01*
X0152143Y0028572D01*
X0140337Y0040378D01*
X0140337Y0044349D01*
X0142684Y0044349D01*
X0144301Y0045019D01*
X0145539Y0046256D01*
X0147015Y0047733D01*
X0149968Y0050686D01*
X0150638Y0052303D01*
X0150638Y0054053D01*
X0150622Y0054091D01*
X0150622Y0057102D01*
X0150553Y0057268D01*
X0154767Y0057268D01*
X0155796Y0057694D01*
X0156584Y0058482D01*
X0157010Y0059511D01*
X0157010Y0060237D01*
X0157781Y0061008D01*
X0160180Y0061008D01*
X0161001Y0061348D01*
X0161822Y0061008D01*
X0166873Y0061008D01*
X0167902Y0061434D01*
X0168690Y0062222D01*
X0169116Y0063251D01*
X0169116Y0068696D01*
X0168690Y0069725D01*
X0167948Y0070467D01*
X0167948Y0074170D01*
X0167400Y0075493D01*
X0162577Y0080316D01*
X0161564Y0081328D01*
X0160241Y0081876D01*
X0144537Y0081876D01*
X0143214Y0081328D01*
X0133920Y0072034D01*
X0131409Y0072034D01*
X0128029Y0077292D01*
X0191337Y0101455D01*
X0191627Y0100742D02*
X0189467Y0100742D01*
X0192496Y0099143D02*
X0185279Y0099143D01*
X0183559Y0102340D02*
X0139049Y0102340D01*
X0137450Y0100742D02*
X0179371Y0100742D01*
X0181091Y0097545D02*
X0193365Y0097545D01*
X0194234Y0095946D02*
X0176903Y0095946D01*
X0175183Y0099143D02*
X0135852Y0099143D01*
X0134253Y0097545D02*
X0170995Y0097545D01*
X0172715Y0094348D02*
X0195118Y0094348D01*
X0196391Y0092749D02*
X0168526Y0092749D01*
X0164338Y0091151D02*
X0197664Y0091151D01*
X0198937Y0089552D02*
X0160150Y0089552D01*
X0158431Y0092749D02*
X0119661Y0092749D01*
X0119643Y0094348D02*
X0162619Y0094348D01*
X0166807Y0095946D02*
X0132655Y0095946D01*
X0141213Y0103939D02*
X0187748Y0103939D01*
X0193170Y0121522D02*
X0158797Y0121522D01*
X0177540Y0123121D02*
X0193141Y0123121D01*
X0193112Y0124719D02*
X0178081Y0124719D01*
X0178081Y0126318D02*
X0193082Y0126318D01*
X0193053Y0127916D02*
X0178081Y0127916D01*
X0178081Y0129515D02*
X0193024Y0129515D01*
X0192995Y0131113D02*
X0178081Y0131113D01*
X0178081Y0132712D02*
X0193847Y0132712D01*
X0194913Y0134310D02*
X0178081Y0134310D01*
X0178081Y0135909D02*
X0195978Y0135909D01*
X0197044Y0137507D02*
X0180963Y0137507D01*
X0182798Y0139106D02*
X0198110Y0139106D01*
X0199175Y0140705D02*
X0183678Y0140705D01*
X0183860Y0142303D02*
X0199373Y0142303D01*
X0197881Y0143902D02*
X0183860Y0143902D01*
X0183578Y0145500D02*
X0196389Y0145500D01*
X0194897Y0147099D02*
X0178781Y0147099D01*
X0178781Y0148697D02*
X0193405Y0148697D01*
X0191913Y0150296D02*
X0178781Y0150296D01*
X0181982Y0151894D02*
X0190421Y0151894D01*
X0188930Y0153493D02*
X0182908Y0153493D01*
X0183115Y0155091D02*
X0187438Y0155091D01*
X0148105Y0159122D02*
X0145855Y0156872D01*
X0144105Y0156872D01*
X0142892Y0156369D01*
X0141964Y0155441D01*
X0141461Y0154228D01*
X0141461Y0152114D01*
X0140491Y0150172D01*
X0140402Y0150084D01*
X0140190Y0149571D01*
X0139941Y0149074D01*
X0139933Y0148950D01*
X0139885Y0148835D01*
X0139885Y0148279D01*
X0139845Y0147725D01*
X0139885Y0147606D01*
X0139885Y0135945D01*
X0138811Y0133797D01*
X0138811Y0134071D01*
X0138293Y0135320D01*
X0136325Y0137289D01*
X0135368Y0138245D01*
X0134119Y0138763D01*
X0125091Y0138763D01*
X0120602Y0141648D01*
X0120602Y0141788D01*
X0123785Y0146997D01*
X0129770Y0143532D01*
X0129841Y0143451D01*
X0130352Y0143195D01*
X0130848Y0142908D01*
X0130954Y0142894D01*
X0131050Y0142846D01*
X0131621Y0142806D01*
X0132189Y0142730D01*
X0132292Y0142758D01*
X0132400Y0142750D01*
X0132943Y0142931D01*
X0133495Y0143079D01*
X0133581Y0143144D01*
X0133683Y0143178D01*
X0134115Y0143553D01*
X0134570Y0143901D01*
X0134623Y0143994D01*
X0134705Y0144064D01*
X0134961Y0144576D01*
X0135247Y0145071D01*
X0135261Y0145178D01*
X0140308Y0155272D01*
X0140553Y0155621D01*
X0140608Y0155871D01*
X0140723Y0156101D01*
X0140753Y0156526D01*
X0140845Y0156941D01*
X0140801Y0157194D01*
X0140819Y0157450D01*
X0140684Y0157854D01*
X0140610Y0158273D01*
X0140472Y0158490D01*
X0140391Y0158733D01*
X0140112Y0159055D01*
X0139883Y0159414D01*
X0139673Y0159561D01*
X0139505Y0159755D01*
X0139124Y0159946D01*
X0136997Y0161434D01*
X0136997Y0161434D01*
X0137423Y0162463D01*
X0137423Y0162629D01*
X0138364Y0164398D01*
X0140800Y0164398D01*
X0140800Y0161981D01*
X0141226Y0160952D01*
X0142014Y0160164D01*
X0143043Y0159738D01*
X0148105Y0159738D01*
X0148105Y0159122D01*
X0147271Y0158288D02*
X0140601Y0158288D01*
X0140789Y0156690D02*
X0143665Y0156690D01*
X0141819Y0155091D02*
X0140218Y0155091D01*
X0139419Y0153493D02*
X0141461Y0153493D01*
X0141351Y0151894D02*
X0138619Y0151894D01*
X0137820Y0150296D02*
X0140552Y0150296D01*
X0139885Y0148697D02*
X0137021Y0148697D01*
X0136222Y0147099D02*
X0139885Y0147099D01*
X0139885Y0145500D02*
X0135422Y0145500D01*
X0134570Y0143902D02*
X0139885Y0143902D01*
X0139885Y0142303D02*
X0120917Y0142303D01*
X0121894Y0143902D02*
X0129132Y0143902D01*
X0126371Y0145500D02*
X0122871Y0145500D01*
X0122070Y0140705D02*
X0139885Y0140705D01*
X0139885Y0139106D02*
X0124557Y0139106D01*
X0136106Y0137507D02*
X0139885Y0137507D01*
X0139867Y0135909D02*
X0137705Y0135909D01*
X0138712Y0134310D02*
X0139068Y0134310D01*
X0139242Y0159887D02*
X0142684Y0159887D01*
X0141005Y0161485D02*
X0137018Y0161485D01*
X0137665Y0163084D02*
X0140800Y0163084D01*
X0039840Y0117253D02*
X0039840Y0115678D01*
X0039840Y0117253D02*
X0032852Y0124241D01*
X0027340Y0124241D01*
X0120594Y0091151D02*
X0154243Y0091151D01*
X0155962Y0087954D02*
X0198730Y0087954D01*
X0197131Y0086355D02*
X0151774Y0086355D01*
X0150055Y0089552D02*
X0121660Y0089552D01*
X0122726Y0087954D02*
X0145867Y0087954D01*
X0141678Y0086355D02*
X0123791Y0086355D01*
X0124857Y0084757D02*
X0137490Y0084757D01*
X0139210Y0081560D02*
X0143773Y0081560D01*
X0143398Y0083158D02*
X0193934Y0083158D01*
X0192336Y0081560D02*
X0161006Y0081560D01*
X0162931Y0079961D02*
X0190737Y0079961D01*
X0189139Y0078363D02*
X0164530Y0078363D01*
X0166128Y0076764D02*
X0187540Y0076764D01*
X0185942Y0075166D02*
X0167535Y0075166D01*
X0167948Y0073567D02*
X0184343Y0073567D01*
X0182745Y0071969D02*
X0167948Y0071969D01*
X0168045Y0070370D02*
X0181146Y0070370D01*
X0179548Y0068771D02*
X0169085Y0068771D01*
X0169116Y0067173D02*
X0177949Y0067173D01*
X0176351Y0065574D02*
X0169116Y0065574D01*
X0169116Y0063976D02*
X0174752Y0063976D01*
X0173154Y0062377D02*
X0168755Y0062377D01*
X0171555Y0060779D02*
X0157552Y0060779D01*
X0156873Y0059180D02*
X0169957Y0059180D01*
X0168358Y0057582D02*
X0155526Y0057582D01*
X0150622Y0055983D02*
X0166760Y0055983D01*
X0165161Y0054385D02*
X0150622Y0054385D01*
X0150638Y0052786D02*
X0163563Y0052786D01*
X0161964Y0051188D02*
X0150176Y0051188D01*
X0148872Y0049589D02*
X0160366Y0049589D01*
X0158767Y0047991D02*
X0147273Y0047991D01*
X0147015Y0047733D02*
X0147015Y0047733D01*
X0145675Y0046392D02*
X0157169Y0046392D01*
X0157064Y0044794D02*
X0143758Y0044794D01*
X0140337Y0043195D02*
X0157064Y0043195D01*
X0156515Y0041597D02*
X0140337Y0041597D01*
X0140716Y0039998D02*
X0156549Y0039998D01*
X0157064Y0038400D02*
X0142315Y0038400D01*
X0143914Y0036801D02*
X0157064Y0036801D01*
X0157064Y0035203D02*
X0145512Y0035203D01*
X0147111Y0033604D02*
X0157064Y0033604D01*
X0157064Y0032006D02*
X0148709Y0032006D01*
X0150308Y0030407D02*
X0157064Y0030407D01*
X0157064Y0028809D02*
X0151906Y0028809D01*
X0140332Y0054162D02*
X0138856Y0054162D01*
X0135295Y0057590D01*
X0135312Y0057607D01*
X0135411Y0057607D01*
X0135411Y0068434D02*
X0129297Y0068434D01*
X0130424Y0073567D02*
X0135453Y0073567D01*
X0137051Y0075166D02*
X0129396Y0075166D01*
X0128368Y0076764D02*
X0138650Y0076764D01*
X0140248Y0078363D02*
X0130834Y0078363D01*
X0129114Y0081560D02*
X0126988Y0081560D01*
X0125923Y0083158D02*
X0133302Y0083158D01*
X0135022Y0079961D02*
X0141847Y0079961D01*
X0145253Y0078276D02*
X0135411Y0068434D01*
X0145253Y0078276D02*
X0159525Y0078276D01*
X0164348Y0073454D01*
X0164348Y0065973D01*
X0157655Y0065973D02*
X0154210Y0062528D01*
X0152635Y0062528D01*
X0147586Y0084757D02*
X0195533Y0084757D01*
D47*
X0170352Y0157509D02*
X0170352Y0158985D01*
X0170647Y0159280D01*
X0043383Y0121091D02*
X0043383Y0111741D01*
X0043383Y0107312D01*
D48*
X0146385Y0137272D02*
X0146385Y0147426D01*
X0147169Y0148995D01*
X0150791Y0148995D01*
X0151931Y0149467D01*
X0152803Y0150339D01*
X0152903Y0150581D01*
X0153948Y0151626D01*
X0154405Y0152729D01*
X0154405Y0158446D01*
X0159584Y0158446D01*
X0159584Y0156421D01*
X0159965Y0155502D01*
X0160668Y0154799D01*
X0161587Y0154418D01*
X0164747Y0154418D01*
X0165666Y0154799D01*
X0166369Y0155502D01*
X0166749Y0156421D01*
X0166749Y0160298D01*
X0171081Y0160298D01*
X0171081Y0152039D01*
X0170849Y0152135D01*
X0160996Y0152135D01*
X0160077Y0151754D01*
X0159374Y0151051D01*
X0158994Y0150132D01*
X0158994Y0141910D01*
X0158291Y0141208D01*
X0157911Y0140289D01*
X0157911Y0133783D01*
X0158291Y0132864D01*
X0158995Y0132161D01*
X0159914Y0131780D01*
X0171932Y0131780D01*
X0172851Y0132161D01*
X0173554Y0132864D01*
X0173934Y0133783D01*
X0173934Y0136766D01*
X0174781Y0137706D01*
X0174781Y0125028D01*
X0152379Y0125028D01*
X0152379Y0128577D01*
X0152015Y0129457D01*
X0152379Y0130338D01*
X0152379Y0135270D01*
X0151999Y0136189D01*
X0151295Y0136892D01*
X0150377Y0137272D01*
X0146385Y0137272D01*
X0146385Y0137638D02*
X0157911Y0137638D01*
X0157911Y0138636D02*
X0146385Y0138636D01*
X0146385Y0139635D02*
X0157911Y0139635D01*
X0158053Y0140633D02*
X0146385Y0140633D01*
X0146385Y0141632D02*
X0158715Y0141632D01*
X0158994Y0142630D02*
X0146385Y0142630D01*
X0146385Y0143629D02*
X0158994Y0143629D01*
X0158994Y0144627D02*
X0146385Y0144627D01*
X0146385Y0145626D02*
X0158994Y0145626D01*
X0158994Y0146624D02*
X0146385Y0146624D01*
X0146483Y0147623D02*
X0158994Y0147623D01*
X0158994Y0148621D02*
X0146982Y0148621D01*
X0152083Y0149620D02*
X0158994Y0149620D01*
X0159195Y0150618D02*
X0152940Y0150618D01*
X0153939Y0151617D02*
X0159940Y0151617D01*
X0161118Y0154612D02*
X0154405Y0154612D01*
X0154405Y0153614D02*
X0171081Y0153614D01*
X0171081Y0154612D02*
X0165215Y0154612D01*
X0166414Y0155611D02*
X0171081Y0155611D01*
X0171081Y0156609D02*
X0166749Y0156609D01*
X0166749Y0157608D02*
X0171081Y0157608D01*
X0171081Y0158606D02*
X0166749Y0158606D01*
X0166749Y0159605D02*
X0171081Y0159605D01*
X0163167Y0159280D02*
X0161001Y0161446D01*
X0151897Y0161446D01*
X0151405Y0160954D01*
X0151405Y0153326D01*
X0150175Y0152095D01*
X0154358Y0152615D02*
X0171081Y0152615D01*
X0159920Y0155611D02*
X0154405Y0155611D01*
X0154405Y0156609D02*
X0159584Y0156609D01*
X0159584Y0157608D02*
X0154405Y0157608D01*
X0151548Y0136639D02*
X0157911Y0136639D01*
X0157911Y0135640D02*
X0152226Y0135640D01*
X0152379Y0134642D02*
X0157911Y0134642D01*
X0157969Y0133643D02*
X0152379Y0133643D01*
X0152379Y0132645D02*
X0158511Y0132645D01*
X0152379Y0131646D02*
X0174781Y0131646D01*
X0174781Y0130648D02*
X0152379Y0130648D01*
X0152094Y0129649D02*
X0174781Y0129649D01*
X0174781Y0128651D02*
X0152349Y0128651D01*
X0152379Y0127652D02*
X0174781Y0127652D01*
X0174781Y0126654D02*
X0152379Y0126654D01*
X0152379Y0125655D02*
X0174781Y0125655D01*
X0174781Y0132645D02*
X0173335Y0132645D01*
X0173877Y0133643D02*
X0174781Y0133643D01*
X0174781Y0134642D02*
X0173934Y0134642D01*
X0173934Y0135640D02*
X0174781Y0135640D01*
X0174781Y0136639D02*
X0173934Y0136639D01*
X0174719Y0137638D02*
X0174781Y0137638D01*
M02*
