%
M48
M72
T01C0.01181
T02C0.01575
T03C0.01969
T04C0.03543
T05C0.04331
T06C0.64961
%
T01
X135411Y34477
X135411Y36938
X142793Y60560
X145746Y60560
X145746Y63513
X142793Y63513
X158049Y71387
X158049Y73847
X144269Y119615
X146238Y121583
X134919Y119615
X132458Y119615
X178718Y154556
X178718Y157017
X178718Y164398
X178718Y166859
X170352Y164398
X167891Y164398
X165431Y164398
X162970Y164398
T02
X68974Y61544
X68974Y65481
X72911Y65481
X68974Y69418
X65037Y65481
X18285Y105343
X14348Y105343
X14348Y109280
X18285Y109280
X24190Y109280
X28127Y109280
X28127Y128965
X24190Y128965
X18285Y128965
X14348Y128965
X14348Y132902
X18285Y132902
X68482Y167351
X68482Y171288
X72419Y171288
X68482Y175225
X64545Y171288
X235805Y37430
X235805Y34477
X303718Y124044
X307163Y124044
X310608Y124044
X314053Y124044
X317497Y124044
X313068Y128965
X306179Y128965
X302734Y128965
X299289Y128965
X288954Y128965
X285509Y128965
X282064Y128965
X278620Y128965
T03
X283049Y124044
X286494Y124044
X289938Y124044
X293383Y124044
X296828Y124044
X300273Y124044
X295844Y128965
X316513Y128965
X319958Y128965
T04
X105883Y115186
T05
X114545Y123847
T06
X229801Y117824
M30
