G75*
%MOIN*%
%OFA0B0*%
%FSLAX25Y25*%
%IPPOS*%
%LPD*%
%AMOC8*
5,1,8,0,0,1.08239X$1,22.5*
%
%ADD10C,0.00000*%
%ADD11C,0.01600*%
%ADD12C,0.01200*%
%ADD13C,0.00600*%
%ADD14R,0.01969X0.02559*%
%ADD15C,0.00800*%
%ADD16C,0.00400*%
%ADD17R,0.01339X0.00827*%
%ADD18R,0.03150X0.01142*%
%ADD19C,0.00500*%
%ADD20C,0.00984*%
%ADD21R,0.01772X0.01575*%
%ADD22R,0.00689X0.01280*%
%ADD23R,0.00787X0.00787*%
%ADD24R,0.00787X0.00787*%
%ADD25R,0.02559X0.05512*%
%ADD26R,0.05512X0.02559*%
%ADD27R,0.05118X0.01969*%
%ADD28R,0.01969X0.05118*%
%ADD29C,0.00200*%
%ADD30R,0.00787X0.00591*%
%ADD31R,0.00197X0.00197*%
%ADD32R,0.00197X0.01476*%
%ADD33R,0.00787X0.01181*%
%ADD34R,0.03543X0.00886*%
%ADD35R,0.00787X0.01969*%
%ADD36R,0.02165X0.00886*%
%ADD37R,0.00394X0.00394*%
%ADD38R,0.00984X0.00984*%
%ADD39R,0.01600X0.03400*%
%ADD40R,0.03150X0.01378*%
%ADD41R,0.03400X0.01600*%
%ADD42C,0.00787*%
%ADD43R,0.02000X0.01500*%
%ADD44R,0.02980X0.04791*%
%ADD45R,0.03039X0.04733*%
%ADD46R,0.02980X0.02571*%
%ADD47R,0.02980X0.04733*%
%ADD48R,0.02980X0.02162*%
%ADD49R,0.03039X0.02104*%
%ADD50R,0.02980X0.02104*%
%ADD51R,0.02980X0.00526*%
%ADD52R,0.02980X0.02162*%
%ADD53R,0.04791X0.02980*%
%ADD54R,0.04733X0.03039*%
%ADD55R,0.02571X0.02980*%
%ADD56R,0.04733X0.02980*%
%ADD57R,0.02162X0.02980*%
%ADD58R,0.02104X0.03039*%
%ADD59R,0.02104X0.02980*%
%ADD60R,0.00526X0.02980*%
%ADD61R,0.02162X0.02980*%
D10*
X0020253Y0012824D02*
X0333246Y0012824D01*
X0333245Y0012824D02*
X0333507Y0012851D01*
X0333767Y0012884D01*
X0334027Y0012923D01*
X0334286Y0012969D01*
X0334543Y0013021D01*
X0334799Y0013079D01*
X0335054Y0013144D01*
X0335307Y0013214D01*
X0335558Y0013291D01*
X0335808Y0013374D01*
X0336055Y0013462D01*
X0336300Y0013557D01*
X0336543Y0013658D01*
X0336783Y0013764D01*
X0337020Y0013876D01*
X0337255Y0013994D01*
X0337487Y0014118D01*
X0337716Y0014247D01*
X0337941Y0014381D01*
X0338164Y0014521D01*
X0338383Y0014666D01*
X0338598Y0014817D01*
X0338809Y0014973D01*
X0339017Y0015133D01*
X0339221Y0015299D01*
X0339421Y0015470D01*
X0339616Y0015645D01*
X0339808Y0015825D01*
X0339995Y0016010D01*
X0340177Y0016199D01*
X0340355Y0016392D01*
X0340528Y0016590D01*
X0340696Y0016792D01*
X0340859Y0016998D01*
X0341017Y0017207D01*
X0341170Y0017421D01*
X0341318Y0017638D01*
X0341461Y0017859D01*
X0341598Y0018083D01*
X0341730Y0018310D01*
X0341856Y0018540D01*
X0341977Y0018774D01*
X0342092Y0019010D01*
X0342201Y0019249D01*
X0342305Y0019490D01*
X0342402Y0019734D01*
X0342494Y0019980D01*
X0342580Y0020229D01*
X0342659Y0020479D01*
X0342733Y0020731D01*
X0342800Y0020985D01*
X0342862Y0021241D01*
X0342917Y0021497D01*
X0342966Y0021755D01*
X0343008Y0022015D01*
X0343045Y0022275D01*
X0343075Y0022536D01*
X0343099Y0022797D01*
X0343116Y0023060D01*
X0343127Y0023322D01*
X0343132Y0023585D01*
X0343130Y0023847D01*
X0343122Y0024110D01*
X0343108Y0024372D01*
X0343087Y0024634D01*
X0343088Y0024635D02*
X0343088Y0213611D01*
X0343087Y0213611D02*
X0343108Y0213873D01*
X0343122Y0214135D01*
X0343130Y0214398D01*
X0343132Y0214660D01*
X0343127Y0214923D01*
X0343116Y0215185D01*
X0343099Y0215448D01*
X0343075Y0215709D01*
X0343045Y0215970D01*
X0343008Y0216230D01*
X0342966Y0216490D01*
X0342917Y0216748D01*
X0342862Y0217004D01*
X0342800Y0217260D01*
X0342733Y0217514D01*
X0342659Y0217766D01*
X0342580Y0218016D01*
X0342494Y0218265D01*
X0342402Y0218511D01*
X0342305Y0218755D01*
X0342201Y0218996D01*
X0342092Y0219235D01*
X0341977Y0219471D01*
X0341856Y0219705D01*
X0341730Y0219935D01*
X0341598Y0220162D01*
X0341461Y0220386D01*
X0341318Y0220607D01*
X0341170Y0220824D01*
X0341017Y0221038D01*
X0340859Y0221247D01*
X0340696Y0221453D01*
X0340528Y0221655D01*
X0340355Y0221853D01*
X0340177Y0222046D01*
X0339995Y0222235D01*
X0339808Y0222420D01*
X0339616Y0222600D01*
X0339421Y0222775D01*
X0339221Y0222946D01*
X0339017Y0223112D01*
X0338809Y0223272D01*
X0338598Y0223428D01*
X0338383Y0223579D01*
X0338164Y0223724D01*
X0337941Y0223864D01*
X0337716Y0223998D01*
X0337487Y0224127D01*
X0337255Y0224251D01*
X0337020Y0224369D01*
X0336783Y0224481D01*
X0336543Y0224587D01*
X0336300Y0224688D01*
X0336055Y0224783D01*
X0335808Y0224871D01*
X0335558Y0224954D01*
X0335307Y0225031D01*
X0335054Y0225101D01*
X0334799Y0225166D01*
X0334543Y0225224D01*
X0334286Y0225276D01*
X0334027Y0225322D01*
X0333767Y0225361D01*
X0333507Y0225394D01*
X0333245Y0225421D01*
X0333246Y0225422D02*
X0018777Y0225422D01*
X0018777Y0225421D02*
X0018510Y0225400D01*
X0018243Y0225373D01*
X0017977Y0225339D01*
X0017712Y0225298D01*
X0017448Y0225252D01*
X0017185Y0225199D01*
X0016923Y0225139D01*
X0016663Y0225073D01*
X0016405Y0225001D01*
X0016148Y0224923D01*
X0015894Y0224839D01*
X0015642Y0224748D01*
X0015391Y0224651D01*
X0015144Y0224549D01*
X0014898Y0224440D01*
X0014656Y0224326D01*
X0014416Y0224205D01*
X0014180Y0224079D01*
X0013946Y0223947D01*
X0013716Y0223810D01*
X0013489Y0223667D01*
X0013265Y0223519D01*
X0013046Y0223365D01*
X0012830Y0223206D01*
X0012618Y0223042D01*
X0012410Y0222873D01*
X0012206Y0222699D01*
X0012006Y0222520D01*
X0011811Y0222336D01*
X0011620Y0222147D01*
X0011434Y0221954D01*
X0011253Y0221757D01*
X0011076Y0221555D01*
X0010904Y0221349D01*
X0010738Y0221139D01*
X0010576Y0220925D01*
X0010420Y0220707D01*
X0010269Y0220485D01*
X0010123Y0220260D01*
X0009983Y0220031D01*
X0009849Y0219799D01*
X0009720Y0219564D01*
X0009597Y0219326D01*
X0009479Y0219085D01*
X0009368Y0218841D01*
X0009262Y0218594D01*
X0009163Y0218346D01*
X0009069Y0218094D01*
X0008982Y0217841D01*
X0008900Y0217585D01*
X0008825Y0217328D01*
X0008756Y0217069D01*
X0008694Y0216808D01*
X0008638Y0216546D01*
X0008588Y0216282D01*
X0008544Y0216017D01*
X0008507Y0215752D01*
X0008476Y0215485D01*
X0008452Y0215218D01*
X0008434Y0214951D01*
X0008423Y0214683D01*
X0008418Y0214415D01*
X0008420Y0214147D01*
X0008428Y0213879D01*
X0008443Y0213611D01*
X0008442Y0213611D02*
X0008442Y0138808D01*
X0010411Y0136839D01*
X0010411Y0101406D01*
X0008442Y0099438D01*
X0008442Y0024635D01*
X0008445Y0024350D01*
X0008456Y0024064D01*
X0008473Y0023779D01*
X0008497Y0023495D01*
X0008528Y0023211D01*
X0008566Y0022928D01*
X0008611Y0022647D01*
X0008662Y0022366D01*
X0008720Y0022086D01*
X0008785Y0021808D01*
X0008857Y0021532D01*
X0008935Y0021258D01*
X0009020Y0020985D01*
X0009112Y0020715D01*
X0009210Y0020447D01*
X0009314Y0020181D01*
X0009425Y0019918D01*
X0009542Y0019658D01*
X0009665Y0019400D01*
X0009795Y0019146D01*
X0009931Y0018895D01*
X0010072Y0018647D01*
X0010220Y0018403D01*
X0010373Y0018162D01*
X0010533Y0017926D01*
X0010698Y0017693D01*
X0010868Y0017464D01*
X0011044Y0017239D01*
X0011226Y0017019D01*
X0011412Y0016803D01*
X0011604Y0016592D01*
X0011801Y0016385D01*
X0012003Y0016183D01*
X0012210Y0015986D01*
X0012421Y0015794D01*
X0012637Y0015608D01*
X0012857Y0015426D01*
X0013082Y0015250D01*
X0013311Y0015080D01*
X0013544Y0014915D01*
X0013780Y0014755D01*
X0014021Y0014602D01*
X0014265Y0014454D01*
X0014513Y0014313D01*
X0014764Y0014177D01*
X0015018Y0014047D01*
X0015276Y0013924D01*
X0015536Y0013807D01*
X0015799Y0013696D01*
X0016065Y0013592D01*
X0016333Y0013494D01*
X0016603Y0013402D01*
X0016876Y0013317D01*
X0017150Y0013239D01*
X0017426Y0013167D01*
X0017704Y0013102D01*
X0017984Y0013044D01*
X0018265Y0012993D01*
X0018546Y0012948D01*
X0018829Y0012910D01*
X0019113Y0012879D01*
X0019397Y0012855D01*
X0019682Y0012838D01*
X0019968Y0012827D01*
X0020253Y0012824D01*
X0010608Y0102784D02*
X0010608Y0135461D01*
X0104111Y0115186D02*
X0104113Y0115270D01*
X0104119Y0115353D01*
X0104129Y0115436D01*
X0104143Y0115519D01*
X0104160Y0115601D01*
X0104182Y0115682D01*
X0104207Y0115761D01*
X0104236Y0115840D01*
X0104269Y0115917D01*
X0104305Y0115992D01*
X0104345Y0116066D01*
X0104388Y0116138D01*
X0104435Y0116207D01*
X0104485Y0116274D01*
X0104538Y0116339D01*
X0104594Y0116401D01*
X0104652Y0116461D01*
X0104714Y0116518D01*
X0104778Y0116571D01*
X0104845Y0116622D01*
X0104914Y0116669D01*
X0104985Y0116714D01*
X0105058Y0116754D01*
X0105133Y0116791D01*
X0105210Y0116825D01*
X0105288Y0116855D01*
X0105367Y0116881D01*
X0105448Y0116904D01*
X0105530Y0116922D01*
X0105612Y0116937D01*
X0105695Y0116948D01*
X0105778Y0116955D01*
X0105862Y0116958D01*
X0105946Y0116957D01*
X0106029Y0116952D01*
X0106113Y0116943D01*
X0106195Y0116930D01*
X0106277Y0116914D01*
X0106358Y0116893D01*
X0106439Y0116869D01*
X0106517Y0116841D01*
X0106595Y0116809D01*
X0106671Y0116773D01*
X0106745Y0116734D01*
X0106817Y0116692D01*
X0106887Y0116646D01*
X0106955Y0116597D01*
X0107020Y0116545D01*
X0107083Y0116490D01*
X0107143Y0116432D01*
X0107201Y0116371D01*
X0107255Y0116307D01*
X0107307Y0116241D01*
X0107355Y0116173D01*
X0107400Y0116102D01*
X0107441Y0116029D01*
X0107480Y0115955D01*
X0107514Y0115879D01*
X0107545Y0115801D01*
X0107572Y0115722D01*
X0107596Y0115641D01*
X0107615Y0115560D01*
X0107631Y0115478D01*
X0107643Y0115395D01*
X0107651Y0115311D01*
X0107655Y0115228D01*
X0107655Y0115144D01*
X0107651Y0115061D01*
X0107643Y0114977D01*
X0107631Y0114894D01*
X0107615Y0114812D01*
X0107596Y0114731D01*
X0107572Y0114650D01*
X0107545Y0114571D01*
X0107514Y0114493D01*
X0107480Y0114417D01*
X0107441Y0114343D01*
X0107400Y0114270D01*
X0107355Y0114199D01*
X0107307Y0114131D01*
X0107255Y0114065D01*
X0107201Y0114001D01*
X0107143Y0113940D01*
X0107083Y0113882D01*
X0107020Y0113827D01*
X0106955Y0113775D01*
X0106887Y0113726D01*
X0106817Y0113680D01*
X0106745Y0113638D01*
X0106671Y0113599D01*
X0106595Y0113563D01*
X0106517Y0113531D01*
X0106439Y0113503D01*
X0106358Y0113479D01*
X0106277Y0113458D01*
X0106195Y0113442D01*
X0106113Y0113429D01*
X0106029Y0113420D01*
X0105946Y0113415D01*
X0105862Y0113414D01*
X0105778Y0113417D01*
X0105695Y0113424D01*
X0105612Y0113435D01*
X0105530Y0113450D01*
X0105448Y0113468D01*
X0105367Y0113491D01*
X0105288Y0113517D01*
X0105210Y0113547D01*
X0105133Y0113581D01*
X0105058Y0113618D01*
X0104985Y0113658D01*
X0104914Y0113703D01*
X0104845Y0113750D01*
X0104778Y0113801D01*
X0104714Y0113854D01*
X0104652Y0113911D01*
X0104594Y0113971D01*
X0104538Y0114033D01*
X0104485Y0114098D01*
X0104435Y0114165D01*
X0104388Y0114234D01*
X0104345Y0114306D01*
X0104305Y0114380D01*
X0104269Y0114455D01*
X0104236Y0114532D01*
X0104207Y0114611D01*
X0104182Y0114690D01*
X0104160Y0114771D01*
X0104143Y0114853D01*
X0104129Y0114936D01*
X0104119Y0115019D01*
X0104113Y0115102D01*
X0104111Y0115186D01*
X0112380Y0123847D02*
X0112382Y0123940D01*
X0112388Y0124032D01*
X0112398Y0124124D01*
X0112412Y0124215D01*
X0112429Y0124306D01*
X0112451Y0124396D01*
X0112476Y0124485D01*
X0112505Y0124573D01*
X0112538Y0124659D01*
X0112575Y0124744D01*
X0112615Y0124828D01*
X0112659Y0124909D01*
X0112706Y0124989D01*
X0112756Y0125067D01*
X0112810Y0125142D01*
X0112867Y0125215D01*
X0112927Y0125285D01*
X0112990Y0125353D01*
X0113056Y0125418D01*
X0113124Y0125480D01*
X0113195Y0125540D01*
X0113269Y0125596D01*
X0113345Y0125649D01*
X0113423Y0125698D01*
X0113503Y0125745D01*
X0113585Y0125787D01*
X0113669Y0125827D01*
X0113754Y0125862D01*
X0113841Y0125894D01*
X0113929Y0125923D01*
X0114018Y0125947D01*
X0114108Y0125968D01*
X0114199Y0125984D01*
X0114291Y0125997D01*
X0114383Y0126006D01*
X0114476Y0126011D01*
X0114568Y0126012D01*
X0114661Y0126009D01*
X0114753Y0126002D01*
X0114845Y0125991D01*
X0114936Y0125976D01*
X0115027Y0125958D01*
X0115117Y0125935D01*
X0115205Y0125909D01*
X0115293Y0125879D01*
X0115379Y0125845D01*
X0115463Y0125808D01*
X0115546Y0125766D01*
X0115627Y0125722D01*
X0115707Y0125674D01*
X0115784Y0125623D01*
X0115858Y0125568D01*
X0115931Y0125510D01*
X0116001Y0125450D01*
X0116068Y0125386D01*
X0116132Y0125320D01*
X0116194Y0125250D01*
X0116252Y0125179D01*
X0116307Y0125105D01*
X0116359Y0125028D01*
X0116408Y0124949D01*
X0116454Y0124869D01*
X0116496Y0124786D01*
X0116534Y0124702D01*
X0116569Y0124616D01*
X0116600Y0124529D01*
X0116627Y0124441D01*
X0116650Y0124351D01*
X0116670Y0124261D01*
X0116686Y0124170D01*
X0116698Y0124078D01*
X0116706Y0123986D01*
X0116710Y0123893D01*
X0116710Y0123801D01*
X0116706Y0123708D01*
X0116698Y0123616D01*
X0116686Y0123524D01*
X0116670Y0123433D01*
X0116650Y0123343D01*
X0116627Y0123253D01*
X0116600Y0123165D01*
X0116569Y0123078D01*
X0116534Y0122992D01*
X0116496Y0122908D01*
X0116454Y0122825D01*
X0116408Y0122745D01*
X0116359Y0122666D01*
X0116307Y0122589D01*
X0116252Y0122515D01*
X0116194Y0122444D01*
X0116132Y0122374D01*
X0116068Y0122308D01*
X0116001Y0122244D01*
X0115931Y0122184D01*
X0115858Y0122126D01*
X0115784Y0122071D01*
X0115707Y0122020D01*
X0115628Y0121972D01*
X0115546Y0121928D01*
X0115463Y0121886D01*
X0115379Y0121849D01*
X0115293Y0121815D01*
X0115205Y0121785D01*
X0115117Y0121759D01*
X0115027Y0121736D01*
X0114936Y0121718D01*
X0114845Y0121703D01*
X0114753Y0121692D01*
X0114661Y0121685D01*
X0114568Y0121682D01*
X0114476Y0121683D01*
X0114383Y0121688D01*
X0114291Y0121697D01*
X0114199Y0121710D01*
X0114108Y0121726D01*
X0114018Y0121747D01*
X0113929Y0121771D01*
X0113841Y0121800D01*
X0113754Y0121832D01*
X0113669Y0121867D01*
X0113585Y0121907D01*
X0113503Y0121949D01*
X0113423Y0121996D01*
X0113345Y0122045D01*
X0113269Y0122098D01*
X0113195Y0122154D01*
X0113124Y0122214D01*
X0113056Y0122276D01*
X0112990Y0122341D01*
X0112927Y0122409D01*
X0112867Y0122479D01*
X0112810Y0122552D01*
X0112756Y0122627D01*
X0112706Y0122705D01*
X0112659Y0122785D01*
X0112615Y0122866D01*
X0112575Y0122950D01*
X0112538Y0123035D01*
X0112505Y0123121D01*
X0112476Y0123209D01*
X0112451Y0123298D01*
X0112429Y0123388D01*
X0112412Y0123479D01*
X0112398Y0123570D01*
X0112388Y0123662D01*
X0112382Y0123754D01*
X0112380Y0123847D01*
X0197321Y0117824D02*
X0197331Y0118621D01*
X0197360Y0119418D01*
X0197409Y0120213D01*
X0197477Y0121008D01*
X0197565Y0121800D01*
X0197673Y0122590D01*
X0197799Y0123377D01*
X0197945Y0124161D01*
X0198110Y0124940D01*
X0198294Y0125716D01*
X0198498Y0126487D01*
X0198720Y0127252D01*
X0198960Y0128012D01*
X0199220Y0128766D01*
X0199497Y0129513D01*
X0199793Y0130254D01*
X0200107Y0130986D01*
X0200439Y0131711D01*
X0200789Y0132427D01*
X0201156Y0133135D01*
X0201541Y0133833D01*
X0201942Y0134522D01*
X0202360Y0135201D01*
X0202795Y0135869D01*
X0203246Y0136526D01*
X0203713Y0137172D01*
X0204196Y0137807D01*
X0204694Y0138429D01*
X0205207Y0139039D01*
X0205735Y0139636D01*
X0206277Y0140220D01*
X0206834Y0140791D01*
X0207405Y0141348D01*
X0207989Y0141890D01*
X0208586Y0142418D01*
X0209196Y0142931D01*
X0209818Y0143429D01*
X0210453Y0143912D01*
X0211099Y0144379D01*
X0211756Y0144830D01*
X0212424Y0145265D01*
X0213103Y0145683D01*
X0213792Y0146084D01*
X0214490Y0146469D01*
X0215198Y0146836D01*
X0215914Y0147186D01*
X0216639Y0147518D01*
X0217371Y0147832D01*
X0218112Y0148128D01*
X0218859Y0148405D01*
X0219613Y0148665D01*
X0220373Y0148905D01*
X0221138Y0149127D01*
X0221909Y0149331D01*
X0222685Y0149515D01*
X0223464Y0149680D01*
X0224248Y0149826D01*
X0225035Y0149952D01*
X0225825Y0150060D01*
X0226617Y0150148D01*
X0227412Y0150216D01*
X0228207Y0150265D01*
X0229004Y0150294D01*
X0229801Y0150304D01*
X0230598Y0150294D01*
X0231395Y0150265D01*
X0232190Y0150216D01*
X0232985Y0150148D01*
X0233777Y0150060D01*
X0234567Y0149952D01*
X0235354Y0149826D01*
X0236138Y0149680D01*
X0236917Y0149515D01*
X0237693Y0149331D01*
X0238464Y0149127D01*
X0239229Y0148905D01*
X0239989Y0148665D01*
X0240743Y0148405D01*
X0241490Y0148128D01*
X0242231Y0147832D01*
X0242963Y0147518D01*
X0243688Y0147186D01*
X0244404Y0146836D01*
X0245112Y0146469D01*
X0245810Y0146084D01*
X0246499Y0145683D01*
X0247178Y0145265D01*
X0247846Y0144830D01*
X0248503Y0144379D01*
X0249149Y0143912D01*
X0249784Y0143429D01*
X0250406Y0142931D01*
X0251016Y0142418D01*
X0251613Y0141890D01*
X0252197Y0141348D01*
X0252768Y0140791D01*
X0253325Y0140220D01*
X0253867Y0139636D01*
X0254395Y0139039D01*
X0254908Y0138429D01*
X0255406Y0137807D01*
X0255889Y0137172D01*
X0256356Y0136526D01*
X0256807Y0135869D01*
X0257242Y0135201D01*
X0257660Y0134522D01*
X0258061Y0133833D01*
X0258446Y0133135D01*
X0258813Y0132427D01*
X0259163Y0131711D01*
X0259495Y0130986D01*
X0259809Y0130254D01*
X0260105Y0129513D01*
X0260382Y0128766D01*
X0260642Y0128012D01*
X0260882Y0127252D01*
X0261104Y0126487D01*
X0261308Y0125716D01*
X0261492Y0124940D01*
X0261657Y0124161D01*
X0261803Y0123377D01*
X0261929Y0122590D01*
X0262037Y0121800D01*
X0262125Y0121008D01*
X0262193Y0120213D01*
X0262242Y0119418D01*
X0262271Y0118621D01*
X0262281Y0117824D01*
X0262271Y0117027D01*
X0262242Y0116230D01*
X0262193Y0115435D01*
X0262125Y0114640D01*
X0262037Y0113848D01*
X0261929Y0113058D01*
X0261803Y0112271D01*
X0261657Y0111487D01*
X0261492Y0110708D01*
X0261308Y0109932D01*
X0261104Y0109161D01*
X0260882Y0108396D01*
X0260642Y0107636D01*
X0260382Y0106882D01*
X0260105Y0106135D01*
X0259809Y0105394D01*
X0259495Y0104662D01*
X0259163Y0103937D01*
X0258813Y0103221D01*
X0258446Y0102513D01*
X0258061Y0101815D01*
X0257660Y0101126D01*
X0257242Y0100447D01*
X0256807Y0099779D01*
X0256356Y0099122D01*
X0255889Y0098476D01*
X0255406Y0097841D01*
X0254908Y0097219D01*
X0254395Y0096609D01*
X0253867Y0096012D01*
X0253325Y0095428D01*
X0252768Y0094857D01*
X0252197Y0094300D01*
X0251613Y0093758D01*
X0251016Y0093230D01*
X0250406Y0092717D01*
X0249784Y0092219D01*
X0249149Y0091736D01*
X0248503Y0091269D01*
X0247846Y0090818D01*
X0247178Y0090383D01*
X0246499Y0089965D01*
X0245810Y0089564D01*
X0245112Y0089179D01*
X0244404Y0088812D01*
X0243688Y0088462D01*
X0242963Y0088130D01*
X0242231Y0087816D01*
X0241490Y0087520D01*
X0240743Y0087243D01*
X0239989Y0086983D01*
X0239229Y0086743D01*
X0238464Y0086521D01*
X0237693Y0086317D01*
X0236917Y0086133D01*
X0236138Y0085968D01*
X0235354Y0085822D01*
X0234567Y0085696D01*
X0233777Y0085588D01*
X0232985Y0085500D01*
X0232190Y0085432D01*
X0231395Y0085383D01*
X0230598Y0085354D01*
X0229801Y0085344D01*
X0229004Y0085354D01*
X0228207Y0085383D01*
X0227412Y0085432D01*
X0226617Y0085500D01*
X0225825Y0085588D01*
X0225035Y0085696D01*
X0224248Y0085822D01*
X0223464Y0085968D01*
X0222685Y0086133D01*
X0221909Y0086317D01*
X0221138Y0086521D01*
X0220373Y0086743D01*
X0219613Y0086983D01*
X0218859Y0087243D01*
X0218112Y0087520D01*
X0217371Y0087816D01*
X0216639Y0088130D01*
X0215914Y0088462D01*
X0215198Y0088812D01*
X0214490Y0089179D01*
X0213792Y0089564D01*
X0213103Y0089965D01*
X0212424Y0090383D01*
X0211756Y0090818D01*
X0211099Y0091269D01*
X0210453Y0091736D01*
X0209818Y0092219D01*
X0209196Y0092717D01*
X0208586Y0093230D01*
X0207989Y0093758D01*
X0207405Y0094300D01*
X0206834Y0094857D01*
X0206277Y0095428D01*
X0205735Y0096012D01*
X0205207Y0096609D01*
X0204694Y0097219D01*
X0204196Y0097841D01*
X0203713Y0098476D01*
X0203246Y0099122D01*
X0202795Y0099779D01*
X0202360Y0100447D01*
X0201942Y0101126D01*
X0201541Y0101815D01*
X0201156Y0102513D01*
X0200789Y0103221D01*
X0200439Y0103937D01*
X0200107Y0104662D01*
X0199793Y0105394D01*
X0199497Y0106135D01*
X0199220Y0106882D01*
X0198960Y0107636D01*
X0198720Y0108396D01*
X0198498Y0109161D01*
X0198294Y0109932D01*
X0198110Y0110708D01*
X0197945Y0111487D01*
X0197799Y0112271D01*
X0197673Y0113058D01*
X0197565Y0113848D01*
X0197477Y0114640D01*
X0197409Y0115435D01*
X0197360Y0116230D01*
X0197331Y0117027D01*
X0197321Y0117824D01*
D11*
X0121051Y0117824D02*
X0121092Y0119953D01*
X0121184Y0122081D01*
X0121328Y0124206D01*
X0121523Y0126326D01*
X0121769Y0128442D01*
X0122066Y0130551D01*
X0122414Y0132652D01*
X0122813Y0134743D01*
X0123262Y0136825D01*
X0123762Y0138895D01*
X0124311Y0140953D01*
X0124910Y0142997D01*
X0125557Y0145025D01*
X0126254Y0147038D01*
X0127000Y0149033D01*
X0127793Y0151009D01*
X0128633Y0152966D01*
X0129521Y0154902D01*
X0130456Y0156815D01*
X0131436Y0158706D01*
X0132461Y0160572D01*
X0133532Y0162413D01*
X0134647Y0164228D01*
X0135805Y0166015D01*
X0137006Y0167774D01*
X0138249Y0169503D01*
X0139533Y0171202D01*
X0140859Y0172869D01*
X0142224Y0174503D01*
X0143628Y0176104D01*
X0145071Y0177671D01*
X0146551Y0179202D01*
X0148067Y0180698D01*
X0149619Y0182156D01*
X0151206Y0183576D01*
X0152827Y0184957D01*
X0154481Y0186299D01*
X0156167Y0187600D01*
X0157883Y0188861D01*
X0159630Y0190079D01*
X0161405Y0191255D01*
X0163209Y0192388D01*
X0165039Y0193477D01*
X0166895Y0194521D01*
X0168776Y0195520D01*
X0170680Y0196473D01*
X0172607Y0197380D01*
X0174555Y0198241D01*
X0176523Y0199054D01*
X0178511Y0199819D01*
X0180516Y0200536D01*
X0182538Y0201204D01*
X0184576Y0201823D01*
X0186628Y0202393D01*
X0188693Y0202913D01*
X0190770Y0203383D01*
X0192858Y0203802D01*
X0194956Y0204171D01*
X0197061Y0204489D01*
X0199174Y0204757D01*
X0201293Y0204973D01*
X0203416Y0205138D01*
X0205543Y0205251D01*
X0207671Y0205313D01*
X0209801Y0205324D01*
X0251051Y0205324D01*
X0253207Y0205313D01*
X0255362Y0205249D01*
X0257514Y0205132D01*
X0259664Y0204963D01*
X0261808Y0204742D01*
X0263946Y0204468D01*
X0266077Y0204141D01*
X0268200Y0203763D01*
X0270312Y0203333D01*
X0272414Y0202851D01*
X0274502Y0202318D01*
X0276578Y0201735D01*
X0278638Y0201100D01*
X0280682Y0200416D01*
X0282709Y0199681D01*
X0284718Y0198897D01*
X0286706Y0198065D01*
X0288674Y0197184D01*
X0290619Y0196255D01*
X0292541Y0195278D01*
X0294439Y0194256D01*
X0296311Y0193186D01*
X0298156Y0192072D01*
X0299974Y0190913D01*
X0301763Y0189709D01*
X0303521Y0188462D01*
X0305249Y0187173D01*
X0306944Y0185841D01*
X0308607Y0184469D01*
X0310235Y0183056D01*
X0311829Y0181604D01*
X0313386Y0180113D01*
X0314907Y0178585D01*
X0316389Y0177020D01*
X0317833Y0175419D01*
X0319238Y0173783D01*
X0320601Y0172114D01*
X0321924Y0170411D01*
X0323205Y0168677D01*
X0324443Y0166912D01*
X0325637Y0165117D01*
X0326787Y0163294D01*
X0327892Y0161443D01*
X0328951Y0159565D01*
X0329964Y0157662D01*
X0330931Y0155735D01*
X0331850Y0153785D01*
X0332721Y0151813D01*
X0333543Y0149820D01*
X0334317Y0147808D01*
X0335041Y0145777D01*
X0335715Y0143730D01*
X0336338Y0141666D01*
X0336912Y0139588D01*
X0337434Y0137496D01*
X0337905Y0135392D01*
X0338324Y0133278D01*
X0338691Y0131153D01*
X0339007Y0129021D01*
X0339270Y0126881D01*
X0339480Y0124735D01*
X0339638Y0122585D01*
X0339744Y0120432D01*
X0339796Y0118277D01*
X0339796Y0116121D01*
X0339744Y0113966D01*
X0339638Y0111813D01*
X0339480Y0109663D01*
X0339270Y0107517D01*
X0339007Y0105377D01*
X0338691Y0103245D01*
X0338324Y0101120D01*
X0337905Y0099006D01*
X0337434Y0096902D01*
X0336912Y0094810D01*
X0336338Y0092732D01*
X0335715Y0090668D01*
X0335041Y0088621D01*
X0334317Y0086590D01*
X0333543Y0084578D01*
X0332721Y0082585D01*
X0331850Y0080613D01*
X0330931Y0078663D01*
X0329964Y0076736D01*
X0328951Y0074833D01*
X0327892Y0072955D01*
X0326787Y0071104D01*
X0325637Y0069281D01*
X0324443Y0067486D01*
X0323205Y0065721D01*
X0321924Y0063987D01*
X0320601Y0062284D01*
X0319238Y0060615D01*
X0317833Y0058979D01*
X0316389Y0057378D01*
X0314907Y0055813D01*
X0313386Y0054285D01*
X0311829Y0052794D01*
X0310235Y0051342D01*
X0308607Y0049929D01*
X0306944Y0048557D01*
X0305249Y0047225D01*
X0303521Y0045936D01*
X0301763Y0044689D01*
X0299974Y0043485D01*
X0298156Y0042326D01*
X0296311Y0041212D01*
X0294439Y0040142D01*
X0292541Y0039120D01*
X0290619Y0038143D01*
X0288674Y0037214D01*
X0286706Y0036333D01*
X0284718Y0035501D01*
X0282709Y0034717D01*
X0280682Y0033982D01*
X0278638Y0033298D01*
X0276578Y0032663D01*
X0274502Y0032080D01*
X0272414Y0031547D01*
X0270312Y0031065D01*
X0268200Y0030635D01*
X0266077Y0030257D01*
X0263946Y0029930D01*
X0261808Y0029656D01*
X0259664Y0029435D01*
X0257514Y0029266D01*
X0255362Y0029149D01*
X0253207Y0029085D01*
X0251051Y0029074D01*
X0208551Y0029074D01*
X0206422Y0029115D01*
X0204294Y0029207D01*
X0202169Y0029351D01*
X0200049Y0029546D01*
X0197933Y0029792D01*
X0195824Y0030089D01*
X0193723Y0030437D01*
X0191632Y0030836D01*
X0189550Y0031285D01*
X0187480Y0031785D01*
X0185422Y0032334D01*
X0183378Y0032933D01*
X0181350Y0033580D01*
X0179337Y0034277D01*
X0177342Y0035023D01*
X0175366Y0035816D01*
X0173409Y0036656D01*
X0171473Y0037544D01*
X0169560Y0038479D01*
X0167669Y0039459D01*
X0165803Y0040484D01*
X0163962Y0041555D01*
X0162147Y0042670D01*
X0160360Y0043828D01*
X0158601Y0045029D01*
X0156872Y0046272D01*
X0155173Y0047556D01*
X0153506Y0048882D01*
X0151872Y0050247D01*
X0150271Y0051651D01*
X0148704Y0053094D01*
X0147173Y0054574D01*
X0145677Y0056090D01*
X0144219Y0057642D01*
X0142799Y0059229D01*
X0141418Y0060850D01*
X0140076Y0062504D01*
X0138775Y0064190D01*
X0137514Y0065906D01*
X0136296Y0067653D01*
X0135120Y0069428D01*
X0133987Y0071232D01*
X0132898Y0073062D01*
X0131854Y0074918D01*
X0130855Y0076799D01*
X0129902Y0078703D01*
X0128995Y0080630D01*
X0128134Y0082578D01*
X0127321Y0084546D01*
X0126556Y0086534D01*
X0125839Y0088539D01*
X0125171Y0090561D01*
X0124552Y0092599D01*
X0123982Y0094651D01*
X0123462Y0096716D01*
X0122992Y0098793D01*
X0122573Y0100881D01*
X0122204Y0102979D01*
X0121886Y0105084D01*
X0121618Y0107197D01*
X0121402Y0109316D01*
X0121237Y0111439D01*
X0121124Y0113566D01*
X0121062Y0115694D01*
X0121051Y0117824D01*
X0208551Y0029074D02*
X0209801Y0029074D01*
X0196336Y0117824D02*
X0196346Y0118645D01*
X0196376Y0119466D01*
X0196427Y0120286D01*
X0196497Y0121104D01*
X0196588Y0121920D01*
X0196698Y0122734D01*
X0196829Y0123545D01*
X0196979Y0124353D01*
X0197149Y0125156D01*
X0197339Y0125955D01*
X0197548Y0126750D01*
X0197777Y0127538D01*
X0198025Y0128321D01*
X0198292Y0129098D01*
X0198578Y0129868D01*
X0198883Y0130631D01*
X0199207Y0131385D01*
X0199549Y0132132D01*
X0199909Y0132870D01*
X0200288Y0133599D01*
X0200684Y0134319D01*
X0201097Y0135028D01*
X0201528Y0135728D01*
X0201976Y0136416D01*
X0202441Y0137093D01*
X0202922Y0137759D01*
X0203419Y0138413D01*
X0203932Y0139054D01*
X0204461Y0139682D01*
X0205005Y0140298D01*
X0205564Y0140899D01*
X0206138Y0141487D01*
X0206726Y0142061D01*
X0207327Y0142620D01*
X0207943Y0143164D01*
X0208571Y0143693D01*
X0209212Y0144206D01*
X0209866Y0144703D01*
X0210532Y0145184D01*
X0211209Y0145649D01*
X0211897Y0146097D01*
X0212597Y0146528D01*
X0213306Y0146941D01*
X0214026Y0147337D01*
X0214755Y0147716D01*
X0215493Y0148076D01*
X0216240Y0148418D01*
X0216994Y0148742D01*
X0217757Y0149047D01*
X0218527Y0149333D01*
X0219304Y0149600D01*
X0220087Y0149848D01*
X0220875Y0150077D01*
X0221670Y0150286D01*
X0222469Y0150476D01*
X0223272Y0150646D01*
X0224080Y0150796D01*
X0224891Y0150927D01*
X0225705Y0151037D01*
X0226521Y0151128D01*
X0227339Y0151198D01*
X0228159Y0151249D01*
X0228980Y0151279D01*
X0229801Y0151289D01*
X0230622Y0151279D01*
X0231443Y0151249D01*
X0232263Y0151198D01*
X0233081Y0151128D01*
X0233897Y0151037D01*
X0234711Y0150927D01*
X0235522Y0150796D01*
X0236330Y0150646D01*
X0237133Y0150476D01*
X0237932Y0150286D01*
X0238727Y0150077D01*
X0239515Y0149848D01*
X0240298Y0149600D01*
X0241075Y0149333D01*
X0241845Y0149047D01*
X0242608Y0148742D01*
X0243362Y0148418D01*
X0244109Y0148076D01*
X0244847Y0147716D01*
X0245576Y0147337D01*
X0246296Y0146941D01*
X0247005Y0146528D01*
X0247705Y0146097D01*
X0248393Y0145649D01*
X0249070Y0145184D01*
X0249736Y0144703D01*
X0250390Y0144206D01*
X0251031Y0143693D01*
X0251659Y0143164D01*
X0252275Y0142620D01*
X0252876Y0142061D01*
X0253464Y0141487D01*
X0254038Y0140899D01*
X0254597Y0140298D01*
X0255141Y0139682D01*
X0255670Y0139054D01*
X0256183Y0138413D01*
X0256680Y0137759D01*
X0257161Y0137093D01*
X0257626Y0136416D01*
X0258074Y0135728D01*
X0258505Y0135028D01*
X0258918Y0134319D01*
X0259314Y0133599D01*
X0259693Y0132870D01*
X0260053Y0132132D01*
X0260395Y0131385D01*
X0260719Y0130631D01*
X0261024Y0129868D01*
X0261310Y0129098D01*
X0261577Y0128321D01*
X0261825Y0127538D01*
X0262054Y0126750D01*
X0262263Y0125955D01*
X0262453Y0125156D01*
X0262623Y0124353D01*
X0262773Y0123545D01*
X0262904Y0122734D01*
X0263014Y0121920D01*
X0263105Y0121104D01*
X0263175Y0120286D01*
X0263226Y0119466D01*
X0263256Y0118645D01*
X0263266Y0117824D01*
X0263256Y0117003D01*
X0263226Y0116182D01*
X0263175Y0115362D01*
X0263105Y0114544D01*
X0263014Y0113728D01*
X0262904Y0112914D01*
X0262773Y0112103D01*
X0262623Y0111295D01*
X0262453Y0110492D01*
X0262263Y0109693D01*
X0262054Y0108898D01*
X0261825Y0108110D01*
X0261577Y0107327D01*
X0261310Y0106550D01*
X0261024Y0105780D01*
X0260719Y0105017D01*
X0260395Y0104263D01*
X0260053Y0103516D01*
X0259693Y0102778D01*
X0259314Y0102049D01*
X0258918Y0101329D01*
X0258505Y0100620D01*
X0258074Y0099920D01*
X0257626Y0099232D01*
X0257161Y0098555D01*
X0256680Y0097889D01*
X0256183Y0097235D01*
X0255670Y0096594D01*
X0255141Y0095966D01*
X0254597Y0095350D01*
X0254038Y0094749D01*
X0253464Y0094161D01*
X0252876Y0093587D01*
X0252275Y0093028D01*
X0251659Y0092484D01*
X0251031Y0091955D01*
X0250390Y0091442D01*
X0249736Y0090945D01*
X0249070Y0090464D01*
X0248393Y0089999D01*
X0247705Y0089551D01*
X0247005Y0089120D01*
X0246296Y0088707D01*
X0245576Y0088311D01*
X0244847Y0087932D01*
X0244109Y0087572D01*
X0243362Y0087230D01*
X0242608Y0086906D01*
X0241845Y0086601D01*
X0241075Y0086315D01*
X0240298Y0086048D01*
X0239515Y0085800D01*
X0238727Y0085571D01*
X0237932Y0085362D01*
X0237133Y0085172D01*
X0236330Y0085002D01*
X0235522Y0084852D01*
X0234711Y0084721D01*
X0233897Y0084611D01*
X0233081Y0084520D01*
X0232263Y0084450D01*
X0231443Y0084399D01*
X0230622Y0084369D01*
X0229801Y0084359D01*
X0228980Y0084369D01*
X0228159Y0084399D01*
X0227339Y0084450D01*
X0226521Y0084520D01*
X0225705Y0084611D01*
X0224891Y0084721D01*
X0224080Y0084852D01*
X0223272Y0085002D01*
X0222469Y0085172D01*
X0221670Y0085362D01*
X0220875Y0085571D01*
X0220087Y0085800D01*
X0219304Y0086048D01*
X0218527Y0086315D01*
X0217757Y0086601D01*
X0216994Y0086906D01*
X0216240Y0087230D01*
X0215493Y0087572D01*
X0214755Y0087932D01*
X0214026Y0088311D01*
X0213306Y0088707D01*
X0212597Y0089120D01*
X0211897Y0089551D01*
X0211209Y0089999D01*
X0210532Y0090464D01*
X0209866Y0090945D01*
X0209212Y0091442D01*
X0208571Y0091955D01*
X0207943Y0092484D01*
X0207327Y0093028D01*
X0206726Y0093587D01*
X0206138Y0094161D01*
X0205564Y0094749D01*
X0205005Y0095350D01*
X0204461Y0095966D01*
X0203932Y0096594D01*
X0203419Y0097235D01*
X0202922Y0097889D01*
X0202441Y0098555D01*
X0201976Y0099232D01*
X0201528Y0099920D01*
X0201097Y0100620D01*
X0200684Y0101329D01*
X0200288Y0102049D01*
X0199909Y0102778D01*
X0199549Y0103516D01*
X0199207Y0104263D01*
X0198883Y0105017D01*
X0198578Y0105780D01*
X0198292Y0106550D01*
X0198025Y0107327D01*
X0197777Y0108110D01*
X0197548Y0108898D01*
X0197339Y0109693D01*
X0197149Y0110492D01*
X0196979Y0111295D01*
X0196829Y0112103D01*
X0196698Y0112914D01*
X0196588Y0113728D01*
X0196497Y0114544D01*
X0196427Y0115362D01*
X0196376Y0116182D01*
X0196346Y0117003D01*
X0196336Y0117824D01*
X0030293Y0104359D02*
X0011001Y0104359D01*
X0007852Y0101406D01*
X0007852Y0101209D01*
X0007852Y0101406D02*
X0007852Y0136642D01*
X0010805Y0134083D01*
X0030293Y0134083D01*
X0030293Y0104359D01*
D12*
X0019761Y0065481D02*
X0019776Y0066689D01*
X0019820Y0067896D01*
X0019894Y0069101D01*
X0019998Y0070305D01*
X0020131Y0071505D01*
X0020294Y0072702D01*
X0020486Y0073895D01*
X0020707Y0075082D01*
X0020957Y0076264D01*
X0021236Y0077439D01*
X0021544Y0078607D01*
X0021880Y0079767D01*
X0022245Y0080918D01*
X0022638Y0082060D01*
X0023059Y0083193D01*
X0023507Y0084314D01*
X0023983Y0085424D01*
X0024486Y0086522D01*
X0025016Y0087608D01*
X0025572Y0088680D01*
X0026154Y0089738D01*
X0026763Y0090782D01*
X0027396Y0091810D01*
X0028055Y0092822D01*
X0028738Y0093818D01*
X0029446Y0094797D01*
X0030177Y0095758D01*
X0030932Y0096701D01*
X0031709Y0097626D01*
X0032510Y0098530D01*
X0033332Y0099415D01*
X0034175Y0100280D01*
X0035040Y0101123D01*
X0035925Y0101945D01*
X0036829Y0102746D01*
X0037754Y0103523D01*
X0038697Y0104278D01*
X0039658Y0105009D01*
X0040637Y0105717D01*
X0041633Y0106400D01*
X0042645Y0107059D01*
X0043673Y0107692D01*
X0044717Y0108301D01*
X0045775Y0108883D01*
X0046847Y0109439D01*
X0047933Y0109969D01*
X0049031Y0110472D01*
X0050141Y0110948D01*
X0051262Y0111396D01*
X0052395Y0111817D01*
X0053537Y0112210D01*
X0054688Y0112575D01*
X0055848Y0112911D01*
X0057016Y0113219D01*
X0058191Y0113498D01*
X0059373Y0113748D01*
X0060560Y0113969D01*
X0061753Y0114161D01*
X0062950Y0114324D01*
X0064150Y0114457D01*
X0065354Y0114561D01*
X0066559Y0114635D01*
X0067766Y0114679D01*
X0068974Y0114694D01*
X0070182Y0114679D01*
X0071389Y0114635D01*
X0072594Y0114561D01*
X0073798Y0114457D01*
X0074998Y0114324D01*
X0076195Y0114161D01*
X0077388Y0113969D01*
X0078575Y0113748D01*
X0079757Y0113498D01*
X0080932Y0113219D01*
X0082100Y0112911D01*
X0083260Y0112575D01*
X0084411Y0112210D01*
X0085553Y0111817D01*
X0086686Y0111396D01*
X0087807Y0110948D01*
X0088917Y0110472D01*
X0090015Y0109969D01*
X0091101Y0109439D01*
X0092173Y0108883D01*
X0093231Y0108301D01*
X0094275Y0107692D01*
X0095303Y0107059D01*
X0096315Y0106400D01*
X0097311Y0105717D01*
X0098290Y0105009D01*
X0099251Y0104278D01*
X0100194Y0103523D01*
X0101119Y0102746D01*
X0102023Y0101945D01*
X0102908Y0101123D01*
X0103773Y0100280D01*
X0104616Y0099415D01*
X0105438Y0098530D01*
X0106239Y0097626D01*
X0107016Y0096701D01*
X0107771Y0095758D01*
X0108502Y0094797D01*
X0109210Y0093818D01*
X0109893Y0092822D01*
X0110552Y0091810D01*
X0111185Y0090782D01*
X0111794Y0089738D01*
X0112376Y0088680D01*
X0112932Y0087608D01*
X0113462Y0086522D01*
X0113965Y0085424D01*
X0114441Y0084314D01*
X0114889Y0083193D01*
X0115310Y0082060D01*
X0115703Y0080918D01*
X0116068Y0079767D01*
X0116404Y0078607D01*
X0116712Y0077439D01*
X0116991Y0076264D01*
X0117241Y0075082D01*
X0117462Y0073895D01*
X0117654Y0072702D01*
X0117817Y0071505D01*
X0117950Y0070305D01*
X0118054Y0069101D01*
X0118128Y0067896D01*
X0118172Y0066689D01*
X0118187Y0065481D01*
X0118172Y0064273D01*
X0118128Y0063066D01*
X0118054Y0061861D01*
X0117950Y0060657D01*
X0117817Y0059457D01*
X0117654Y0058260D01*
X0117462Y0057067D01*
X0117241Y0055880D01*
X0116991Y0054698D01*
X0116712Y0053523D01*
X0116404Y0052355D01*
X0116068Y0051195D01*
X0115703Y0050044D01*
X0115310Y0048902D01*
X0114889Y0047769D01*
X0114441Y0046648D01*
X0113965Y0045538D01*
X0113462Y0044440D01*
X0112932Y0043354D01*
X0112376Y0042282D01*
X0111794Y0041224D01*
X0111185Y0040180D01*
X0110552Y0039152D01*
X0109893Y0038140D01*
X0109210Y0037144D01*
X0108502Y0036165D01*
X0107771Y0035204D01*
X0107016Y0034261D01*
X0106239Y0033336D01*
X0105438Y0032432D01*
X0104616Y0031547D01*
X0103773Y0030682D01*
X0102908Y0029839D01*
X0102023Y0029017D01*
X0101119Y0028216D01*
X0100194Y0027439D01*
X0099251Y0026684D01*
X0098290Y0025953D01*
X0097311Y0025245D01*
X0096315Y0024562D01*
X0095303Y0023903D01*
X0094275Y0023270D01*
X0093231Y0022661D01*
X0092173Y0022079D01*
X0091101Y0021523D01*
X0090015Y0020993D01*
X0088917Y0020490D01*
X0087807Y0020014D01*
X0086686Y0019566D01*
X0085553Y0019145D01*
X0084411Y0018752D01*
X0083260Y0018387D01*
X0082100Y0018051D01*
X0080932Y0017743D01*
X0079757Y0017464D01*
X0078575Y0017214D01*
X0077388Y0016993D01*
X0076195Y0016801D01*
X0074998Y0016638D01*
X0073798Y0016505D01*
X0072594Y0016401D01*
X0071389Y0016327D01*
X0070182Y0016283D01*
X0068974Y0016268D01*
X0067766Y0016283D01*
X0066559Y0016327D01*
X0065354Y0016401D01*
X0064150Y0016505D01*
X0062950Y0016638D01*
X0061753Y0016801D01*
X0060560Y0016993D01*
X0059373Y0017214D01*
X0058191Y0017464D01*
X0057016Y0017743D01*
X0055848Y0018051D01*
X0054688Y0018387D01*
X0053537Y0018752D01*
X0052395Y0019145D01*
X0051262Y0019566D01*
X0050141Y0020014D01*
X0049031Y0020490D01*
X0047933Y0020993D01*
X0046847Y0021523D01*
X0045775Y0022079D01*
X0044717Y0022661D01*
X0043673Y0023270D01*
X0042645Y0023903D01*
X0041633Y0024562D01*
X0040637Y0025245D01*
X0039658Y0025953D01*
X0038697Y0026684D01*
X0037754Y0027439D01*
X0036829Y0028216D01*
X0035925Y0029017D01*
X0035040Y0029839D01*
X0034175Y0030682D01*
X0033332Y0031547D01*
X0032510Y0032432D01*
X0031709Y0033336D01*
X0030932Y0034261D01*
X0030177Y0035204D01*
X0029446Y0036165D01*
X0028738Y0037144D01*
X0028055Y0038140D01*
X0027396Y0039152D01*
X0026763Y0040180D01*
X0026154Y0041224D01*
X0025572Y0042282D01*
X0025016Y0043354D01*
X0024486Y0044440D01*
X0023983Y0045538D01*
X0023507Y0046648D01*
X0023059Y0047769D01*
X0022638Y0048902D01*
X0022245Y0050044D01*
X0021880Y0051195D01*
X0021544Y0052355D01*
X0021236Y0053523D01*
X0020957Y0054698D01*
X0020707Y0055880D01*
X0020486Y0057067D01*
X0020294Y0058260D01*
X0020131Y0059457D01*
X0019998Y0060657D01*
X0019894Y0061861D01*
X0019820Y0063066D01*
X0019776Y0064273D01*
X0019761Y0065481D01*
X0019269Y0171288D02*
X0019284Y0172496D01*
X0019328Y0173703D01*
X0019402Y0174908D01*
X0019506Y0176112D01*
X0019639Y0177312D01*
X0019802Y0178509D01*
X0019994Y0179702D01*
X0020215Y0180889D01*
X0020465Y0182071D01*
X0020744Y0183246D01*
X0021052Y0184414D01*
X0021388Y0185574D01*
X0021753Y0186725D01*
X0022146Y0187867D01*
X0022567Y0189000D01*
X0023015Y0190121D01*
X0023491Y0191231D01*
X0023994Y0192329D01*
X0024524Y0193415D01*
X0025080Y0194487D01*
X0025662Y0195545D01*
X0026271Y0196589D01*
X0026904Y0197617D01*
X0027563Y0198629D01*
X0028246Y0199625D01*
X0028954Y0200604D01*
X0029685Y0201565D01*
X0030440Y0202508D01*
X0031217Y0203433D01*
X0032018Y0204337D01*
X0032840Y0205222D01*
X0033683Y0206087D01*
X0034548Y0206930D01*
X0035433Y0207752D01*
X0036337Y0208553D01*
X0037262Y0209330D01*
X0038205Y0210085D01*
X0039166Y0210816D01*
X0040145Y0211524D01*
X0041141Y0212207D01*
X0042153Y0212866D01*
X0043181Y0213499D01*
X0044225Y0214108D01*
X0045283Y0214690D01*
X0046355Y0215246D01*
X0047441Y0215776D01*
X0048539Y0216279D01*
X0049649Y0216755D01*
X0050770Y0217203D01*
X0051903Y0217624D01*
X0053045Y0218017D01*
X0054196Y0218382D01*
X0055356Y0218718D01*
X0056524Y0219026D01*
X0057699Y0219305D01*
X0058881Y0219555D01*
X0060068Y0219776D01*
X0061261Y0219968D01*
X0062458Y0220131D01*
X0063658Y0220264D01*
X0064862Y0220368D01*
X0066067Y0220442D01*
X0067274Y0220486D01*
X0068482Y0220501D01*
X0069690Y0220486D01*
X0070897Y0220442D01*
X0072102Y0220368D01*
X0073306Y0220264D01*
X0074506Y0220131D01*
X0075703Y0219968D01*
X0076896Y0219776D01*
X0078083Y0219555D01*
X0079265Y0219305D01*
X0080440Y0219026D01*
X0081608Y0218718D01*
X0082768Y0218382D01*
X0083919Y0218017D01*
X0085061Y0217624D01*
X0086194Y0217203D01*
X0087315Y0216755D01*
X0088425Y0216279D01*
X0089523Y0215776D01*
X0090609Y0215246D01*
X0091681Y0214690D01*
X0092739Y0214108D01*
X0093783Y0213499D01*
X0094811Y0212866D01*
X0095823Y0212207D01*
X0096819Y0211524D01*
X0097798Y0210816D01*
X0098759Y0210085D01*
X0099702Y0209330D01*
X0100627Y0208553D01*
X0101531Y0207752D01*
X0102416Y0206930D01*
X0103281Y0206087D01*
X0104124Y0205222D01*
X0104946Y0204337D01*
X0105747Y0203433D01*
X0106524Y0202508D01*
X0107279Y0201565D01*
X0108010Y0200604D01*
X0108718Y0199625D01*
X0109401Y0198629D01*
X0110060Y0197617D01*
X0110693Y0196589D01*
X0111302Y0195545D01*
X0111884Y0194487D01*
X0112440Y0193415D01*
X0112970Y0192329D01*
X0113473Y0191231D01*
X0113949Y0190121D01*
X0114397Y0189000D01*
X0114818Y0187867D01*
X0115211Y0186725D01*
X0115576Y0185574D01*
X0115912Y0184414D01*
X0116220Y0183246D01*
X0116499Y0182071D01*
X0116749Y0180889D01*
X0116970Y0179702D01*
X0117162Y0178509D01*
X0117325Y0177312D01*
X0117458Y0176112D01*
X0117562Y0174908D01*
X0117636Y0173703D01*
X0117680Y0172496D01*
X0117695Y0171288D01*
X0117680Y0170080D01*
X0117636Y0168873D01*
X0117562Y0167668D01*
X0117458Y0166464D01*
X0117325Y0165264D01*
X0117162Y0164067D01*
X0116970Y0162874D01*
X0116749Y0161687D01*
X0116499Y0160505D01*
X0116220Y0159330D01*
X0115912Y0158162D01*
X0115576Y0157002D01*
X0115211Y0155851D01*
X0114818Y0154709D01*
X0114397Y0153576D01*
X0113949Y0152455D01*
X0113473Y0151345D01*
X0112970Y0150247D01*
X0112440Y0149161D01*
X0111884Y0148089D01*
X0111302Y0147031D01*
X0110693Y0145987D01*
X0110060Y0144959D01*
X0109401Y0143947D01*
X0108718Y0142951D01*
X0108010Y0141972D01*
X0107279Y0141011D01*
X0106524Y0140068D01*
X0105747Y0139143D01*
X0104946Y0138239D01*
X0104124Y0137354D01*
X0103281Y0136489D01*
X0102416Y0135646D01*
X0101531Y0134824D01*
X0100627Y0134023D01*
X0099702Y0133246D01*
X0098759Y0132491D01*
X0097798Y0131760D01*
X0096819Y0131052D01*
X0095823Y0130369D01*
X0094811Y0129710D01*
X0093783Y0129077D01*
X0092739Y0128468D01*
X0091681Y0127886D01*
X0090609Y0127330D01*
X0089523Y0126800D01*
X0088425Y0126297D01*
X0087315Y0125821D01*
X0086194Y0125373D01*
X0085061Y0124952D01*
X0083919Y0124559D01*
X0082768Y0124194D01*
X0081608Y0123858D01*
X0080440Y0123550D01*
X0079265Y0123271D01*
X0078083Y0123021D01*
X0076896Y0122800D01*
X0075703Y0122608D01*
X0074506Y0122445D01*
X0073306Y0122312D01*
X0072102Y0122208D01*
X0070897Y0122134D01*
X0069690Y0122090D01*
X0068482Y0122075D01*
X0067274Y0122090D01*
X0066067Y0122134D01*
X0064862Y0122208D01*
X0063658Y0122312D01*
X0062458Y0122445D01*
X0061261Y0122608D01*
X0060068Y0122800D01*
X0058881Y0123021D01*
X0057699Y0123271D01*
X0056524Y0123550D01*
X0055356Y0123858D01*
X0054196Y0124194D01*
X0053045Y0124559D01*
X0051903Y0124952D01*
X0050770Y0125373D01*
X0049649Y0125821D01*
X0048539Y0126297D01*
X0047441Y0126800D01*
X0046355Y0127330D01*
X0045283Y0127886D01*
X0044225Y0128468D01*
X0043181Y0129077D01*
X0042153Y0129710D01*
X0041141Y0130369D01*
X0040145Y0131052D01*
X0039166Y0131760D01*
X0038205Y0132491D01*
X0037262Y0133246D01*
X0036337Y0134023D01*
X0035433Y0134824D01*
X0034548Y0135646D01*
X0033683Y0136489D01*
X0032840Y0137354D01*
X0032018Y0138239D01*
X0031217Y0139143D01*
X0030440Y0140068D01*
X0029685Y0141011D01*
X0028954Y0141972D01*
X0028246Y0142951D01*
X0027563Y0143947D01*
X0026904Y0144959D01*
X0026271Y0145987D01*
X0025662Y0147031D01*
X0025080Y0148089D01*
X0024524Y0149161D01*
X0023994Y0150247D01*
X0023491Y0151345D01*
X0023015Y0152455D01*
X0022567Y0153576D01*
X0022146Y0154709D01*
X0021753Y0155851D01*
X0021388Y0157002D01*
X0021052Y0158162D01*
X0020744Y0159330D01*
X0020465Y0160505D01*
X0020215Y0161687D01*
X0019994Y0162874D01*
X0019802Y0164067D01*
X0019639Y0165264D01*
X0019506Y0166464D01*
X0019402Y0167668D01*
X0019328Y0168873D01*
X0019284Y0170080D01*
X0019269Y0171288D01*
D13*
X0042202Y0118040D02*
X0044564Y0118040D01*
X0044564Y0113316D02*
X0042202Y0113316D01*
X0124659Y0125788D02*
X0124659Y0129190D01*
X0127462Y0129190D02*
X0127462Y0125788D01*
X0133911Y0121889D02*
X0136911Y0121889D01*
X0136911Y0133289D01*
X0133911Y0133289D01*
X0133911Y0121889D01*
X0131990Y0118525D02*
X0128990Y0118525D01*
X0128990Y0107125D01*
X0131990Y0107125D01*
X0131990Y0118525D01*
X0146312Y0127757D02*
X0146312Y0131158D01*
X0149116Y0131158D02*
X0149116Y0127757D01*
X0149053Y0159743D02*
X0149053Y0162971D01*
X0144053Y0162971D02*
X0144053Y0159743D01*
X0140257Y0166635D02*
X0140257Y0170036D01*
X0137454Y0170036D02*
X0137454Y0166635D01*
X0133860Y0166635D02*
X0133860Y0170036D01*
X0131057Y0170036D02*
X0131057Y0166635D01*
X0161309Y0167587D02*
X0161309Y0161209D01*
X0161679Y0161209D01*
X0161309Y0161209D02*
X0172505Y0161209D01*
X0172135Y0161209D01*
X0172505Y0161209D02*
X0172505Y0167587D01*
X0172135Y0167587D01*
X0172505Y0167587D02*
X0161309Y0167587D01*
X0161679Y0167587D01*
X0164852Y0167587D02*
X0165222Y0167587D01*
X0168592Y0167587D02*
X0168962Y0167587D01*
X0168962Y0161209D02*
X0164852Y0161209D01*
X0128938Y0188780D02*
X0128938Y0192182D01*
X0126135Y0192182D02*
X0126135Y0188780D01*
X0227301Y0201928D02*
X0227301Y0205156D01*
X0232301Y0205156D02*
X0232301Y0201928D01*
X0332616Y0119654D02*
X0335844Y0119654D01*
X0335844Y0114654D02*
X0332616Y0114654D01*
X0232301Y0032469D02*
X0232301Y0029241D01*
X0227301Y0029241D02*
X0227301Y0032469D01*
X0162702Y0064572D02*
X0159301Y0064572D01*
X0159301Y0067375D02*
X0162702Y0067375D01*
X0151875Y0071461D02*
X0148474Y0071461D01*
X0148474Y0074265D02*
X0151875Y0074265D01*
D14*
X0163167Y0159772D03*
X0170647Y0159772D03*
X0170647Y0169024D03*
X0166907Y0169024D03*
X0163167Y0169024D03*
D15*
X0158141Y0170420D02*
X0158141Y0171821D01*
X0157440Y0172522D01*
X0158141Y0174324D02*
X0155338Y0177126D01*
X0154638Y0177126D01*
X0153937Y0176425D01*
X0153937Y0175024D01*
X0154638Y0174324D01*
X0154638Y0172522D02*
X0153937Y0171821D01*
X0153937Y0170420D01*
X0154638Y0169720D01*
X0157440Y0169720D01*
X0158141Y0170420D01*
X0158141Y0174324D02*
X0158141Y0177126D01*
X0161546Y0177663D02*
X0162947Y0177663D01*
X0162246Y0177663D02*
X0162246Y0173460D01*
X0161546Y0173460D02*
X0162947Y0173460D01*
X0164615Y0174160D02*
X0165315Y0173460D01*
X0166717Y0173460D01*
X0167417Y0174160D01*
X0169219Y0173460D02*
X0172021Y0173460D01*
X0170620Y0173460D02*
X0170620Y0177663D01*
X0169219Y0176262D01*
X0167417Y0176963D02*
X0166717Y0177663D01*
X0165315Y0177663D01*
X0164615Y0176963D01*
X0164615Y0174160D01*
X0154420Y0184416D02*
X0154495Y0184461D01*
X0154567Y0184509D01*
X0154638Y0184561D01*
X0154705Y0184616D01*
X0154771Y0184673D01*
X0154833Y0184734D01*
X0154893Y0184797D01*
X0154951Y0184863D01*
X0155005Y0184931D01*
X0155056Y0185002D01*
X0155104Y0185074D01*
X0155148Y0185149D01*
X0155190Y0185226D01*
X0155228Y0185304D01*
X0155262Y0185384D01*
X0155293Y0185466D01*
X0155320Y0185549D01*
X0155343Y0185632D01*
X0155363Y0185717D01*
X0155379Y0185803D01*
X0155391Y0185889D01*
X0155400Y0185976D01*
X0155404Y0186063D01*
X0155405Y0186150D01*
X0155402Y0186237D01*
X0155395Y0186324D01*
X0155384Y0186410D01*
X0155369Y0186496D01*
X0155350Y0186581D01*
X0155328Y0186666D01*
X0155302Y0186749D01*
X0155273Y0186831D01*
X0155239Y0186911D01*
X0155203Y0186990D01*
X0155163Y0187068D01*
X0155119Y0187143D01*
X0155072Y0187216D01*
X0155022Y0187288D01*
X0154969Y0187357D01*
X0154913Y0187423D01*
X0154854Y0187487D01*
X0154792Y0187549D01*
X0154727Y0187607D01*
X0154660Y0187663D01*
X0154591Y0187716D01*
X0154519Y0187765D01*
X0154446Y0187811D01*
X0154370Y0187854D01*
X0154292Y0187894D01*
X0154213Y0187930D01*
X0154132Y0187963D01*
X0154050Y0187992D01*
X0153967Y0188017D01*
X0153882Y0188039D01*
X0153797Y0188057D01*
X0153711Y0188071D01*
X0153624Y0188081D01*
X0153538Y0188087D01*
X0153451Y0188090D01*
X0153363Y0188089D01*
X0153276Y0188084D01*
X0153190Y0188075D01*
X0153104Y0188062D01*
X0153018Y0188045D01*
X0152933Y0188025D01*
X0152850Y0188001D01*
X0152767Y0187973D01*
X0152686Y0187942D01*
X0152606Y0187907D01*
X0152528Y0187868D01*
X0152452Y0187826D01*
X0149105Y0189334D02*
X0149362Y0190291D01*
X0147961Y0192718D01*
X0147004Y0192974D01*
X0145183Y0191923D01*
X0147285Y0188283D01*
X0149105Y0189334D01*
X0150221Y0192405D02*
X0152648Y0193806D01*
X0153093Y0191636D02*
X0150991Y0195276D01*
X0150221Y0192405D01*
X0143623Y0191023D02*
X0141196Y0189622D01*
X0143298Y0185981D01*
X0145725Y0187382D01*
X0143461Y0188502D02*
X0142247Y0187801D01*
X0141738Y0185080D02*
X0139311Y0183679D01*
X0137209Y0187320D01*
X0135464Y0186754D02*
X0134062Y0185353D01*
X0134062Y0186054D02*
X0134062Y0183952D01*
X0135464Y0183952D02*
X0131260Y0183952D01*
X0131260Y0186054D01*
X0131961Y0186754D01*
X0133362Y0186754D01*
X0134062Y0186054D01*
X0132661Y0188556D02*
X0131260Y0189957D01*
X0135464Y0189957D01*
X0135464Y0188556D02*
X0135464Y0191358D01*
X0135464Y0193160D02*
X0135464Y0195962D01*
X0135464Y0194561D02*
X0131260Y0194561D01*
X0132661Y0193160D01*
X0154771Y0207810D02*
X0154771Y0212014D01*
X0153370Y0212014D02*
X0156172Y0212014D01*
X0157974Y0212014D02*
X0157974Y0207810D01*
X0160776Y0207810D01*
X0162578Y0208511D02*
X0163278Y0207810D01*
X0164680Y0207810D01*
X0165380Y0208511D01*
X0165380Y0209211D01*
X0164680Y0209912D01*
X0163278Y0209912D01*
X0162578Y0210613D01*
X0162578Y0211313D01*
X0163278Y0212014D01*
X0164680Y0212014D01*
X0165380Y0211313D01*
X0167182Y0212014D02*
X0169984Y0212014D01*
X0168583Y0212014D02*
X0168583Y0207810D01*
X0160776Y0212014D02*
X0157974Y0212014D01*
X0157974Y0209912D02*
X0159375Y0209912D01*
X0180023Y0210153D02*
X0182826Y0210153D01*
X0184627Y0210153D02*
X0187430Y0210153D01*
X0189231Y0210153D02*
X0189231Y0214356D01*
X0191333Y0214356D01*
X0192034Y0213656D01*
X0192034Y0210853D01*
X0191333Y0210153D01*
X0189231Y0210153D01*
X0186029Y0212255D02*
X0184627Y0212255D01*
X0184627Y0214356D02*
X0184627Y0210153D01*
X0184627Y0214356D02*
X0187430Y0214356D01*
X0193835Y0213656D02*
X0194536Y0214356D01*
X0195937Y0214356D01*
X0196638Y0213656D01*
X0196638Y0212955D01*
X0195937Y0212255D01*
X0196638Y0211554D01*
X0196638Y0210853D01*
X0195937Y0210153D01*
X0194536Y0210153D01*
X0193835Y0210853D01*
X0195236Y0212255D02*
X0195937Y0212255D01*
X0193895Y0207293D02*
X0193982Y0207291D01*
X0194069Y0207285D01*
X0194156Y0207276D01*
X0194242Y0207262D01*
X0194327Y0207245D01*
X0194412Y0207224D01*
X0194495Y0207199D01*
X0194578Y0207171D01*
X0194659Y0207139D01*
X0194738Y0207103D01*
X0194816Y0207064D01*
X0194892Y0207022D01*
X0194966Y0206976D01*
X0195038Y0206927D01*
X0195108Y0206875D01*
X0195175Y0206820D01*
X0195240Y0206762D01*
X0195303Y0206701D01*
X0195362Y0206637D01*
X0195419Y0206571D01*
X0195472Y0206502D01*
X0195523Y0206431D01*
X0195570Y0206358D01*
X0195615Y0206283D01*
X0195655Y0206206D01*
X0195693Y0206128D01*
X0195726Y0206047D01*
X0195757Y0205966D01*
X0195783Y0205883D01*
X0195806Y0205798D01*
X0195825Y0205713D01*
X0195840Y0205628D01*
X0195852Y0205541D01*
X0195860Y0205455D01*
X0195864Y0205368D01*
X0195864Y0205280D01*
X0195860Y0205193D01*
X0195852Y0205107D01*
X0195840Y0205020D01*
X0195825Y0204935D01*
X0195806Y0204850D01*
X0195783Y0204765D01*
X0195757Y0204682D01*
X0195726Y0204601D01*
X0195693Y0204520D01*
X0195655Y0204442D01*
X0195615Y0204365D01*
X0195570Y0204290D01*
X0195523Y0204217D01*
X0195472Y0204146D01*
X0195419Y0204077D01*
X0195362Y0204011D01*
X0195303Y0203947D01*
X0195240Y0203886D01*
X0195175Y0203828D01*
X0195108Y0203773D01*
X0195038Y0203721D01*
X0194966Y0203672D01*
X0194892Y0203626D01*
X0194816Y0203584D01*
X0194738Y0203545D01*
X0194659Y0203509D01*
X0194578Y0203477D01*
X0194495Y0203449D01*
X0194412Y0203424D01*
X0194327Y0203403D01*
X0194242Y0203386D01*
X0194156Y0203372D01*
X0194069Y0203363D01*
X0193982Y0203357D01*
X0193895Y0203355D01*
X0205706Y0203355D02*
X0205619Y0203357D01*
X0205532Y0203363D01*
X0205445Y0203372D01*
X0205359Y0203386D01*
X0205274Y0203403D01*
X0205189Y0203424D01*
X0205106Y0203449D01*
X0205023Y0203477D01*
X0204942Y0203509D01*
X0204863Y0203545D01*
X0204785Y0203584D01*
X0204709Y0203626D01*
X0204635Y0203672D01*
X0204563Y0203721D01*
X0204493Y0203773D01*
X0204426Y0203828D01*
X0204361Y0203886D01*
X0204298Y0203947D01*
X0204239Y0204011D01*
X0204182Y0204077D01*
X0204129Y0204146D01*
X0204078Y0204217D01*
X0204031Y0204290D01*
X0203986Y0204365D01*
X0203946Y0204442D01*
X0203908Y0204520D01*
X0203875Y0204601D01*
X0203844Y0204682D01*
X0203818Y0204765D01*
X0203795Y0204850D01*
X0203776Y0204935D01*
X0203761Y0205020D01*
X0203749Y0205107D01*
X0203741Y0205193D01*
X0203737Y0205280D01*
X0203737Y0205368D01*
X0203741Y0205455D01*
X0203749Y0205541D01*
X0203761Y0205628D01*
X0203776Y0205713D01*
X0203795Y0205798D01*
X0203818Y0205883D01*
X0203844Y0205966D01*
X0203875Y0206047D01*
X0203908Y0206128D01*
X0203946Y0206206D01*
X0203986Y0206283D01*
X0204031Y0206358D01*
X0204078Y0206431D01*
X0204129Y0206502D01*
X0204182Y0206571D01*
X0204239Y0206637D01*
X0204298Y0206701D01*
X0204361Y0206762D01*
X0204426Y0206820D01*
X0204493Y0206875D01*
X0204563Y0206927D01*
X0204635Y0206976D01*
X0204709Y0207022D01*
X0204785Y0207064D01*
X0204863Y0207103D01*
X0204942Y0207139D01*
X0205023Y0207171D01*
X0205106Y0207199D01*
X0205189Y0207224D01*
X0205274Y0207245D01*
X0205359Y0207262D01*
X0205445Y0207276D01*
X0205532Y0207285D01*
X0205619Y0207291D01*
X0205706Y0207293D01*
X0227041Y0212023D02*
X0227041Y0216226D01*
X0229143Y0216226D01*
X0229844Y0215526D01*
X0229844Y0214125D01*
X0229143Y0213424D01*
X0227041Y0213424D01*
X0228442Y0213424D02*
X0229844Y0212023D01*
X0231645Y0212023D02*
X0234447Y0214825D01*
X0234447Y0215526D01*
X0233747Y0216226D01*
X0232346Y0216226D01*
X0231645Y0215526D01*
X0231645Y0212023D02*
X0234447Y0212023D01*
X0253895Y0207293D02*
X0253982Y0207291D01*
X0254069Y0207285D01*
X0254156Y0207276D01*
X0254242Y0207262D01*
X0254327Y0207245D01*
X0254412Y0207224D01*
X0254495Y0207199D01*
X0254578Y0207171D01*
X0254659Y0207139D01*
X0254738Y0207103D01*
X0254816Y0207064D01*
X0254892Y0207022D01*
X0254966Y0206976D01*
X0255038Y0206927D01*
X0255108Y0206875D01*
X0255175Y0206820D01*
X0255240Y0206762D01*
X0255303Y0206701D01*
X0255362Y0206637D01*
X0255419Y0206571D01*
X0255472Y0206502D01*
X0255523Y0206431D01*
X0255570Y0206358D01*
X0255615Y0206283D01*
X0255655Y0206206D01*
X0255693Y0206128D01*
X0255726Y0206047D01*
X0255757Y0205966D01*
X0255783Y0205883D01*
X0255806Y0205798D01*
X0255825Y0205713D01*
X0255840Y0205628D01*
X0255852Y0205541D01*
X0255860Y0205455D01*
X0255864Y0205368D01*
X0255864Y0205280D01*
X0255860Y0205193D01*
X0255852Y0205107D01*
X0255840Y0205020D01*
X0255825Y0204935D01*
X0255806Y0204850D01*
X0255783Y0204765D01*
X0255757Y0204682D01*
X0255726Y0204601D01*
X0255693Y0204520D01*
X0255655Y0204442D01*
X0255615Y0204365D01*
X0255570Y0204290D01*
X0255523Y0204217D01*
X0255472Y0204146D01*
X0255419Y0204077D01*
X0255362Y0204011D01*
X0255303Y0203947D01*
X0255240Y0203886D01*
X0255175Y0203828D01*
X0255108Y0203773D01*
X0255038Y0203721D01*
X0254966Y0203672D01*
X0254892Y0203626D01*
X0254816Y0203584D01*
X0254738Y0203545D01*
X0254659Y0203509D01*
X0254578Y0203477D01*
X0254495Y0203449D01*
X0254412Y0203424D01*
X0254327Y0203403D01*
X0254242Y0203386D01*
X0254156Y0203372D01*
X0254069Y0203363D01*
X0253982Y0203357D01*
X0253895Y0203355D01*
X0265706Y0203355D02*
X0265619Y0203357D01*
X0265532Y0203363D01*
X0265445Y0203372D01*
X0265359Y0203386D01*
X0265274Y0203403D01*
X0265189Y0203424D01*
X0265106Y0203449D01*
X0265023Y0203477D01*
X0264942Y0203509D01*
X0264863Y0203545D01*
X0264785Y0203584D01*
X0264709Y0203626D01*
X0264635Y0203672D01*
X0264563Y0203721D01*
X0264493Y0203773D01*
X0264426Y0203828D01*
X0264361Y0203886D01*
X0264298Y0203947D01*
X0264239Y0204011D01*
X0264182Y0204077D01*
X0264129Y0204146D01*
X0264078Y0204217D01*
X0264031Y0204290D01*
X0263986Y0204365D01*
X0263946Y0204442D01*
X0263908Y0204520D01*
X0263875Y0204601D01*
X0263844Y0204682D01*
X0263818Y0204765D01*
X0263795Y0204850D01*
X0263776Y0204935D01*
X0263761Y0205020D01*
X0263749Y0205107D01*
X0263741Y0205193D01*
X0263737Y0205280D01*
X0263737Y0205368D01*
X0263741Y0205455D01*
X0263749Y0205541D01*
X0263761Y0205628D01*
X0263776Y0205713D01*
X0263795Y0205798D01*
X0263818Y0205883D01*
X0263844Y0205966D01*
X0263875Y0206047D01*
X0263908Y0206128D01*
X0263946Y0206206D01*
X0263986Y0206283D01*
X0264031Y0206358D01*
X0264078Y0206431D01*
X0264129Y0206502D01*
X0264182Y0206571D01*
X0264239Y0206637D01*
X0264298Y0206701D01*
X0264361Y0206762D01*
X0264426Y0206820D01*
X0264493Y0206875D01*
X0264563Y0206927D01*
X0264635Y0206976D01*
X0264709Y0207022D01*
X0264785Y0207064D01*
X0264863Y0207103D01*
X0264942Y0207139D01*
X0265023Y0207171D01*
X0265106Y0207199D01*
X0265189Y0207224D01*
X0265274Y0207245D01*
X0265359Y0207262D01*
X0265445Y0207276D01*
X0265532Y0207285D01*
X0265619Y0207291D01*
X0265706Y0207293D01*
X0266192Y0210980D02*
X0263390Y0210980D01*
X0263390Y0215183D01*
X0267994Y0215183D02*
X0267994Y0210980D01*
X0270796Y0210980D01*
X0272597Y0210980D02*
X0274699Y0210980D01*
X0275400Y0211680D01*
X0275400Y0214482D01*
X0274699Y0215183D01*
X0272597Y0215183D01*
X0272597Y0210980D01*
X0269395Y0213081D02*
X0267994Y0213081D01*
X0267994Y0215183D02*
X0270796Y0215183D01*
X0277201Y0214482D02*
X0277902Y0215183D01*
X0279303Y0215183D01*
X0280004Y0214482D01*
X0280004Y0213782D01*
X0277201Y0210980D01*
X0280004Y0210980D01*
X0298170Y0193731D02*
X0298245Y0193686D01*
X0298317Y0193638D01*
X0298388Y0193586D01*
X0298455Y0193531D01*
X0298521Y0193474D01*
X0298583Y0193413D01*
X0298643Y0193350D01*
X0298701Y0193284D01*
X0298755Y0193216D01*
X0298806Y0193145D01*
X0298854Y0193073D01*
X0298898Y0192998D01*
X0298940Y0192921D01*
X0298978Y0192843D01*
X0299012Y0192763D01*
X0299043Y0192681D01*
X0299070Y0192598D01*
X0299093Y0192515D01*
X0299113Y0192430D01*
X0299129Y0192344D01*
X0299141Y0192258D01*
X0299150Y0192171D01*
X0299154Y0192084D01*
X0299155Y0191997D01*
X0299152Y0191910D01*
X0299145Y0191823D01*
X0299134Y0191737D01*
X0299119Y0191651D01*
X0299100Y0191566D01*
X0299078Y0191481D01*
X0299052Y0191398D01*
X0299023Y0191316D01*
X0298989Y0191236D01*
X0298953Y0191157D01*
X0298913Y0191079D01*
X0298869Y0191004D01*
X0298822Y0190931D01*
X0298772Y0190859D01*
X0298719Y0190790D01*
X0298663Y0190724D01*
X0298604Y0190660D01*
X0298542Y0190598D01*
X0298477Y0190540D01*
X0298410Y0190484D01*
X0298341Y0190431D01*
X0298269Y0190382D01*
X0298196Y0190336D01*
X0298120Y0190293D01*
X0298042Y0190253D01*
X0297963Y0190217D01*
X0297882Y0190184D01*
X0297800Y0190155D01*
X0297717Y0190130D01*
X0297632Y0190108D01*
X0297547Y0190090D01*
X0297461Y0190076D01*
X0297374Y0190066D01*
X0297288Y0190060D01*
X0297201Y0190057D01*
X0297113Y0190058D01*
X0297026Y0190063D01*
X0296940Y0190072D01*
X0296854Y0190085D01*
X0296768Y0190102D01*
X0296683Y0190122D01*
X0296600Y0190146D01*
X0296517Y0190174D01*
X0296436Y0190205D01*
X0296356Y0190240D01*
X0296278Y0190279D01*
X0296202Y0190321D01*
X0305753Y0192657D02*
X0308180Y0191255D01*
X0309740Y0190355D02*
X0312167Y0188954D01*
X0313727Y0188053D02*
X0315547Y0187002D01*
X0316504Y0187258D01*
X0317906Y0189685D01*
X0317649Y0190642D01*
X0315829Y0191693D01*
X0313727Y0188053D01*
X0309740Y0190355D02*
X0311842Y0193995D01*
X0314269Y0192594D01*
X0312004Y0191474D02*
X0310791Y0192175D01*
X0307855Y0196297D02*
X0305753Y0192657D01*
X0308399Y0187826D02*
X0308323Y0187868D01*
X0308245Y0187907D01*
X0308165Y0187942D01*
X0308084Y0187973D01*
X0308001Y0188001D01*
X0307918Y0188025D01*
X0307833Y0188045D01*
X0307747Y0188062D01*
X0307661Y0188075D01*
X0307575Y0188084D01*
X0307488Y0188089D01*
X0307400Y0188090D01*
X0307313Y0188087D01*
X0307227Y0188081D01*
X0307140Y0188071D01*
X0307054Y0188057D01*
X0306969Y0188039D01*
X0306884Y0188017D01*
X0306801Y0187992D01*
X0306719Y0187963D01*
X0306638Y0187930D01*
X0306559Y0187894D01*
X0306481Y0187854D01*
X0306405Y0187811D01*
X0306332Y0187765D01*
X0306260Y0187716D01*
X0306191Y0187663D01*
X0306124Y0187607D01*
X0306059Y0187549D01*
X0305997Y0187487D01*
X0305938Y0187423D01*
X0305882Y0187357D01*
X0305829Y0187288D01*
X0305779Y0187216D01*
X0305732Y0187143D01*
X0305688Y0187068D01*
X0305648Y0186990D01*
X0305612Y0186911D01*
X0305578Y0186831D01*
X0305549Y0186749D01*
X0305523Y0186666D01*
X0305501Y0186581D01*
X0305482Y0186496D01*
X0305467Y0186410D01*
X0305456Y0186324D01*
X0305449Y0186237D01*
X0305446Y0186150D01*
X0305447Y0186063D01*
X0305451Y0185976D01*
X0305460Y0185889D01*
X0305472Y0185803D01*
X0305488Y0185717D01*
X0305508Y0185632D01*
X0305531Y0185549D01*
X0305558Y0185466D01*
X0305589Y0185384D01*
X0305623Y0185304D01*
X0305661Y0185226D01*
X0305703Y0185149D01*
X0305747Y0185074D01*
X0305795Y0185002D01*
X0305846Y0184931D01*
X0305900Y0184863D01*
X0305958Y0184797D01*
X0306018Y0184734D01*
X0306080Y0184673D01*
X0306146Y0184616D01*
X0306213Y0184561D01*
X0306284Y0184509D01*
X0306356Y0184461D01*
X0306431Y0184416D01*
X0318065Y0186357D02*
X0318321Y0185400D01*
X0319535Y0184700D01*
X0320492Y0184956D01*
X0321192Y0186170D01*
X0320936Y0187127D01*
X0320329Y0187477D01*
X0318765Y0187571D01*
X0319816Y0189391D01*
X0322243Y0187990D01*
X0330069Y0160172D02*
X0330112Y0160095D01*
X0330151Y0160016D01*
X0330186Y0159935D01*
X0330218Y0159852D01*
X0330246Y0159768D01*
X0330270Y0159683D01*
X0330290Y0159597D01*
X0330306Y0159511D01*
X0330319Y0159423D01*
X0330327Y0159335D01*
X0330332Y0159247D01*
X0330333Y0159159D01*
X0330329Y0159070D01*
X0330322Y0158982D01*
X0330311Y0158895D01*
X0330296Y0158807D01*
X0330277Y0158721D01*
X0330254Y0158636D01*
X0330227Y0158552D01*
X0330197Y0158469D01*
X0330163Y0158387D01*
X0330125Y0158307D01*
X0330084Y0158229D01*
X0330039Y0158153D01*
X0329991Y0158079D01*
X0329939Y0158007D01*
X0329885Y0157937D01*
X0329827Y0157870D01*
X0329767Y0157806D01*
X0329703Y0157745D01*
X0329637Y0157686D01*
X0329568Y0157630D01*
X0329497Y0157578D01*
X0329424Y0157529D01*
X0329348Y0157483D01*
X0329271Y0157440D01*
X0329192Y0157401D01*
X0329111Y0157366D01*
X0329028Y0157334D01*
X0328944Y0157306D01*
X0328859Y0157282D01*
X0328773Y0157262D01*
X0328687Y0157246D01*
X0328599Y0157233D01*
X0328511Y0157225D01*
X0328423Y0157220D01*
X0328335Y0157219D01*
X0328246Y0157223D01*
X0328158Y0157230D01*
X0328071Y0157241D01*
X0327983Y0157256D01*
X0327897Y0157275D01*
X0327812Y0157298D01*
X0327728Y0157325D01*
X0327645Y0157355D01*
X0327563Y0157389D01*
X0327483Y0157427D01*
X0327405Y0157468D01*
X0327329Y0157513D01*
X0327255Y0157561D01*
X0327183Y0157613D01*
X0327113Y0157667D01*
X0327046Y0157725D01*
X0326982Y0157785D01*
X0326921Y0157849D01*
X0326862Y0157915D01*
X0326806Y0157984D01*
X0326754Y0158055D01*
X0326705Y0158128D01*
X0326659Y0158204D01*
X0332564Y0147975D02*
X0332522Y0148051D01*
X0332483Y0148129D01*
X0332448Y0148209D01*
X0332417Y0148290D01*
X0332389Y0148373D01*
X0332365Y0148456D01*
X0332345Y0148541D01*
X0332328Y0148627D01*
X0332315Y0148713D01*
X0332306Y0148799D01*
X0332301Y0148886D01*
X0332300Y0148974D01*
X0332303Y0149061D01*
X0332309Y0149147D01*
X0332319Y0149234D01*
X0332333Y0149320D01*
X0332351Y0149405D01*
X0332373Y0149490D01*
X0332398Y0149573D01*
X0332427Y0149655D01*
X0332460Y0149736D01*
X0332496Y0149815D01*
X0332536Y0149893D01*
X0332579Y0149969D01*
X0332625Y0150042D01*
X0332674Y0150114D01*
X0332727Y0150183D01*
X0332783Y0150250D01*
X0332841Y0150315D01*
X0332903Y0150377D01*
X0332967Y0150436D01*
X0333033Y0150492D01*
X0333102Y0150545D01*
X0333174Y0150595D01*
X0333247Y0150642D01*
X0333322Y0150686D01*
X0333400Y0150726D01*
X0333479Y0150762D01*
X0333559Y0150796D01*
X0333641Y0150825D01*
X0333724Y0150851D01*
X0333809Y0150873D01*
X0333894Y0150892D01*
X0333980Y0150907D01*
X0334066Y0150918D01*
X0334153Y0150925D01*
X0334240Y0150928D01*
X0334327Y0150927D01*
X0334414Y0150923D01*
X0334501Y0150914D01*
X0334587Y0150902D01*
X0334673Y0150886D01*
X0334758Y0150866D01*
X0334841Y0150843D01*
X0334924Y0150816D01*
X0335006Y0150785D01*
X0335086Y0150751D01*
X0335164Y0150713D01*
X0335241Y0150671D01*
X0335316Y0150627D01*
X0335388Y0150579D01*
X0335459Y0150528D01*
X0335527Y0150474D01*
X0335593Y0150416D01*
X0335656Y0150356D01*
X0335717Y0150294D01*
X0335774Y0150228D01*
X0335829Y0150161D01*
X0335881Y0150090D01*
X0335929Y0150018D01*
X0335974Y0149943D01*
X0328398Y0147631D02*
X0324758Y0145529D01*
X0326159Y0143102D01*
X0327060Y0141542D02*
X0328461Y0139115D01*
X0329362Y0137555D02*
X0330413Y0135735D01*
X0331370Y0135478D01*
X0333797Y0136879D01*
X0334053Y0137836D01*
X0333002Y0139657D01*
X0329362Y0137555D01*
X0332270Y0133918D02*
X0332877Y0134268D01*
X0333834Y0134012D01*
X0334535Y0132798D01*
X0334278Y0131841D01*
X0333672Y0131491D01*
X0332715Y0131747D01*
X0332014Y0132961D01*
X0332270Y0133918D01*
X0333834Y0134012D02*
X0334091Y0134969D01*
X0334697Y0135319D01*
X0335654Y0135063D01*
X0336355Y0133849D01*
X0336098Y0132892D01*
X0335492Y0132542D01*
X0334535Y0132798D01*
X0332101Y0141217D02*
X0330700Y0143644D01*
X0327060Y0141542D01*
X0328880Y0142593D02*
X0329580Y0141379D01*
X0330024Y0111758D02*
X0330724Y0111057D01*
X0330724Y0109656D01*
X0330024Y0108955D01*
X0327922Y0108955D01*
X0327922Y0107554D02*
X0327922Y0111758D01*
X0330024Y0111758D01*
X0332526Y0110357D02*
X0333927Y0111758D01*
X0333927Y0107554D01*
X0332526Y0107554D02*
X0335328Y0107554D01*
X0330724Y0107554D02*
X0329323Y0108955D01*
X0332564Y0086422D02*
X0332522Y0086346D01*
X0332483Y0086268D01*
X0332448Y0086188D01*
X0332417Y0086107D01*
X0332389Y0086024D01*
X0332365Y0085941D01*
X0332345Y0085856D01*
X0332328Y0085770D01*
X0332315Y0085684D01*
X0332306Y0085598D01*
X0332301Y0085511D01*
X0332300Y0085423D01*
X0332303Y0085336D01*
X0332309Y0085250D01*
X0332319Y0085163D01*
X0332333Y0085077D01*
X0332351Y0084992D01*
X0332373Y0084907D01*
X0332398Y0084824D01*
X0332427Y0084742D01*
X0332460Y0084661D01*
X0332496Y0084582D01*
X0332536Y0084504D01*
X0332579Y0084428D01*
X0332625Y0084355D01*
X0332674Y0084283D01*
X0332727Y0084214D01*
X0332783Y0084147D01*
X0332841Y0084082D01*
X0332903Y0084020D01*
X0332967Y0083961D01*
X0333033Y0083905D01*
X0333102Y0083852D01*
X0333174Y0083802D01*
X0333247Y0083755D01*
X0333322Y0083711D01*
X0333400Y0083671D01*
X0333479Y0083635D01*
X0333559Y0083601D01*
X0333641Y0083572D01*
X0333724Y0083546D01*
X0333809Y0083524D01*
X0333894Y0083505D01*
X0333980Y0083490D01*
X0334066Y0083479D01*
X0334153Y0083472D01*
X0334240Y0083469D01*
X0334327Y0083470D01*
X0334414Y0083474D01*
X0334501Y0083483D01*
X0334587Y0083495D01*
X0334673Y0083511D01*
X0334758Y0083531D01*
X0334841Y0083554D01*
X0334924Y0083581D01*
X0335006Y0083612D01*
X0335086Y0083646D01*
X0335164Y0083684D01*
X0335241Y0083726D01*
X0335316Y0083770D01*
X0335388Y0083818D01*
X0335459Y0083869D01*
X0335527Y0083923D01*
X0335593Y0083981D01*
X0335656Y0084041D01*
X0335717Y0084103D01*
X0335774Y0084169D01*
X0335829Y0084236D01*
X0335881Y0084307D01*
X0335929Y0084379D01*
X0335974Y0084454D01*
X0330069Y0074225D02*
X0330112Y0074302D01*
X0330151Y0074381D01*
X0330186Y0074462D01*
X0330218Y0074545D01*
X0330246Y0074629D01*
X0330270Y0074714D01*
X0330290Y0074800D01*
X0330306Y0074886D01*
X0330319Y0074974D01*
X0330327Y0075062D01*
X0330332Y0075150D01*
X0330333Y0075238D01*
X0330329Y0075327D01*
X0330322Y0075415D01*
X0330311Y0075502D01*
X0330296Y0075590D01*
X0330277Y0075676D01*
X0330254Y0075761D01*
X0330227Y0075845D01*
X0330197Y0075928D01*
X0330163Y0076010D01*
X0330125Y0076090D01*
X0330084Y0076168D01*
X0330039Y0076244D01*
X0329991Y0076318D01*
X0329939Y0076390D01*
X0329885Y0076460D01*
X0329827Y0076527D01*
X0329767Y0076591D01*
X0329703Y0076652D01*
X0329637Y0076711D01*
X0329568Y0076767D01*
X0329497Y0076819D01*
X0329424Y0076868D01*
X0329348Y0076914D01*
X0329271Y0076957D01*
X0329192Y0076996D01*
X0329111Y0077031D01*
X0329028Y0077063D01*
X0328944Y0077091D01*
X0328859Y0077115D01*
X0328773Y0077135D01*
X0328687Y0077151D01*
X0328599Y0077164D01*
X0328511Y0077172D01*
X0328423Y0077177D01*
X0328335Y0077178D01*
X0328246Y0077174D01*
X0328158Y0077167D01*
X0328071Y0077156D01*
X0327983Y0077141D01*
X0327897Y0077122D01*
X0327812Y0077099D01*
X0327728Y0077072D01*
X0327645Y0077042D01*
X0327563Y0077008D01*
X0327483Y0076970D01*
X0327405Y0076929D01*
X0327329Y0076884D01*
X0327255Y0076836D01*
X0327183Y0076784D01*
X0327113Y0076730D01*
X0327046Y0076672D01*
X0326982Y0076612D01*
X0326921Y0076548D01*
X0326862Y0076482D01*
X0326806Y0076413D01*
X0326754Y0076342D01*
X0326705Y0076269D01*
X0326659Y0076193D01*
X0332219Y0072331D02*
X0332731Y0070417D01*
X0331224Y0069208D02*
X0330267Y0068951D01*
X0329216Y0067131D01*
X0332856Y0065029D01*
X0333907Y0066849D01*
X0333651Y0067806D01*
X0331224Y0069208D01*
X0332219Y0072331D02*
X0335859Y0070230D01*
X0336560Y0071443D02*
X0335158Y0069016D01*
X0328315Y0065571D02*
X0326914Y0063144D01*
X0330554Y0061042D01*
X0331956Y0063469D01*
X0329435Y0063306D02*
X0328734Y0062093D01*
X0329654Y0059482D02*
X0328253Y0057055D01*
X0324612Y0059157D01*
X0306431Y0049981D02*
X0306356Y0049936D01*
X0306284Y0049888D01*
X0306213Y0049836D01*
X0306146Y0049781D01*
X0306080Y0049724D01*
X0306018Y0049663D01*
X0305958Y0049600D01*
X0305900Y0049534D01*
X0305846Y0049466D01*
X0305795Y0049395D01*
X0305747Y0049323D01*
X0305703Y0049248D01*
X0305661Y0049171D01*
X0305623Y0049093D01*
X0305589Y0049013D01*
X0305558Y0048931D01*
X0305531Y0048848D01*
X0305508Y0048765D01*
X0305488Y0048680D01*
X0305472Y0048594D01*
X0305460Y0048508D01*
X0305451Y0048421D01*
X0305447Y0048334D01*
X0305446Y0048247D01*
X0305449Y0048160D01*
X0305456Y0048073D01*
X0305467Y0047987D01*
X0305482Y0047901D01*
X0305501Y0047816D01*
X0305523Y0047731D01*
X0305549Y0047648D01*
X0305578Y0047566D01*
X0305612Y0047486D01*
X0305648Y0047407D01*
X0305688Y0047329D01*
X0305732Y0047254D01*
X0305779Y0047181D01*
X0305829Y0047109D01*
X0305882Y0047040D01*
X0305938Y0046974D01*
X0305997Y0046910D01*
X0306059Y0046848D01*
X0306124Y0046790D01*
X0306191Y0046734D01*
X0306260Y0046681D01*
X0306332Y0046632D01*
X0306405Y0046586D01*
X0306481Y0046543D01*
X0306559Y0046503D01*
X0306638Y0046467D01*
X0306719Y0046434D01*
X0306801Y0046405D01*
X0306884Y0046380D01*
X0306969Y0046358D01*
X0307054Y0046340D01*
X0307140Y0046326D01*
X0307227Y0046316D01*
X0307313Y0046310D01*
X0307400Y0046307D01*
X0307488Y0046308D01*
X0307575Y0046313D01*
X0307661Y0046322D01*
X0307747Y0046335D01*
X0307833Y0046352D01*
X0307918Y0046372D01*
X0308001Y0046396D01*
X0308084Y0046424D01*
X0308165Y0046455D01*
X0308245Y0046490D01*
X0308323Y0046529D01*
X0308399Y0046571D01*
X0301253Y0039081D02*
X0300390Y0037774D01*
X0299877Y0035860D01*
X0301697Y0036911D01*
X0302654Y0036654D01*
X0303005Y0036048D01*
X0302748Y0035091D01*
X0301535Y0034390D01*
X0300578Y0034646D01*
X0299877Y0035860D01*
X0297616Y0036173D02*
X0296659Y0036429D01*
X0294839Y0035378D01*
X0296941Y0031738D01*
X0298761Y0032789D01*
X0299017Y0033746D01*
X0297616Y0036173D01*
X0293279Y0034477D02*
X0290852Y0033076D01*
X0292954Y0029436D01*
X0295381Y0030837D01*
X0293116Y0031957D02*
X0291903Y0031256D01*
X0291393Y0028535D02*
X0288967Y0027134D01*
X0286865Y0030774D01*
X0298170Y0040666D02*
X0298245Y0040711D01*
X0298317Y0040759D01*
X0298388Y0040811D01*
X0298455Y0040866D01*
X0298521Y0040923D01*
X0298583Y0040984D01*
X0298643Y0041047D01*
X0298701Y0041113D01*
X0298755Y0041181D01*
X0298806Y0041252D01*
X0298854Y0041324D01*
X0298898Y0041399D01*
X0298940Y0041476D01*
X0298978Y0041554D01*
X0299012Y0041634D01*
X0299043Y0041716D01*
X0299070Y0041799D01*
X0299093Y0041882D01*
X0299113Y0041967D01*
X0299129Y0042053D01*
X0299141Y0042139D01*
X0299150Y0042226D01*
X0299154Y0042313D01*
X0299155Y0042400D01*
X0299152Y0042487D01*
X0299145Y0042574D01*
X0299134Y0042660D01*
X0299119Y0042746D01*
X0299100Y0042831D01*
X0299078Y0042916D01*
X0299052Y0042999D01*
X0299023Y0043081D01*
X0298989Y0043161D01*
X0298953Y0043240D01*
X0298913Y0043318D01*
X0298869Y0043393D01*
X0298822Y0043466D01*
X0298772Y0043538D01*
X0298719Y0043607D01*
X0298663Y0043673D01*
X0298604Y0043737D01*
X0298542Y0043799D01*
X0298477Y0043857D01*
X0298410Y0043913D01*
X0298341Y0043966D01*
X0298269Y0044015D01*
X0298196Y0044061D01*
X0298120Y0044104D01*
X0298042Y0044144D01*
X0297963Y0044180D01*
X0297882Y0044213D01*
X0297800Y0044242D01*
X0297717Y0044267D01*
X0297632Y0044289D01*
X0297547Y0044307D01*
X0297461Y0044321D01*
X0297374Y0044331D01*
X0297288Y0044337D01*
X0297201Y0044340D01*
X0297113Y0044339D01*
X0297026Y0044334D01*
X0296940Y0044325D01*
X0296854Y0044312D01*
X0296768Y0044295D01*
X0296683Y0044275D01*
X0296600Y0044251D01*
X0296517Y0044223D01*
X0296436Y0044192D01*
X0296356Y0044157D01*
X0296278Y0044118D01*
X0296202Y0044076D01*
X0268206Y0031043D02*
X0268119Y0031041D01*
X0268032Y0031035D01*
X0267945Y0031026D01*
X0267859Y0031012D01*
X0267774Y0030995D01*
X0267689Y0030974D01*
X0267606Y0030949D01*
X0267523Y0030921D01*
X0267442Y0030889D01*
X0267363Y0030853D01*
X0267285Y0030814D01*
X0267209Y0030772D01*
X0267135Y0030726D01*
X0267063Y0030677D01*
X0266993Y0030625D01*
X0266926Y0030570D01*
X0266861Y0030512D01*
X0266798Y0030451D01*
X0266739Y0030387D01*
X0266682Y0030321D01*
X0266629Y0030252D01*
X0266578Y0030181D01*
X0266531Y0030108D01*
X0266486Y0030033D01*
X0266446Y0029956D01*
X0266408Y0029878D01*
X0266375Y0029797D01*
X0266344Y0029716D01*
X0266318Y0029633D01*
X0266295Y0029548D01*
X0266276Y0029463D01*
X0266261Y0029378D01*
X0266249Y0029291D01*
X0266241Y0029205D01*
X0266237Y0029118D01*
X0266237Y0029030D01*
X0266241Y0028943D01*
X0266249Y0028857D01*
X0266261Y0028770D01*
X0266276Y0028685D01*
X0266295Y0028600D01*
X0266318Y0028515D01*
X0266344Y0028432D01*
X0266375Y0028351D01*
X0266408Y0028270D01*
X0266446Y0028192D01*
X0266486Y0028115D01*
X0266531Y0028040D01*
X0266578Y0027967D01*
X0266629Y0027896D01*
X0266682Y0027827D01*
X0266739Y0027761D01*
X0266798Y0027697D01*
X0266861Y0027636D01*
X0266926Y0027578D01*
X0266993Y0027523D01*
X0267063Y0027471D01*
X0267135Y0027422D01*
X0267209Y0027376D01*
X0267285Y0027334D01*
X0267363Y0027295D01*
X0267442Y0027259D01*
X0267523Y0027227D01*
X0267606Y0027199D01*
X0267689Y0027174D01*
X0267774Y0027153D01*
X0267859Y0027136D01*
X0267945Y0027122D01*
X0268032Y0027113D01*
X0268119Y0027107D01*
X0268206Y0027105D01*
X0259630Y0023626D02*
X0258929Y0024327D01*
X0257528Y0024327D01*
X0256827Y0023626D01*
X0256827Y0022926D01*
X0257528Y0022225D01*
X0259630Y0022225D01*
X0259630Y0020824D02*
X0259630Y0023626D01*
X0259630Y0020824D02*
X0258929Y0020123D01*
X0257528Y0020123D01*
X0256827Y0020824D01*
X0255026Y0020824D02*
X0255026Y0023626D01*
X0254325Y0024327D01*
X0252223Y0024327D01*
X0252223Y0020123D01*
X0254325Y0020123D01*
X0255026Y0020824D01*
X0250422Y0020123D02*
X0247620Y0020123D01*
X0247620Y0024327D01*
X0250422Y0024327D01*
X0249021Y0022225D02*
X0247620Y0022225D01*
X0245818Y0020123D02*
X0243016Y0020123D01*
X0243016Y0024327D01*
X0233906Y0020227D02*
X0231104Y0020227D01*
X0233206Y0022329D01*
X0233206Y0018125D01*
X0229302Y0018125D02*
X0227901Y0019526D01*
X0228602Y0019526D02*
X0226500Y0019526D01*
X0226500Y0018125D02*
X0226500Y0022329D01*
X0228602Y0022329D01*
X0229302Y0021628D01*
X0229302Y0020227D01*
X0228602Y0019526D01*
X0220318Y0019552D02*
X0217516Y0019552D01*
X0220318Y0022355D01*
X0220318Y0023055D01*
X0219618Y0023756D01*
X0218217Y0023756D01*
X0217516Y0023055D01*
X0214313Y0023756D02*
X0214313Y0019552D01*
X0212912Y0019552D02*
X0215714Y0019552D01*
X0212912Y0022355D02*
X0214313Y0023756D01*
X0211110Y0023055D02*
X0211110Y0020253D01*
X0210410Y0019552D01*
X0208308Y0019552D01*
X0208308Y0023756D01*
X0210410Y0023756D01*
X0211110Y0023055D01*
X0206507Y0023756D02*
X0203704Y0023756D01*
X0203704Y0019552D01*
X0206507Y0019552D01*
X0205105Y0021654D02*
X0203704Y0021654D01*
X0201903Y0019552D02*
X0199100Y0019552D01*
X0199100Y0023756D01*
X0195145Y0027105D02*
X0195232Y0027107D01*
X0195319Y0027113D01*
X0195406Y0027122D01*
X0195492Y0027136D01*
X0195577Y0027153D01*
X0195662Y0027174D01*
X0195745Y0027199D01*
X0195828Y0027227D01*
X0195909Y0027259D01*
X0195988Y0027295D01*
X0196066Y0027334D01*
X0196142Y0027376D01*
X0196216Y0027422D01*
X0196288Y0027471D01*
X0196358Y0027523D01*
X0196425Y0027578D01*
X0196490Y0027636D01*
X0196553Y0027697D01*
X0196612Y0027761D01*
X0196669Y0027827D01*
X0196722Y0027896D01*
X0196773Y0027967D01*
X0196820Y0028040D01*
X0196865Y0028115D01*
X0196905Y0028192D01*
X0196943Y0028270D01*
X0196976Y0028351D01*
X0197007Y0028432D01*
X0197033Y0028515D01*
X0197056Y0028600D01*
X0197075Y0028685D01*
X0197090Y0028770D01*
X0197102Y0028857D01*
X0197110Y0028943D01*
X0197114Y0029030D01*
X0197114Y0029118D01*
X0197110Y0029205D01*
X0197102Y0029291D01*
X0197090Y0029378D01*
X0197075Y0029463D01*
X0197056Y0029548D01*
X0197033Y0029633D01*
X0197007Y0029716D01*
X0196976Y0029797D01*
X0196943Y0029878D01*
X0196905Y0029956D01*
X0196865Y0030033D01*
X0196820Y0030108D01*
X0196773Y0030181D01*
X0196722Y0030252D01*
X0196669Y0030321D01*
X0196612Y0030387D01*
X0196553Y0030451D01*
X0196490Y0030512D01*
X0196425Y0030570D01*
X0196358Y0030625D01*
X0196288Y0030677D01*
X0196216Y0030726D01*
X0196142Y0030772D01*
X0196066Y0030814D01*
X0195988Y0030853D01*
X0195909Y0030889D01*
X0195828Y0030921D01*
X0195745Y0030949D01*
X0195662Y0030974D01*
X0195577Y0030995D01*
X0195492Y0031012D01*
X0195406Y0031026D01*
X0195319Y0031035D01*
X0195232Y0031041D01*
X0195145Y0031043D01*
X0206956Y0031043D02*
X0206869Y0031041D01*
X0206782Y0031035D01*
X0206695Y0031026D01*
X0206609Y0031012D01*
X0206524Y0030995D01*
X0206439Y0030974D01*
X0206356Y0030949D01*
X0206273Y0030921D01*
X0206192Y0030889D01*
X0206113Y0030853D01*
X0206035Y0030814D01*
X0205959Y0030772D01*
X0205885Y0030726D01*
X0205813Y0030677D01*
X0205743Y0030625D01*
X0205676Y0030570D01*
X0205611Y0030512D01*
X0205548Y0030451D01*
X0205489Y0030387D01*
X0205432Y0030321D01*
X0205379Y0030252D01*
X0205328Y0030181D01*
X0205281Y0030108D01*
X0205236Y0030033D01*
X0205196Y0029956D01*
X0205158Y0029878D01*
X0205125Y0029797D01*
X0205094Y0029716D01*
X0205068Y0029633D01*
X0205045Y0029548D01*
X0205026Y0029463D01*
X0205011Y0029378D01*
X0204999Y0029291D01*
X0204991Y0029205D01*
X0204987Y0029118D01*
X0204987Y0029030D01*
X0204991Y0028943D01*
X0204999Y0028857D01*
X0205011Y0028770D01*
X0205026Y0028685D01*
X0205045Y0028600D01*
X0205068Y0028515D01*
X0205094Y0028432D01*
X0205125Y0028351D01*
X0205158Y0028270D01*
X0205196Y0028192D01*
X0205236Y0028115D01*
X0205281Y0028040D01*
X0205328Y0027967D01*
X0205379Y0027896D01*
X0205432Y0027827D01*
X0205489Y0027761D01*
X0205548Y0027697D01*
X0205611Y0027636D01*
X0205676Y0027578D01*
X0205743Y0027523D01*
X0205813Y0027471D01*
X0205885Y0027422D01*
X0205959Y0027376D01*
X0206035Y0027334D01*
X0206113Y0027295D01*
X0206192Y0027259D01*
X0206273Y0027227D01*
X0206356Y0027199D01*
X0206439Y0027174D01*
X0206524Y0027153D01*
X0206609Y0027136D01*
X0206695Y0027122D01*
X0206782Y0027113D01*
X0206869Y0027107D01*
X0206956Y0027105D01*
X0171108Y0031161D02*
X0169007Y0027521D01*
X0170220Y0026820D02*
X0167793Y0028221D01*
X0166233Y0029122D02*
X0163806Y0030523D01*
X0165019Y0029823D02*
X0167121Y0033463D01*
X0165207Y0032950D01*
X0163997Y0034458D02*
X0163741Y0035415D01*
X0161921Y0036466D01*
X0159819Y0032825D01*
X0161639Y0031774D01*
X0162596Y0032031D01*
X0163997Y0034458D01*
X0158259Y0033726D02*
X0155832Y0035127D01*
X0157934Y0038768D01*
X0160360Y0037366D01*
X0158096Y0036247D02*
X0156883Y0036947D01*
X0154272Y0036028D02*
X0151845Y0037429D01*
X0153946Y0041070D01*
X0143377Y0042751D02*
X0143377Y0044152D01*
X0143377Y0043452D02*
X0139173Y0043452D01*
X0139173Y0044152D02*
X0139173Y0042751D01*
X0139075Y0040118D02*
X0139776Y0040118D01*
X0142578Y0037316D01*
X0143279Y0037316D01*
X0142578Y0035514D02*
X0143279Y0034814D01*
X0143279Y0033412D01*
X0142578Y0032712D01*
X0139776Y0032712D01*
X0139075Y0033412D01*
X0139075Y0034814D01*
X0139776Y0035514D01*
X0139075Y0037316D02*
X0139075Y0040118D01*
X0139874Y0045820D02*
X0142676Y0045820D01*
X0143377Y0046521D01*
X0143377Y0047922D01*
X0142676Y0048623D01*
X0142676Y0050424D02*
X0143377Y0051125D01*
X0143377Y0052526D01*
X0142676Y0053227D01*
X0141976Y0053227D01*
X0141275Y0052526D01*
X0141275Y0051826D01*
X0141275Y0052526D02*
X0140575Y0053227D01*
X0139874Y0053227D01*
X0139173Y0052526D01*
X0139173Y0051125D01*
X0139874Y0050424D01*
X0139874Y0048623D02*
X0139173Y0047922D01*
X0139173Y0046521D01*
X0139874Y0045820D01*
X0131251Y0050189D02*
X0131251Y0051590D01*
X0130550Y0052291D01*
X0130550Y0054092D02*
X0129850Y0054092D01*
X0129149Y0054793D01*
X0129149Y0056194D01*
X0129850Y0056894D01*
X0130550Y0056894D01*
X0131251Y0056194D01*
X0131251Y0054793D01*
X0130550Y0054092D01*
X0129149Y0054793D02*
X0128449Y0054092D01*
X0127748Y0054092D01*
X0127047Y0054793D01*
X0127047Y0056194D01*
X0127748Y0056894D01*
X0128449Y0056894D01*
X0129149Y0056194D01*
X0127748Y0052291D02*
X0127047Y0051590D01*
X0127047Y0050189D01*
X0127748Y0049488D01*
X0130550Y0049488D01*
X0131251Y0050189D01*
X0128899Y0061203D02*
X0127942Y0061460D01*
X0127242Y0062673D01*
X0127498Y0063630D01*
X0131326Y0062605D01*
X0128899Y0061203D01*
X0127498Y0063630D02*
X0129925Y0065032D01*
X0130882Y0064775D01*
X0131583Y0063562D01*
X0131326Y0062605D01*
X0125991Y0064840D02*
X0124590Y0067267D01*
X0125290Y0066054D02*
X0128931Y0068155D01*
X0127017Y0068668D01*
X0126723Y0070579D02*
X0126979Y0071536D01*
X0125928Y0073356D01*
X0122288Y0071254D01*
X0123339Y0069434D01*
X0124296Y0069178D01*
X0126723Y0070579D01*
X0121387Y0072814D02*
X0119986Y0075241D01*
X0123626Y0077343D01*
X0125027Y0074916D01*
X0122507Y0075079D02*
X0121806Y0076292D01*
X0119085Y0076802D02*
X0117684Y0079229D01*
X0121324Y0081330D01*
X0123893Y0084454D02*
X0123939Y0084378D01*
X0123988Y0084305D01*
X0124040Y0084234D01*
X0124096Y0084165D01*
X0124155Y0084099D01*
X0124216Y0084035D01*
X0124280Y0083975D01*
X0124347Y0083917D01*
X0124417Y0083863D01*
X0124489Y0083811D01*
X0124563Y0083763D01*
X0124639Y0083718D01*
X0124717Y0083677D01*
X0124797Y0083639D01*
X0124879Y0083605D01*
X0124962Y0083575D01*
X0125046Y0083548D01*
X0125131Y0083525D01*
X0125217Y0083506D01*
X0125305Y0083491D01*
X0125392Y0083480D01*
X0125480Y0083473D01*
X0125569Y0083469D01*
X0125657Y0083470D01*
X0125745Y0083475D01*
X0125833Y0083483D01*
X0125921Y0083496D01*
X0126007Y0083512D01*
X0126093Y0083532D01*
X0126178Y0083556D01*
X0126262Y0083584D01*
X0126345Y0083616D01*
X0126426Y0083651D01*
X0126505Y0083690D01*
X0126582Y0083733D01*
X0126658Y0083779D01*
X0126731Y0083828D01*
X0126802Y0083880D01*
X0126871Y0083936D01*
X0126937Y0083995D01*
X0127001Y0084056D01*
X0127061Y0084120D01*
X0127119Y0084187D01*
X0127173Y0084257D01*
X0127225Y0084329D01*
X0127273Y0084403D01*
X0127318Y0084479D01*
X0127359Y0084557D01*
X0127397Y0084637D01*
X0127431Y0084719D01*
X0127461Y0084802D01*
X0127488Y0084886D01*
X0127511Y0084971D01*
X0127530Y0085057D01*
X0127545Y0085145D01*
X0127556Y0085232D01*
X0127563Y0085320D01*
X0127567Y0085409D01*
X0127566Y0085497D01*
X0127561Y0085585D01*
X0127553Y0085673D01*
X0127540Y0085761D01*
X0127524Y0085847D01*
X0127504Y0085933D01*
X0127480Y0086018D01*
X0127452Y0086102D01*
X0127420Y0086185D01*
X0127385Y0086266D01*
X0127346Y0086345D01*
X0127303Y0086422D01*
X0133208Y0076193D02*
X0133163Y0076268D01*
X0133115Y0076340D01*
X0133063Y0076411D01*
X0133008Y0076478D01*
X0132951Y0076544D01*
X0132890Y0076606D01*
X0132827Y0076666D01*
X0132761Y0076724D01*
X0132693Y0076778D01*
X0132622Y0076829D01*
X0132550Y0076877D01*
X0132475Y0076921D01*
X0132398Y0076963D01*
X0132320Y0077001D01*
X0132240Y0077035D01*
X0132158Y0077066D01*
X0132075Y0077093D01*
X0131992Y0077116D01*
X0131907Y0077136D01*
X0131821Y0077152D01*
X0131735Y0077164D01*
X0131648Y0077173D01*
X0131561Y0077177D01*
X0131474Y0077178D01*
X0131387Y0077175D01*
X0131300Y0077168D01*
X0131214Y0077157D01*
X0131128Y0077142D01*
X0131043Y0077123D01*
X0130958Y0077101D01*
X0130875Y0077075D01*
X0130793Y0077046D01*
X0130713Y0077012D01*
X0130634Y0076976D01*
X0130556Y0076936D01*
X0130481Y0076892D01*
X0130408Y0076845D01*
X0130336Y0076795D01*
X0130267Y0076742D01*
X0130201Y0076686D01*
X0130137Y0076627D01*
X0130075Y0076565D01*
X0130017Y0076500D01*
X0129961Y0076433D01*
X0129908Y0076364D01*
X0129859Y0076292D01*
X0129813Y0076219D01*
X0129770Y0076143D01*
X0129730Y0076065D01*
X0129694Y0075986D01*
X0129661Y0075905D01*
X0129632Y0075823D01*
X0129607Y0075740D01*
X0129585Y0075655D01*
X0129567Y0075570D01*
X0129553Y0075484D01*
X0129543Y0075397D01*
X0129537Y0075311D01*
X0129534Y0075224D01*
X0129535Y0075136D01*
X0129540Y0075049D01*
X0129549Y0074963D01*
X0129562Y0074877D01*
X0129579Y0074791D01*
X0129599Y0074706D01*
X0129623Y0074623D01*
X0129651Y0074540D01*
X0129682Y0074459D01*
X0129717Y0074379D01*
X0129756Y0074301D01*
X0129798Y0074225D01*
X0143646Y0077239D02*
X0143646Y0081443D01*
X0145747Y0081443D01*
X0146448Y0080742D01*
X0146448Y0079341D01*
X0145747Y0078641D01*
X0143646Y0078641D01*
X0145047Y0078641D02*
X0146448Y0077239D01*
X0148249Y0077239D02*
X0151052Y0077239D01*
X0149651Y0077239D02*
X0149651Y0081443D01*
X0148249Y0080042D01*
X0152853Y0080742D02*
X0153554Y0081443D01*
X0154955Y0081443D01*
X0155656Y0080742D01*
X0155656Y0080042D01*
X0152853Y0077239D01*
X0155656Y0077239D01*
X0162346Y0074553D02*
X0164448Y0074553D01*
X0165149Y0073853D01*
X0165149Y0072451D01*
X0164448Y0071751D01*
X0162346Y0071751D01*
X0162346Y0070350D02*
X0162346Y0074553D01*
X0163747Y0071751D02*
X0165149Y0070350D01*
X0166950Y0071050D02*
X0166950Y0072451D01*
X0169052Y0072451D01*
X0169753Y0071751D01*
X0169753Y0071050D01*
X0169052Y0070350D01*
X0167651Y0070350D01*
X0166950Y0071050D01*
X0166950Y0072451D02*
X0168351Y0073853D01*
X0169753Y0074553D01*
X0162790Y0058805D02*
X0161389Y0058805D01*
X0160688Y0058105D01*
X0160688Y0055302D01*
X0161389Y0054602D01*
X0162790Y0054602D01*
X0163490Y0055302D01*
X0163490Y0056703D01*
X0162089Y0056703D01*
X0163490Y0058105D02*
X0162790Y0058805D01*
X0158886Y0058805D02*
X0158886Y0054602D01*
X0158886Y0056703D02*
X0156084Y0056703D01*
X0156084Y0054602D02*
X0156084Y0058805D01*
X0154283Y0058105D02*
X0153582Y0058805D01*
X0152181Y0058805D01*
X0151480Y0058105D01*
X0151480Y0055302D01*
X0152181Y0054602D01*
X0153582Y0054602D01*
X0154283Y0055302D01*
X0153170Y0049981D02*
X0153245Y0049936D01*
X0153317Y0049888D01*
X0153388Y0049836D01*
X0153455Y0049781D01*
X0153521Y0049724D01*
X0153583Y0049663D01*
X0153643Y0049600D01*
X0153701Y0049534D01*
X0153755Y0049466D01*
X0153806Y0049395D01*
X0153854Y0049323D01*
X0153898Y0049248D01*
X0153940Y0049171D01*
X0153978Y0049093D01*
X0154012Y0049013D01*
X0154043Y0048931D01*
X0154070Y0048848D01*
X0154093Y0048765D01*
X0154113Y0048680D01*
X0154129Y0048594D01*
X0154141Y0048508D01*
X0154150Y0048421D01*
X0154154Y0048334D01*
X0154155Y0048247D01*
X0154152Y0048160D01*
X0154145Y0048073D01*
X0154134Y0047987D01*
X0154119Y0047901D01*
X0154100Y0047816D01*
X0154078Y0047731D01*
X0154052Y0047648D01*
X0154023Y0047566D01*
X0153989Y0047486D01*
X0153953Y0047407D01*
X0153913Y0047329D01*
X0153869Y0047254D01*
X0153822Y0047181D01*
X0153772Y0047109D01*
X0153719Y0047040D01*
X0153663Y0046974D01*
X0153604Y0046910D01*
X0153542Y0046848D01*
X0153477Y0046790D01*
X0153410Y0046734D01*
X0153341Y0046681D01*
X0153269Y0046632D01*
X0153196Y0046586D01*
X0153120Y0046543D01*
X0153042Y0046503D01*
X0152963Y0046467D01*
X0152882Y0046434D01*
X0152800Y0046405D01*
X0152717Y0046380D01*
X0152632Y0046358D01*
X0152547Y0046340D01*
X0152461Y0046326D01*
X0152374Y0046316D01*
X0152288Y0046310D01*
X0152201Y0046307D01*
X0152113Y0046308D01*
X0152026Y0046313D01*
X0151940Y0046322D01*
X0151854Y0046335D01*
X0151768Y0046352D01*
X0151683Y0046372D01*
X0151600Y0046396D01*
X0151517Y0046424D01*
X0151436Y0046455D01*
X0151356Y0046490D01*
X0151278Y0046529D01*
X0151202Y0046571D01*
X0161431Y0040666D02*
X0161356Y0040711D01*
X0161284Y0040759D01*
X0161213Y0040811D01*
X0161146Y0040866D01*
X0161080Y0040923D01*
X0161018Y0040984D01*
X0160958Y0041047D01*
X0160900Y0041113D01*
X0160846Y0041181D01*
X0160795Y0041252D01*
X0160747Y0041324D01*
X0160703Y0041399D01*
X0160661Y0041476D01*
X0160623Y0041554D01*
X0160589Y0041634D01*
X0160558Y0041716D01*
X0160531Y0041799D01*
X0160508Y0041882D01*
X0160488Y0041967D01*
X0160472Y0042053D01*
X0160460Y0042139D01*
X0160451Y0042226D01*
X0160447Y0042313D01*
X0160446Y0042400D01*
X0160449Y0042487D01*
X0160456Y0042574D01*
X0160467Y0042660D01*
X0160482Y0042746D01*
X0160501Y0042831D01*
X0160523Y0042916D01*
X0160549Y0042999D01*
X0160578Y0043081D01*
X0160612Y0043161D01*
X0160648Y0043240D01*
X0160688Y0043318D01*
X0160732Y0043393D01*
X0160779Y0043466D01*
X0160829Y0043538D01*
X0160882Y0043607D01*
X0160938Y0043673D01*
X0160997Y0043737D01*
X0161059Y0043799D01*
X0161124Y0043857D01*
X0161191Y0043913D01*
X0161260Y0043966D01*
X0161332Y0044015D01*
X0161405Y0044061D01*
X0161481Y0044104D01*
X0161559Y0044144D01*
X0161638Y0044180D01*
X0161719Y0044213D01*
X0161801Y0044242D01*
X0161884Y0044267D01*
X0161969Y0044289D01*
X0162054Y0044307D01*
X0162140Y0044321D01*
X0162227Y0044331D01*
X0162313Y0044337D01*
X0162400Y0044340D01*
X0162488Y0044339D01*
X0162575Y0044334D01*
X0162661Y0044325D01*
X0162747Y0044312D01*
X0162833Y0044295D01*
X0162918Y0044275D01*
X0163001Y0044251D01*
X0163084Y0044223D01*
X0163165Y0044192D01*
X0163245Y0044157D01*
X0163323Y0044118D01*
X0163399Y0044076D01*
X0169194Y0030648D02*
X0171108Y0031161D01*
X0123033Y0030621D02*
X0122332Y0031321D01*
X0123033Y0030621D02*
X0123033Y0029219D01*
X0122332Y0028519D01*
X0119530Y0028519D01*
X0118829Y0029219D01*
X0118829Y0030621D01*
X0119530Y0031321D01*
X0119530Y0033123D02*
X0118829Y0033823D01*
X0118829Y0035225D01*
X0119530Y0035925D01*
X0120230Y0035925D01*
X0120931Y0035225D01*
X0121631Y0035925D01*
X0122332Y0035925D01*
X0123033Y0035225D01*
X0123033Y0033823D01*
X0122332Y0033123D01*
X0120931Y0034524D02*
X0120931Y0035225D01*
X0020746Y0065383D02*
X0020761Y0066567D01*
X0020804Y0067749D01*
X0020877Y0068931D01*
X0020978Y0070110D01*
X0021109Y0071287D01*
X0021268Y0072460D01*
X0021456Y0073628D01*
X0021673Y0074792D01*
X0021918Y0075950D01*
X0022191Y0077101D01*
X0022493Y0078246D01*
X0022823Y0079383D01*
X0023180Y0080511D01*
X0023565Y0081631D01*
X0023978Y0082740D01*
X0024417Y0083839D01*
X0024883Y0084927D01*
X0025376Y0086003D01*
X0025896Y0087067D01*
X0026441Y0088118D01*
X0027011Y0089154D01*
X0027607Y0090177D01*
X0028228Y0091185D01*
X0028874Y0092177D01*
X0029544Y0093153D01*
X0030237Y0094112D01*
X0030954Y0095054D01*
X0031693Y0095979D01*
X0032455Y0096884D01*
X0033239Y0097771D01*
X0034045Y0098638D01*
X0034872Y0099485D01*
X0035719Y0100312D01*
X0036586Y0101118D01*
X0037473Y0101902D01*
X0038378Y0102664D01*
X0039303Y0103403D01*
X0040245Y0104120D01*
X0041204Y0104813D01*
X0042180Y0105483D01*
X0043172Y0106129D01*
X0044180Y0106750D01*
X0045203Y0107346D01*
X0046239Y0107916D01*
X0047290Y0108461D01*
X0048354Y0108981D01*
X0049430Y0109474D01*
X0050518Y0109940D01*
X0051617Y0110379D01*
X0052726Y0110792D01*
X0053846Y0111177D01*
X0054974Y0111534D01*
X0056111Y0111864D01*
X0057256Y0112166D01*
X0058407Y0112439D01*
X0059565Y0112684D01*
X0060729Y0112901D01*
X0061897Y0113089D01*
X0063070Y0113248D01*
X0064247Y0113379D01*
X0065426Y0113480D01*
X0066608Y0113553D01*
X0067790Y0113596D01*
X0068974Y0113611D01*
X0070158Y0113596D01*
X0071340Y0113553D01*
X0072522Y0113480D01*
X0073701Y0113379D01*
X0074878Y0113248D01*
X0076051Y0113089D01*
X0077219Y0112901D01*
X0078383Y0112684D01*
X0079541Y0112439D01*
X0080692Y0112166D01*
X0081837Y0111864D01*
X0082974Y0111534D01*
X0084102Y0111177D01*
X0085222Y0110792D01*
X0086331Y0110379D01*
X0087430Y0109940D01*
X0088518Y0109474D01*
X0089594Y0108981D01*
X0090658Y0108461D01*
X0091709Y0107916D01*
X0092745Y0107346D01*
X0093768Y0106750D01*
X0094776Y0106129D01*
X0095768Y0105483D01*
X0096744Y0104813D01*
X0097703Y0104120D01*
X0098645Y0103403D01*
X0099570Y0102664D01*
X0100475Y0101902D01*
X0101362Y0101118D01*
X0102229Y0100312D01*
X0103076Y0099485D01*
X0103903Y0098638D01*
X0104709Y0097771D01*
X0105493Y0096884D01*
X0106255Y0095979D01*
X0106994Y0095054D01*
X0107711Y0094112D01*
X0108404Y0093153D01*
X0109074Y0092177D01*
X0109720Y0091185D01*
X0110341Y0090177D01*
X0110937Y0089154D01*
X0111507Y0088118D01*
X0112052Y0087067D01*
X0112572Y0086003D01*
X0113065Y0084927D01*
X0113531Y0083839D01*
X0113970Y0082740D01*
X0114383Y0081631D01*
X0114768Y0080511D01*
X0115125Y0079383D01*
X0115455Y0078246D01*
X0115757Y0077101D01*
X0116030Y0075950D01*
X0116275Y0074792D01*
X0116492Y0073628D01*
X0116680Y0072460D01*
X0116839Y0071287D01*
X0116970Y0070110D01*
X0117071Y0068931D01*
X0117144Y0067749D01*
X0117187Y0066567D01*
X0117202Y0065383D01*
X0117187Y0064199D01*
X0117144Y0063017D01*
X0117071Y0061835D01*
X0116970Y0060656D01*
X0116839Y0059479D01*
X0116680Y0058306D01*
X0116492Y0057138D01*
X0116275Y0055974D01*
X0116030Y0054816D01*
X0115757Y0053665D01*
X0115455Y0052520D01*
X0115125Y0051383D01*
X0114768Y0050255D01*
X0114383Y0049135D01*
X0113970Y0048026D01*
X0113531Y0046927D01*
X0113065Y0045839D01*
X0112572Y0044763D01*
X0112052Y0043699D01*
X0111507Y0042648D01*
X0110937Y0041612D01*
X0110341Y0040589D01*
X0109720Y0039581D01*
X0109074Y0038589D01*
X0108404Y0037613D01*
X0107711Y0036654D01*
X0106994Y0035712D01*
X0106255Y0034787D01*
X0105493Y0033882D01*
X0104709Y0032995D01*
X0103903Y0032128D01*
X0103076Y0031281D01*
X0102229Y0030454D01*
X0101362Y0029648D01*
X0100475Y0028864D01*
X0099570Y0028102D01*
X0098645Y0027363D01*
X0097703Y0026646D01*
X0096744Y0025953D01*
X0095768Y0025283D01*
X0094776Y0024637D01*
X0093768Y0024016D01*
X0092745Y0023420D01*
X0091709Y0022850D01*
X0090658Y0022305D01*
X0089594Y0021785D01*
X0088518Y0021292D01*
X0087430Y0020826D01*
X0086331Y0020387D01*
X0085222Y0019974D01*
X0084102Y0019589D01*
X0082974Y0019232D01*
X0081837Y0018902D01*
X0080692Y0018600D01*
X0079541Y0018327D01*
X0078383Y0018082D01*
X0077219Y0017865D01*
X0076051Y0017677D01*
X0074878Y0017518D01*
X0073701Y0017387D01*
X0072522Y0017286D01*
X0071340Y0017213D01*
X0070158Y0017170D01*
X0068974Y0017155D01*
X0067790Y0017170D01*
X0066608Y0017213D01*
X0065426Y0017286D01*
X0064247Y0017387D01*
X0063070Y0017518D01*
X0061897Y0017677D01*
X0060729Y0017865D01*
X0059565Y0018082D01*
X0058407Y0018327D01*
X0057256Y0018600D01*
X0056111Y0018902D01*
X0054974Y0019232D01*
X0053846Y0019589D01*
X0052726Y0019974D01*
X0051617Y0020387D01*
X0050518Y0020826D01*
X0049430Y0021292D01*
X0048354Y0021785D01*
X0047290Y0022305D01*
X0046239Y0022850D01*
X0045203Y0023420D01*
X0044180Y0024016D01*
X0043172Y0024637D01*
X0042180Y0025283D01*
X0041204Y0025953D01*
X0040245Y0026646D01*
X0039303Y0027363D01*
X0038378Y0028102D01*
X0037473Y0028864D01*
X0036586Y0029648D01*
X0035719Y0030454D01*
X0034872Y0031281D01*
X0034045Y0032128D01*
X0033239Y0032995D01*
X0032455Y0033882D01*
X0031693Y0034787D01*
X0030954Y0035712D01*
X0030237Y0036654D01*
X0029544Y0037613D01*
X0028874Y0038589D01*
X0028228Y0039581D01*
X0027607Y0040589D01*
X0027011Y0041612D01*
X0026441Y0042648D01*
X0025896Y0043699D01*
X0025376Y0044763D01*
X0024883Y0045839D01*
X0024417Y0046927D01*
X0023978Y0048026D01*
X0023565Y0049135D01*
X0023180Y0050255D01*
X0022823Y0051383D01*
X0022493Y0052520D01*
X0022191Y0053665D01*
X0021918Y0054816D01*
X0021673Y0055974D01*
X0021456Y0057138D01*
X0021268Y0058306D01*
X0021109Y0059479D01*
X0020978Y0060656D01*
X0020877Y0061835D01*
X0020804Y0063017D01*
X0020761Y0064199D01*
X0020746Y0065383D01*
X0019138Y0027321D02*
X0019838Y0026621D01*
X0019838Y0025920D01*
X0019138Y0025219D01*
X0017036Y0025219D01*
X0017036Y0023118D02*
X0019138Y0023118D01*
X0019838Y0023818D01*
X0019838Y0024519D01*
X0019138Y0025219D01*
X0019138Y0027321D02*
X0017036Y0027321D01*
X0017036Y0023118D01*
X0021640Y0023118D02*
X0021640Y0025920D01*
X0023041Y0027321D01*
X0024442Y0025920D01*
X0024442Y0023118D01*
X0024442Y0025219D02*
X0021640Y0025219D01*
X0026244Y0027321D02*
X0029046Y0027321D01*
X0027645Y0027321D02*
X0027645Y0023118D01*
X0030848Y0023118D02*
X0033650Y0025920D01*
X0033650Y0026621D01*
X0032949Y0027321D01*
X0031548Y0027321D01*
X0030848Y0026621D01*
X0030848Y0023118D02*
X0033650Y0023118D01*
X0134536Y0097490D02*
X0134536Y0098891D01*
X0134536Y0098190D02*
X0138739Y0098190D01*
X0138739Y0097490D02*
X0138739Y0098891D01*
X0138039Y0100559D02*
X0138739Y0101260D01*
X0138739Y0102661D01*
X0138039Y0103361D01*
X0138739Y0105163D02*
X0135937Y0107965D01*
X0135236Y0107965D01*
X0134536Y0107265D01*
X0134536Y0105864D01*
X0135236Y0105163D01*
X0135236Y0103361D02*
X0134536Y0102661D01*
X0134536Y0101260D01*
X0135236Y0100559D01*
X0138039Y0100559D01*
X0138739Y0105163D02*
X0138739Y0107965D01*
X0152087Y0123467D02*
X0152087Y0125569D01*
X0152787Y0126269D01*
X0154189Y0126269D01*
X0154889Y0125569D01*
X0154889Y0123467D01*
X0154889Y0124868D02*
X0156290Y0126269D01*
X0156290Y0128071D02*
X0156290Y0130873D01*
X0156290Y0129472D02*
X0152087Y0129472D01*
X0153488Y0128071D01*
X0152787Y0132675D02*
X0152087Y0133375D01*
X0152087Y0134777D01*
X0152787Y0135477D01*
X0155590Y0132675D01*
X0156290Y0133375D01*
X0156290Y0134777D01*
X0155590Y0135477D01*
X0152787Y0135477D01*
X0153740Y0140389D02*
X0157944Y0140389D01*
X0157944Y0143191D01*
X0157944Y0144993D02*
X0157944Y0147795D01*
X0157944Y0146394D02*
X0153740Y0146394D01*
X0155142Y0144993D01*
X0160017Y0146879D02*
X0160017Y0140580D01*
X0160017Y0138611D02*
X0163167Y0138611D01*
X0168679Y0138611D01*
X0171828Y0138611D01*
X0171828Y0148847D01*
X0168679Y0148847D01*
X0163167Y0148847D01*
X0160017Y0148847D01*
X0160017Y0138611D01*
X0163167Y0138217D02*
X0162379Y0134674D01*
X0169466Y0134674D01*
X0168679Y0138217D01*
X0171828Y0140580D02*
X0171828Y0146879D01*
X0168679Y0149241D02*
X0169466Y0152784D01*
X0162379Y0152784D01*
X0163167Y0149241D01*
X0168679Y0148847D02*
X0168810Y0148769D01*
X0168940Y0148688D01*
X0169067Y0148603D01*
X0169192Y0148515D01*
X0169314Y0148424D01*
X0169434Y0148329D01*
X0169552Y0148232D01*
X0169667Y0148131D01*
X0169780Y0148028D01*
X0169890Y0147922D01*
X0169997Y0147813D01*
X0170101Y0147701D01*
X0170202Y0147586D01*
X0170300Y0147469D01*
X0170396Y0147350D01*
X0170488Y0147228D01*
X0170577Y0147104D01*
X0170662Y0146977D01*
X0170745Y0146848D01*
X0170824Y0146717D01*
X0170899Y0146585D01*
X0170971Y0146450D01*
X0171040Y0146313D01*
X0171105Y0146175D01*
X0171166Y0146035D01*
X0171224Y0145894D01*
X0171278Y0145751D01*
X0171329Y0145606D01*
X0171376Y0145461D01*
X0171418Y0145314D01*
X0171458Y0145166D01*
X0171493Y0145018D01*
X0171524Y0144868D01*
X0171552Y0144718D01*
X0171575Y0144567D01*
X0171595Y0144415D01*
X0171611Y0144263D01*
X0171623Y0144111D01*
X0171631Y0143958D01*
X0171635Y0143805D01*
X0171635Y0143653D01*
X0171631Y0143500D01*
X0171623Y0143347D01*
X0171611Y0143195D01*
X0171595Y0143043D01*
X0171575Y0142891D01*
X0171552Y0142740D01*
X0171524Y0142590D01*
X0171493Y0142440D01*
X0171458Y0142292D01*
X0171418Y0142144D01*
X0171376Y0141997D01*
X0171329Y0141852D01*
X0171278Y0141707D01*
X0171224Y0141564D01*
X0171166Y0141423D01*
X0171105Y0141283D01*
X0171040Y0141145D01*
X0170971Y0141008D01*
X0170899Y0140873D01*
X0170824Y0140741D01*
X0170745Y0140610D01*
X0170662Y0140481D01*
X0170577Y0140354D01*
X0170488Y0140230D01*
X0170396Y0140108D01*
X0170300Y0139989D01*
X0170202Y0139872D01*
X0170101Y0139757D01*
X0169997Y0139645D01*
X0169890Y0139536D01*
X0169780Y0139430D01*
X0169667Y0139327D01*
X0169552Y0139226D01*
X0169434Y0139129D01*
X0169314Y0139034D01*
X0169192Y0138943D01*
X0169067Y0138855D01*
X0168940Y0138770D01*
X0168810Y0138689D01*
X0168679Y0138611D01*
X0163167Y0138611D02*
X0163036Y0138689D01*
X0162906Y0138770D01*
X0162779Y0138855D01*
X0162654Y0138943D01*
X0162532Y0139034D01*
X0162412Y0139129D01*
X0162294Y0139226D01*
X0162179Y0139327D01*
X0162066Y0139430D01*
X0161956Y0139536D01*
X0161849Y0139645D01*
X0161745Y0139757D01*
X0161644Y0139872D01*
X0161546Y0139989D01*
X0161450Y0140108D01*
X0161358Y0140230D01*
X0161269Y0140354D01*
X0161184Y0140481D01*
X0161101Y0140610D01*
X0161022Y0140741D01*
X0160947Y0140873D01*
X0160875Y0141008D01*
X0160806Y0141145D01*
X0160741Y0141283D01*
X0160680Y0141423D01*
X0160622Y0141564D01*
X0160568Y0141707D01*
X0160517Y0141852D01*
X0160470Y0141997D01*
X0160428Y0142144D01*
X0160388Y0142292D01*
X0160353Y0142440D01*
X0160322Y0142590D01*
X0160294Y0142740D01*
X0160271Y0142891D01*
X0160251Y0143043D01*
X0160235Y0143195D01*
X0160223Y0143347D01*
X0160215Y0143500D01*
X0160211Y0143653D01*
X0160211Y0143805D01*
X0160215Y0143958D01*
X0160223Y0144111D01*
X0160235Y0144263D01*
X0160251Y0144415D01*
X0160271Y0144567D01*
X0160294Y0144718D01*
X0160322Y0144868D01*
X0160353Y0145018D01*
X0160388Y0145166D01*
X0160428Y0145314D01*
X0160470Y0145461D01*
X0160517Y0145606D01*
X0160568Y0145751D01*
X0160622Y0145894D01*
X0160680Y0146035D01*
X0160741Y0146175D01*
X0160806Y0146313D01*
X0160875Y0146450D01*
X0160947Y0146585D01*
X0161022Y0146717D01*
X0161101Y0146848D01*
X0161184Y0146977D01*
X0161269Y0147104D01*
X0161358Y0147228D01*
X0161450Y0147350D01*
X0161546Y0147469D01*
X0161644Y0147586D01*
X0161745Y0147701D01*
X0161849Y0147813D01*
X0161956Y0147922D01*
X0162066Y0148028D01*
X0162179Y0148131D01*
X0162294Y0148232D01*
X0162412Y0148329D01*
X0162532Y0148424D01*
X0162654Y0148515D01*
X0162779Y0148603D01*
X0162906Y0148688D01*
X0163036Y0148769D01*
X0163167Y0148847D01*
X0148397Y0148457D02*
X0146995Y0147056D01*
X0146995Y0147756D02*
X0146995Y0145655D01*
X0148397Y0145655D02*
X0144193Y0145655D01*
X0144193Y0147756D01*
X0144894Y0148457D01*
X0146295Y0148457D01*
X0146995Y0147756D01*
X0147696Y0150259D02*
X0148397Y0150959D01*
X0148397Y0152360D01*
X0147696Y0153061D01*
X0146995Y0153061D01*
X0146295Y0152360D01*
X0146295Y0151660D01*
X0146295Y0152360D02*
X0145594Y0153061D01*
X0144894Y0153061D01*
X0144193Y0152360D01*
X0144193Y0150959D01*
X0144894Y0150259D01*
X0141034Y0150217D02*
X0136831Y0150217D01*
X0136831Y0152318D01*
X0137531Y0153019D01*
X0138933Y0153019D01*
X0139633Y0152318D01*
X0139633Y0150217D01*
X0139633Y0151618D02*
X0141034Y0153019D01*
X0140334Y0154820D02*
X0141034Y0155521D01*
X0141034Y0156922D01*
X0140334Y0157623D01*
X0138933Y0157623D01*
X0138232Y0156922D01*
X0138232Y0156222D01*
X0138933Y0154820D01*
X0136831Y0154820D01*
X0136831Y0157623D01*
X0131958Y0153204D02*
X0131913Y0153129D01*
X0131865Y0153057D01*
X0131813Y0152986D01*
X0131758Y0152919D01*
X0131701Y0152853D01*
X0131640Y0152791D01*
X0131577Y0152731D01*
X0131511Y0152673D01*
X0131443Y0152619D01*
X0131372Y0152568D01*
X0131300Y0152520D01*
X0131225Y0152476D01*
X0131148Y0152434D01*
X0131070Y0152396D01*
X0130990Y0152362D01*
X0130908Y0152331D01*
X0130825Y0152304D01*
X0130742Y0152281D01*
X0130657Y0152261D01*
X0130571Y0152245D01*
X0130485Y0152233D01*
X0130398Y0152224D01*
X0130311Y0152220D01*
X0130224Y0152219D01*
X0130137Y0152222D01*
X0130050Y0152229D01*
X0129964Y0152240D01*
X0129878Y0152255D01*
X0129793Y0152274D01*
X0129708Y0152296D01*
X0129625Y0152322D01*
X0129543Y0152351D01*
X0129463Y0152385D01*
X0129384Y0152421D01*
X0129306Y0152461D01*
X0129231Y0152505D01*
X0129158Y0152552D01*
X0129086Y0152602D01*
X0129017Y0152655D01*
X0128951Y0152711D01*
X0128887Y0152770D01*
X0128825Y0152832D01*
X0128767Y0152897D01*
X0128711Y0152964D01*
X0128658Y0153033D01*
X0128609Y0153105D01*
X0128563Y0153178D01*
X0128520Y0153254D01*
X0128480Y0153332D01*
X0128444Y0153411D01*
X0128411Y0153492D01*
X0128382Y0153574D01*
X0128357Y0153657D01*
X0128335Y0153742D01*
X0128317Y0153827D01*
X0128303Y0153913D01*
X0128293Y0154000D01*
X0128287Y0154086D01*
X0128284Y0154173D01*
X0128285Y0154261D01*
X0128290Y0154348D01*
X0128299Y0154434D01*
X0128312Y0154520D01*
X0128329Y0154606D01*
X0128349Y0154691D01*
X0128373Y0154774D01*
X0128401Y0154857D01*
X0128432Y0154938D01*
X0128467Y0155018D01*
X0128506Y0155096D01*
X0128548Y0155172D01*
X0117207Y0151787D02*
X0118233Y0147959D01*
X0118839Y0147609D01*
X0117332Y0146399D02*
X0114905Y0147800D01*
X0113948Y0147544D01*
X0112897Y0145723D01*
X0116538Y0143622D01*
X0117588Y0145442D01*
X0117332Y0146399D01*
X0115199Y0149711D02*
X0116600Y0152137D01*
X0117207Y0151787D01*
X0111996Y0144163D02*
X0110595Y0141736D01*
X0114236Y0139635D01*
X0115637Y0142061D01*
X0113116Y0141899D02*
X0112415Y0140685D01*
X0113335Y0138074D02*
X0111934Y0135647D01*
X0108293Y0137749D01*
X0096409Y0127229D02*
X0096409Y0124427D01*
X0093606Y0127229D01*
X0092906Y0127229D01*
X0092205Y0126529D01*
X0092205Y0125127D01*
X0092906Y0124427D01*
X0092205Y0121224D02*
X0096409Y0121224D01*
X0096409Y0119823D02*
X0096409Y0122625D01*
X0093606Y0119823D02*
X0092205Y0121224D01*
X0092205Y0118021D02*
X0096409Y0118021D01*
X0095007Y0116620D01*
X0096409Y0115219D01*
X0092205Y0115219D01*
X0092906Y0113417D02*
X0092205Y0112717D01*
X0092205Y0111316D01*
X0092906Y0110615D01*
X0093606Y0110615D01*
X0094307Y0111316D01*
X0094307Y0112717D01*
X0095007Y0113417D01*
X0095708Y0113417D01*
X0096409Y0112717D01*
X0096409Y0111316D01*
X0095708Y0110615D01*
X0129784Y0135724D02*
X0129784Y0137825D01*
X0130484Y0138526D01*
X0131885Y0138526D01*
X0132586Y0137825D01*
X0132586Y0135724D01*
X0132586Y0137125D02*
X0133987Y0138526D01*
X0133287Y0140328D02*
X0133987Y0141028D01*
X0133987Y0142429D01*
X0133287Y0143130D01*
X0130484Y0143130D01*
X0129784Y0142429D01*
X0129784Y0141028D01*
X0130484Y0140328D01*
X0131185Y0140328D01*
X0131885Y0141028D01*
X0131885Y0143130D01*
X0137000Y0141681D02*
X0138401Y0140280D01*
X0137000Y0141681D02*
X0141204Y0141681D01*
X0141204Y0140280D02*
X0141204Y0143083D01*
X0137000Y0138479D02*
X0137000Y0135676D01*
X0137000Y0137078D02*
X0141204Y0137078D01*
X0133987Y0135724D02*
X0129784Y0135724D01*
X0126053Y0142975D02*
X0126096Y0143052D01*
X0126135Y0143131D01*
X0126170Y0143212D01*
X0126202Y0143295D01*
X0126230Y0143379D01*
X0126254Y0143464D01*
X0126274Y0143550D01*
X0126290Y0143636D01*
X0126303Y0143724D01*
X0126311Y0143812D01*
X0126316Y0143900D01*
X0126317Y0143988D01*
X0126313Y0144077D01*
X0126306Y0144165D01*
X0126295Y0144252D01*
X0126280Y0144340D01*
X0126261Y0144426D01*
X0126238Y0144511D01*
X0126211Y0144595D01*
X0126181Y0144678D01*
X0126147Y0144760D01*
X0126109Y0144840D01*
X0126068Y0144918D01*
X0126023Y0144994D01*
X0125975Y0145068D01*
X0125923Y0145140D01*
X0125869Y0145210D01*
X0125811Y0145277D01*
X0125751Y0145341D01*
X0125687Y0145402D01*
X0125621Y0145461D01*
X0125552Y0145517D01*
X0125481Y0145569D01*
X0125408Y0145618D01*
X0125332Y0145664D01*
X0125255Y0145707D01*
X0125176Y0145746D01*
X0125095Y0145781D01*
X0125012Y0145813D01*
X0124928Y0145841D01*
X0124843Y0145865D01*
X0124757Y0145885D01*
X0124671Y0145901D01*
X0124583Y0145914D01*
X0124495Y0145922D01*
X0124407Y0145927D01*
X0124319Y0145928D01*
X0124230Y0145924D01*
X0124142Y0145917D01*
X0124055Y0145906D01*
X0123967Y0145891D01*
X0123881Y0145872D01*
X0123796Y0145849D01*
X0123712Y0145822D01*
X0123629Y0145792D01*
X0123547Y0145758D01*
X0123467Y0145720D01*
X0123389Y0145679D01*
X0123313Y0145634D01*
X0123239Y0145586D01*
X0123167Y0145534D01*
X0123097Y0145480D01*
X0123030Y0145422D01*
X0122966Y0145362D01*
X0122905Y0145298D01*
X0122846Y0145232D01*
X0122790Y0145163D01*
X0122738Y0145092D01*
X0122689Y0145019D01*
X0122643Y0144943D01*
X0124862Y0166235D02*
X0124862Y0168337D01*
X0125563Y0169038D01*
X0126964Y0169038D01*
X0127665Y0168337D01*
X0127665Y0166235D01*
X0129066Y0166235D02*
X0124862Y0166235D01*
X0127665Y0167637D02*
X0129066Y0169038D01*
X0129066Y0170839D02*
X0128365Y0170839D01*
X0125563Y0173642D01*
X0124862Y0173642D01*
X0124862Y0170839D01*
X0162681Y0193731D02*
X0162606Y0193686D01*
X0162534Y0193638D01*
X0162463Y0193586D01*
X0162396Y0193531D01*
X0162330Y0193474D01*
X0162268Y0193413D01*
X0162208Y0193350D01*
X0162150Y0193284D01*
X0162096Y0193216D01*
X0162045Y0193145D01*
X0161997Y0193073D01*
X0161953Y0192998D01*
X0161911Y0192921D01*
X0161873Y0192843D01*
X0161839Y0192763D01*
X0161808Y0192681D01*
X0161781Y0192598D01*
X0161758Y0192515D01*
X0161738Y0192430D01*
X0161722Y0192344D01*
X0161710Y0192258D01*
X0161701Y0192171D01*
X0161697Y0192084D01*
X0161696Y0191997D01*
X0161699Y0191910D01*
X0161706Y0191823D01*
X0161717Y0191737D01*
X0161732Y0191651D01*
X0161751Y0191566D01*
X0161773Y0191481D01*
X0161799Y0191398D01*
X0161828Y0191316D01*
X0161862Y0191236D01*
X0161898Y0191157D01*
X0161938Y0191079D01*
X0161982Y0191004D01*
X0162029Y0190931D01*
X0162079Y0190859D01*
X0162132Y0190790D01*
X0162188Y0190724D01*
X0162247Y0190660D01*
X0162309Y0190598D01*
X0162374Y0190540D01*
X0162441Y0190484D01*
X0162510Y0190431D01*
X0162582Y0190382D01*
X0162655Y0190336D01*
X0162731Y0190293D01*
X0162809Y0190253D01*
X0162888Y0190217D01*
X0162969Y0190184D01*
X0163051Y0190155D01*
X0163134Y0190130D01*
X0163219Y0190108D01*
X0163304Y0190090D01*
X0163390Y0190076D01*
X0163477Y0190066D01*
X0163563Y0190060D01*
X0163650Y0190057D01*
X0163738Y0190058D01*
X0163825Y0190063D01*
X0163911Y0190072D01*
X0163997Y0190085D01*
X0164083Y0190102D01*
X0164168Y0190122D01*
X0164251Y0190146D01*
X0164334Y0190174D01*
X0164415Y0190205D01*
X0164495Y0190240D01*
X0164573Y0190279D01*
X0164649Y0190321D01*
X0180023Y0210153D02*
X0180023Y0214356D01*
X0186934Y0167810D02*
X0184953Y0165829D01*
X0184953Y0164838D01*
X0185943Y0163847D01*
X0186934Y0163847D01*
X0188208Y0162573D02*
X0188208Y0161582D01*
X0189199Y0160591D01*
X0190190Y0160591D01*
X0190685Y0161087D01*
X0190685Y0162078D01*
X0189199Y0163564D01*
X0188208Y0162573D01*
X0189199Y0163564D02*
X0191180Y0163564D01*
X0192667Y0163068D01*
X0188916Y0165829D02*
X0188916Y0166819D01*
X0187925Y0167810D01*
X0186934Y0167810D01*
X0186062Y0148156D02*
X0183960Y0148156D01*
X0183960Y0143952D01*
X0186062Y0143952D01*
X0186763Y0144653D01*
X0186763Y0147455D01*
X0186062Y0148156D01*
X0188564Y0146754D02*
X0189966Y0148156D01*
X0189966Y0143952D01*
X0191367Y0143952D02*
X0188564Y0143952D01*
X0155590Y0132675D02*
X0152787Y0132675D01*
X0152087Y0123467D02*
X0156290Y0123467D01*
X0020254Y0171288D02*
X0020269Y0172472D01*
X0020312Y0173654D01*
X0020385Y0174836D01*
X0020486Y0176015D01*
X0020617Y0177192D01*
X0020776Y0178365D01*
X0020964Y0179533D01*
X0021181Y0180697D01*
X0021426Y0181855D01*
X0021699Y0183006D01*
X0022001Y0184151D01*
X0022331Y0185288D01*
X0022688Y0186416D01*
X0023073Y0187536D01*
X0023486Y0188645D01*
X0023925Y0189744D01*
X0024391Y0190832D01*
X0024884Y0191908D01*
X0025404Y0192972D01*
X0025949Y0194023D01*
X0026519Y0195059D01*
X0027115Y0196082D01*
X0027736Y0197090D01*
X0028382Y0198082D01*
X0029052Y0199058D01*
X0029745Y0200017D01*
X0030462Y0200959D01*
X0031201Y0201884D01*
X0031963Y0202789D01*
X0032747Y0203676D01*
X0033553Y0204543D01*
X0034380Y0205390D01*
X0035227Y0206217D01*
X0036094Y0207023D01*
X0036981Y0207807D01*
X0037886Y0208569D01*
X0038811Y0209308D01*
X0039753Y0210025D01*
X0040712Y0210718D01*
X0041688Y0211388D01*
X0042680Y0212034D01*
X0043688Y0212655D01*
X0044711Y0213251D01*
X0045747Y0213821D01*
X0046798Y0214366D01*
X0047862Y0214886D01*
X0048938Y0215379D01*
X0050026Y0215845D01*
X0051125Y0216284D01*
X0052234Y0216697D01*
X0053354Y0217082D01*
X0054482Y0217439D01*
X0055619Y0217769D01*
X0056764Y0218071D01*
X0057915Y0218344D01*
X0059073Y0218589D01*
X0060237Y0218806D01*
X0061405Y0218994D01*
X0062578Y0219153D01*
X0063755Y0219284D01*
X0064934Y0219385D01*
X0066116Y0219458D01*
X0067298Y0219501D01*
X0068482Y0219516D01*
X0069666Y0219501D01*
X0070848Y0219458D01*
X0072030Y0219385D01*
X0073209Y0219284D01*
X0074386Y0219153D01*
X0075559Y0218994D01*
X0076727Y0218806D01*
X0077891Y0218589D01*
X0079049Y0218344D01*
X0080200Y0218071D01*
X0081345Y0217769D01*
X0082482Y0217439D01*
X0083610Y0217082D01*
X0084730Y0216697D01*
X0085839Y0216284D01*
X0086938Y0215845D01*
X0088026Y0215379D01*
X0089102Y0214886D01*
X0090166Y0214366D01*
X0091217Y0213821D01*
X0092253Y0213251D01*
X0093276Y0212655D01*
X0094284Y0212034D01*
X0095276Y0211388D01*
X0096252Y0210718D01*
X0097211Y0210025D01*
X0098153Y0209308D01*
X0099078Y0208569D01*
X0099983Y0207807D01*
X0100870Y0207023D01*
X0101737Y0206217D01*
X0102584Y0205390D01*
X0103411Y0204543D01*
X0104217Y0203676D01*
X0105001Y0202789D01*
X0105763Y0201884D01*
X0106502Y0200959D01*
X0107219Y0200017D01*
X0107912Y0199058D01*
X0108582Y0198082D01*
X0109228Y0197090D01*
X0109849Y0196082D01*
X0110445Y0195059D01*
X0111015Y0194023D01*
X0111560Y0192972D01*
X0112080Y0191908D01*
X0112573Y0190832D01*
X0113039Y0189744D01*
X0113478Y0188645D01*
X0113891Y0187536D01*
X0114276Y0186416D01*
X0114633Y0185288D01*
X0114963Y0184151D01*
X0115265Y0183006D01*
X0115538Y0181855D01*
X0115783Y0180697D01*
X0116000Y0179533D01*
X0116188Y0178365D01*
X0116347Y0177192D01*
X0116478Y0176015D01*
X0116579Y0174836D01*
X0116652Y0173654D01*
X0116695Y0172472D01*
X0116710Y0171288D01*
X0116695Y0170104D01*
X0116652Y0168922D01*
X0116579Y0167740D01*
X0116478Y0166561D01*
X0116347Y0165384D01*
X0116188Y0164211D01*
X0116000Y0163043D01*
X0115783Y0161879D01*
X0115538Y0160721D01*
X0115265Y0159570D01*
X0114963Y0158425D01*
X0114633Y0157288D01*
X0114276Y0156160D01*
X0113891Y0155040D01*
X0113478Y0153931D01*
X0113039Y0152832D01*
X0112573Y0151744D01*
X0112080Y0150668D01*
X0111560Y0149604D01*
X0111015Y0148553D01*
X0110445Y0147517D01*
X0109849Y0146494D01*
X0109228Y0145486D01*
X0108582Y0144494D01*
X0107912Y0143518D01*
X0107219Y0142559D01*
X0106502Y0141617D01*
X0105763Y0140692D01*
X0105001Y0139787D01*
X0104217Y0138900D01*
X0103411Y0138033D01*
X0102584Y0137186D01*
X0101737Y0136359D01*
X0100870Y0135553D01*
X0099983Y0134769D01*
X0099078Y0134007D01*
X0098153Y0133268D01*
X0097211Y0132551D01*
X0096252Y0131858D01*
X0095276Y0131188D01*
X0094284Y0130542D01*
X0093276Y0129921D01*
X0092253Y0129325D01*
X0091217Y0128755D01*
X0090166Y0128210D01*
X0089102Y0127690D01*
X0088026Y0127197D01*
X0086938Y0126731D01*
X0085839Y0126292D01*
X0084730Y0125879D01*
X0083610Y0125494D01*
X0082482Y0125137D01*
X0081345Y0124807D01*
X0080200Y0124505D01*
X0079049Y0124232D01*
X0077891Y0123987D01*
X0076727Y0123770D01*
X0075559Y0123582D01*
X0074386Y0123423D01*
X0073209Y0123292D01*
X0072030Y0123191D01*
X0070848Y0123118D01*
X0069666Y0123075D01*
X0068482Y0123060D01*
X0067298Y0123075D01*
X0066116Y0123118D01*
X0064934Y0123191D01*
X0063755Y0123292D01*
X0062578Y0123423D01*
X0061405Y0123582D01*
X0060237Y0123770D01*
X0059073Y0123987D01*
X0057915Y0124232D01*
X0056764Y0124505D01*
X0055619Y0124807D01*
X0054482Y0125137D01*
X0053354Y0125494D01*
X0052234Y0125879D01*
X0051125Y0126292D01*
X0050026Y0126731D01*
X0048938Y0127197D01*
X0047862Y0127690D01*
X0046798Y0128210D01*
X0045747Y0128755D01*
X0044711Y0129325D01*
X0043688Y0129921D01*
X0042680Y0130542D01*
X0041688Y0131188D01*
X0040712Y0131858D01*
X0039753Y0132551D01*
X0038811Y0133268D01*
X0037886Y0134007D01*
X0036981Y0134769D01*
X0036094Y0135553D01*
X0035227Y0136359D01*
X0034380Y0137186D01*
X0033553Y0138033D01*
X0032747Y0138900D01*
X0031963Y0139787D01*
X0031201Y0140692D01*
X0030462Y0141617D01*
X0029745Y0142559D01*
X0029052Y0143518D01*
X0028382Y0144494D01*
X0027736Y0145486D01*
X0027115Y0146494D01*
X0026519Y0147517D01*
X0025949Y0148553D01*
X0025404Y0149604D01*
X0024884Y0150668D01*
X0024391Y0151744D01*
X0023925Y0152832D01*
X0023486Y0153931D01*
X0023073Y0155040D01*
X0022688Y0156160D01*
X0022331Y0157288D01*
X0022001Y0158425D01*
X0021699Y0159570D01*
X0021426Y0160721D01*
X0021181Y0161879D01*
X0020964Y0163043D01*
X0020776Y0164211D01*
X0020617Y0165384D01*
X0020486Y0166561D01*
X0020385Y0167740D01*
X0020312Y0168922D01*
X0020269Y0170104D01*
X0020254Y0171288D01*
X0015099Y0149926D02*
X0015099Y0147124D01*
X0015099Y0148525D02*
X0010896Y0148525D01*
X0012297Y0147124D01*
X0011596Y0145322D02*
X0010896Y0144621D01*
X0010896Y0143220D01*
X0011596Y0142520D01*
X0014399Y0142520D01*
X0015099Y0143220D01*
X0015099Y0144621D01*
X0014399Y0145322D01*
X0032480Y0126578D02*
X0032480Y0125177D01*
X0033181Y0124476D01*
X0035984Y0124476D01*
X0036684Y0125177D01*
X0036684Y0126578D01*
X0035984Y0127279D01*
X0034582Y0127279D01*
X0034582Y0125878D01*
X0033181Y0127279D02*
X0032480Y0126578D01*
X0033181Y0122675D02*
X0034582Y0122675D01*
X0035283Y0121974D01*
X0035283Y0119872D01*
X0036684Y0119872D02*
X0032480Y0119872D01*
X0032480Y0121974D01*
X0033181Y0122675D01*
X0035283Y0121274D02*
X0036684Y0122675D01*
X0039799Y0124024D02*
X0039799Y0119820D01*
X0039799Y0121221D02*
X0041901Y0121221D01*
X0042601Y0121922D01*
X0042601Y0123323D01*
X0041901Y0124024D01*
X0039799Y0124024D01*
X0041200Y0121221D02*
X0042601Y0119820D01*
X0044403Y0120521D02*
X0044403Y0121221D01*
X0045104Y0121922D01*
X0046505Y0121922D01*
X0047205Y0121221D01*
X0047205Y0120521D01*
X0046505Y0119820D01*
X0045104Y0119820D01*
X0044403Y0120521D01*
X0045104Y0121922D02*
X0044403Y0122622D01*
X0044403Y0123323D01*
X0045104Y0124024D01*
X0046505Y0124024D01*
X0047205Y0123323D01*
X0047205Y0122622D01*
X0046505Y0121922D01*
X0036684Y0118071D02*
X0032480Y0118071D01*
X0034582Y0118071D02*
X0034582Y0115268D01*
X0036684Y0115268D02*
X0032480Y0115268D01*
X0033181Y0113467D02*
X0032480Y0112766D01*
X0032480Y0111365D01*
X0033181Y0110665D01*
X0035984Y0110665D01*
X0036684Y0111365D01*
X0036684Y0112766D01*
X0035984Y0113467D01*
X0034260Y0212413D02*
X0031457Y0212413D01*
X0032858Y0212413D02*
X0032858Y0216616D01*
X0031457Y0215215D01*
X0029656Y0216616D02*
X0026853Y0216616D01*
X0028255Y0216616D02*
X0028255Y0212413D01*
X0025052Y0212413D02*
X0025052Y0215215D01*
X0023651Y0216616D01*
X0022249Y0215215D01*
X0022249Y0212413D01*
X0020448Y0213113D02*
X0019747Y0212413D01*
X0017646Y0212413D01*
X0017646Y0216616D01*
X0019747Y0216616D01*
X0020448Y0215916D01*
X0020448Y0215215D01*
X0019747Y0214514D01*
X0017646Y0214514D01*
X0019747Y0214514D02*
X0020448Y0213814D01*
X0020448Y0213113D01*
X0022249Y0214514D02*
X0025052Y0214514D01*
X0256395Y0031043D02*
X0256482Y0031041D01*
X0256569Y0031035D01*
X0256656Y0031026D01*
X0256742Y0031012D01*
X0256827Y0030995D01*
X0256912Y0030974D01*
X0256995Y0030949D01*
X0257078Y0030921D01*
X0257159Y0030889D01*
X0257238Y0030853D01*
X0257316Y0030814D01*
X0257392Y0030772D01*
X0257466Y0030726D01*
X0257538Y0030677D01*
X0257608Y0030625D01*
X0257675Y0030570D01*
X0257740Y0030512D01*
X0257803Y0030451D01*
X0257862Y0030387D01*
X0257919Y0030321D01*
X0257972Y0030252D01*
X0258023Y0030181D01*
X0258070Y0030108D01*
X0258115Y0030033D01*
X0258155Y0029956D01*
X0258193Y0029878D01*
X0258226Y0029797D01*
X0258257Y0029716D01*
X0258283Y0029633D01*
X0258306Y0029548D01*
X0258325Y0029463D01*
X0258340Y0029378D01*
X0258352Y0029291D01*
X0258360Y0029205D01*
X0258364Y0029118D01*
X0258364Y0029030D01*
X0258360Y0028943D01*
X0258352Y0028857D01*
X0258340Y0028770D01*
X0258325Y0028685D01*
X0258306Y0028600D01*
X0258283Y0028515D01*
X0258257Y0028432D01*
X0258226Y0028351D01*
X0258193Y0028270D01*
X0258155Y0028192D01*
X0258115Y0028115D01*
X0258070Y0028040D01*
X0258023Y0027967D01*
X0257972Y0027896D01*
X0257919Y0027827D01*
X0257862Y0027761D01*
X0257803Y0027697D01*
X0257740Y0027636D01*
X0257675Y0027578D01*
X0257608Y0027523D01*
X0257538Y0027471D01*
X0257466Y0027422D01*
X0257392Y0027376D01*
X0257316Y0027334D01*
X0257238Y0027295D01*
X0257159Y0027259D01*
X0257078Y0027227D01*
X0256995Y0027199D01*
X0256912Y0027174D01*
X0256827Y0027153D01*
X0256742Y0027136D01*
X0256656Y0027122D01*
X0256569Y0027113D01*
X0256482Y0027107D01*
X0256395Y0027105D01*
D16*
X0256198Y0026121D02*
X0268403Y0026121D01*
X0268403Y0032026D02*
X0256198Y0032026D01*
X0295539Y0044830D02*
X0306109Y0050932D01*
X0309062Y0045818D02*
X0298492Y0039715D01*
X0330822Y0073562D02*
X0336925Y0084132D01*
X0331810Y0087085D02*
X0325708Y0076515D01*
X0331810Y0147312D02*
X0325708Y0157882D01*
X0330822Y0160835D02*
X0336925Y0150265D01*
X0306109Y0183465D02*
X0295539Y0189568D01*
X0298492Y0194682D02*
X0309062Y0188580D01*
X0265903Y0202371D02*
X0253698Y0202371D01*
X0253698Y0208276D02*
X0265903Y0208276D01*
X0205903Y0208276D02*
X0193698Y0208276D01*
X0193698Y0202371D02*
X0205903Y0202371D01*
X0165312Y0189568D02*
X0154742Y0183465D01*
X0151789Y0188580D02*
X0162359Y0194682D01*
X0149724Y0197870D02*
X0149724Y0204473D01*
X0150192Y0204941D01*
X0150192Y0214465D01*
X0149724Y0214933D01*
X0149724Y0221478D01*
X0127987Y0221478D01*
X0127987Y0213531D01*
X0126351Y0213531D01*
X0126351Y0205759D01*
X0127987Y0205759D01*
X0127987Y0197870D01*
X0149724Y0197870D01*
X0149490Y0198805D02*
X0143297Y0198805D01*
X0143121Y0199215D02*
X0143121Y0198104D01*
X0143121Y0199215D02*
X0134649Y0199215D01*
X0134649Y0198805D01*
X0134649Y0198046D01*
X0134649Y0198805D02*
X0128162Y0198805D01*
X0132370Y0209674D02*
X0132372Y0209834D01*
X0132378Y0209995D01*
X0132388Y0210155D01*
X0132402Y0210315D01*
X0132420Y0210474D01*
X0132441Y0210633D01*
X0132467Y0210792D01*
X0132497Y0210949D01*
X0132530Y0211106D01*
X0132567Y0211262D01*
X0132609Y0211417D01*
X0132654Y0211571D01*
X0132702Y0211724D01*
X0132755Y0211876D01*
X0132811Y0212026D01*
X0132871Y0212175D01*
X0132935Y0212322D01*
X0133002Y0212468D01*
X0133073Y0212611D01*
X0133148Y0212754D01*
X0133226Y0212894D01*
X0133307Y0213032D01*
X0133392Y0213168D01*
X0133480Y0213302D01*
X0133571Y0213434D01*
X0133666Y0213564D01*
X0133764Y0213691D01*
X0133865Y0213816D01*
X0133969Y0213938D01*
X0134076Y0214058D01*
X0134185Y0214174D01*
X0134298Y0214289D01*
X0134414Y0214400D01*
X0134532Y0214508D01*
X0134653Y0214614D01*
X0134776Y0214716D01*
X0134902Y0214816D01*
X0135031Y0214912D01*
X0135161Y0215005D01*
X0135294Y0215095D01*
X0135430Y0215181D01*
X0135567Y0215264D01*
X0135706Y0215344D01*
X0135847Y0215420D01*
X0135990Y0215493D01*
X0136135Y0215562D01*
X0136282Y0215627D01*
X0136430Y0215689D01*
X0136579Y0215747D01*
X0136730Y0215802D01*
X0136882Y0215852D01*
X0137036Y0215899D01*
X0137190Y0215942D01*
X0137346Y0215982D01*
X0137502Y0216017D01*
X0137660Y0216049D01*
X0137818Y0216076D01*
X0137976Y0216100D01*
X0138135Y0216120D01*
X0138295Y0216136D01*
X0138455Y0216148D01*
X0138615Y0216156D01*
X0138776Y0216160D01*
X0138936Y0216160D01*
X0139097Y0216156D01*
X0139257Y0216148D01*
X0139417Y0216136D01*
X0139577Y0216120D01*
X0139736Y0216100D01*
X0139894Y0216076D01*
X0140052Y0216049D01*
X0140210Y0216017D01*
X0140366Y0215982D01*
X0140522Y0215942D01*
X0140676Y0215899D01*
X0140830Y0215852D01*
X0140982Y0215802D01*
X0141133Y0215747D01*
X0141282Y0215689D01*
X0141430Y0215627D01*
X0141577Y0215562D01*
X0141722Y0215493D01*
X0141865Y0215420D01*
X0142006Y0215344D01*
X0142145Y0215264D01*
X0142282Y0215181D01*
X0142418Y0215095D01*
X0142551Y0215005D01*
X0142681Y0214912D01*
X0142810Y0214816D01*
X0142936Y0214716D01*
X0143059Y0214614D01*
X0143180Y0214508D01*
X0143298Y0214400D01*
X0143414Y0214289D01*
X0143527Y0214174D01*
X0143636Y0214058D01*
X0143743Y0213938D01*
X0143847Y0213816D01*
X0143948Y0213691D01*
X0144046Y0213564D01*
X0144141Y0213434D01*
X0144232Y0213302D01*
X0144320Y0213168D01*
X0144405Y0213032D01*
X0144486Y0212894D01*
X0144564Y0212754D01*
X0144639Y0212611D01*
X0144710Y0212468D01*
X0144777Y0212322D01*
X0144841Y0212175D01*
X0144901Y0212026D01*
X0144957Y0211876D01*
X0145010Y0211724D01*
X0145058Y0211571D01*
X0145103Y0211417D01*
X0145145Y0211262D01*
X0145182Y0211106D01*
X0145215Y0210949D01*
X0145245Y0210792D01*
X0145271Y0210633D01*
X0145292Y0210474D01*
X0145310Y0210315D01*
X0145324Y0210155D01*
X0145334Y0209995D01*
X0145340Y0209834D01*
X0145342Y0209674D01*
X0145340Y0209514D01*
X0145334Y0209353D01*
X0145324Y0209193D01*
X0145310Y0209033D01*
X0145292Y0208874D01*
X0145271Y0208715D01*
X0145245Y0208556D01*
X0145215Y0208399D01*
X0145182Y0208242D01*
X0145145Y0208086D01*
X0145103Y0207931D01*
X0145058Y0207777D01*
X0145010Y0207624D01*
X0144957Y0207472D01*
X0144901Y0207322D01*
X0144841Y0207173D01*
X0144777Y0207026D01*
X0144710Y0206880D01*
X0144639Y0206737D01*
X0144564Y0206594D01*
X0144486Y0206454D01*
X0144405Y0206316D01*
X0144320Y0206180D01*
X0144232Y0206046D01*
X0144141Y0205914D01*
X0144046Y0205784D01*
X0143948Y0205657D01*
X0143847Y0205532D01*
X0143743Y0205410D01*
X0143636Y0205290D01*
X0143527Y0205174D01*
X0143414Y0205059D01*
X0143298Y0204948D01*
X0143180Y0204840D01*
X0143059Y0204734D01*
X0142936Y0204632D01*
X0142810Y0204532D01*
X0142681Y0204436D01*
X0142551Y0204343D01*
X0142418Y0204253D01*
X0142282Y0204167D01*
X0142145Y0204084D01*
X0142006Y0204004D01*
X0141865Y0203928D01*
X0141722Y0203855D01*
X0141577Y0203786D01*
X0141430Y0203721D01*
X0141282Y0203659D01*
X0141133Y0203601D01*
X0140982Y0203546D01*
X0140830Y0203496D01*
X0140676Y0203449D01*
X0140522Y0203406D01*
X0140366Y0203366D01*
X0140210Y0203331D01*
X0140052Y0203299D01*
X0139894Y0203272D01*
X0139736Y0203248D01*
X0139577Y0203228D01*
X0139417Y0203212D01*
X0139257Y0203200D01*
X0139097Y0203192D01*
X0138936Y0203188D01*
X0138776Y0203188D01*
X0138615Y0203192D01*
X0138455Y0203200D01*
X0138295Y0203212D01*
X0138135Y0203228D01*
X0137976Y0203248D01*
X0137818Y0203272D01*
X0137660Y0203299D01*
X0137502Y0203331D01*
X0137346Y0203366D01*
X0137190Y0203406D01*
X0137036Y0203449D01*
X0136882Y0203496D01*
X0136730Y0203546D01*
X0136579Y0203601D01*
X0136430Y0203659D01*
X0136282Y0203721D01*
X0136135Y0203786D01*
X0135990Y0203855D01*
X0135847Y0203928D01*
X0135706Y0204004D01*
X0135567Y0204084D01*
X0135430Y0204167D01*
X0135294Y0204253D01*
X0135161Y0204343D01*
X0135031Y0204436D01*
X0134902Y0204532D01*
X0134776Y0204632D01*
X0134653Y0204734D01*
X0134532Y0204840D01*
X0134414Y0204948D01*
X0134298Y0205059D01*
X0134185Y0205174D01*
X0134076Y0205290D01*
X0133969Y0205410D01*
X0133865Y0205532D01*
X0133764Y0205657D01*
X0133666Y0205784D01*
X0133571Y0205914D01*
X0133480Y0206046D01*
X0133392Y0206180D01*
X0133307Y0206316D01*
X0133226Y0206454D01*
X0133148Y0206594D01*
X0133073Y0206737D01*
X0133002Y0206880D01*
X0132935Y0207026D01*
X0132871Y0207173D01*
X0132811Y0207322D01*
X0132755Y0207472D01*
X0132702Y0207624D01*
X0132654Y0207777D01*
X0132609Y0207931D01*
X0132567Y0208086D01*
X0132530Y0208242D01*
X0132497Y0208399D01*
X0132467Y0208556D01*
X0132441Y0208715D01*
X0132420Y0208874D01*
X0132402Y0209033D01*
X0132388Y0209193D01*
X0132378Y0209353D01*
X0132372Y0209514D01*
X0132370Y0209674D01*
X0133831Y0209674D02*
X0133833Y0209816D01*
X0133839Y0209957D01*
X0133849Y0210098D01*
X0133863Y0210239D01*
X0133881Y0210380D01*
X0133903Y0210519D01*
X0133928Y0210659D01*
X0133958Y0210797D01*
X0133992Y0210935D01*
X0134029Y0211071D01*
X0134070Y0211207D01*
X0134115Y0211341D01*
X0134164Y0211474D01*
X0134217Y0211605D01*
X0134273Y0211735D01*
X0134333Y0211863D01*
X0134397Y0211990D01*
X0134464Y0212115D01*
X0134534Y0212237D01*
X0134608Y0212358D01*
X0134685Y0212477D01*
X0134766Y0212593D01*
X0134850Y0212707D01*
X0134937Y0212819D01*
X0135027Y0212928D01*
X0135120Y0213035D01*
X0135216Y0213139D01*
X0135315Y0213240D01*
X0135417Y0213338D01*
X0135522Y0213433D01*
X0135629Y0213526D01*
X0135739Y0213615D01*
X0135851Y0213702D01*
X0135966Y0213785D01*
X0136083Y0213864D01*
X0136202Y0213941D01*
X0136323Y0214014D01*
X0136446Y0214084D01*
X0136572Y0214150D01*
X0136699Y0214212D01*
X0136827Y0214271D01*
X0136958Y0214327D01*
X0137089Y0214378D01*
X0137223Y0214426D01*
X0137357Y0214470D01*
X0137493Y0214511D01*
X0137630Y0214547D01*
X0137767Y0214580D01*
X0137906Y0214608D01*
X0138045Y0214633D01*
X0138185Y0214654D01*
X0138326Y0214671D01*
X0138467Y0214684D01*
X0138608Y0214693D01*
X0138750Y0214698D01*
X0138891Y0214699D01*
X0139033Y0214696D01*
X0139174Y0214689D01*
X0139316Y0214678D01*
X0139456Y0214663D01*
X0139597Y0214644D01*
X0139736Y0214621D01*
X0139875Y0214595D01*
X0140014Y0214564D01*
X0140151Y0214529D01*
X0140287Y0214491D01*
X0140422Y0214449D01*
X0140556Y0214403D01*
X0140689Y0214353D01*
X0140820Y0214299D01*
X0140949Y0214242D01*
X0141077Y0214181D01*
X0141203Y0214117D01*
X0141328Y0214049D01*
X0141450Y0213978D01*
X0141570Y0213903D01*
X0141688Y0213825D01*
X0141804Y0213743D01*
X0141917Y0213659D01*
X0142028Y0213571D01*
X0142137Y0213480D01*
X0142243Y0213386D01*
X0142346Y0213289D01*
X0142447Y0213189D01*
X0142544Y0213087D01*
X0142639Y0212982D01*
X0142731Y0212874D01*
X0142819Y0212763D01*
X0142905Y0212650D01*
X0142987Y0212535D01*
X0143066Y0212418D01*
X0143141Y0212298D01*
X0143214Y0212176D01*
X0143282Y0212053D01*
X0143348Y0211927D01*
X0143409Y0211799D01*
X0143467Y0211670D01*
X0143522Y0211540D01*
X0143573Y0211407D01*
X0143620Y0211274D01*
X0143663Y0211139D01*
X0143702Y0211003D01*
X0143738Y0210866D01*
X0143769Y0210728D01*
X0143797Y0210589D01*
X0143821Y0210450D01*
X0143841Y0210309D01*
X0143857Y0210169D01*
X0143869Y0210028D01*
X0143877Y0209886D01*
X0143881Y0209745D01*
X0143881Y0209603D01*
X0143877Y0209462D01*
X0143869Y0209320D01*
X0143857Y0209179D01*
X0143841Y0209039D01*
X0143821Y0208898D01*
X0143797Y0208759D01*
X0143769Y0208620D01*
X0143738Y0208482D01*
X0143702Y0208345D01*
X0143663Y0208209D01*
X0143620Y0208074D01*
X0143573Y0207941D01*
X0143522Y0207808D01*
X0143467Y0207678D01*
X0143409Y0207549D01*
X0143348Y0207421D01*
X0143282Y0207295D01*
X0143214Y0207172D01*
X0143141Y0207050D01*
X0143066Y0206930D01*
X0142987Y0206813D01*
X0142905Y0206698D01*
X0142819Y0206585D01*
X0142731Y0206474D01*
X0142639Y0206366D01*
X0142544Y0206261D01*
X0142447Y0206159D01*
X0142346Y0206059D01*
X0142243Y0205962D01*
X0142137Y0205868D01*
X0142028Y0205777D01*
X0141917Y0205689D01*
X0141804Y0205605D01*
X0141688Y0205523D01*
X0141570Y0205445D01*
X0141450Y0205370D01*
X0141328Y0205299D01*
X0141203Y0205231D01*
X0141077Y0205167D01*
X0140949Y0205106D01*
X0140820Y0205049D01*
X0140689Y0204995D01*
X0140556Y0204945D01*
X0140422Y0204899D01*
X0140287Y0204857D01*
X0140151Y0204819D01*
X0140014Y0204784D01*
X0139875Y0204753D01*
X0139736Y0204727D01*
X0139597Y0204704D01*
X0139456Y0204685D01*
X0139316Y0204670D01*
X0139174Y0204659D01*
X0139033Y0204652D01*
X0138891Y0204649D01*
X0138750Y0204650D01*
X0138608Y0204655D01*
X0138467Y0204664D01*
X0138326Y0204677D01*
X0138185Y0204694D01*
X0138045Y0204715D01*
X0137906Y0204740D01*
X0137767Y0204768D01*
X0137630Y0204801D01*
X0137493Y0204837D01*
X0137357Y0204878D01*
X0137223Y0204922D01*
X0137089Y0204970D01*
X0136958Y0205021D01*
X0136827Y0205077D01*
X0136699Y0205136D01*
X0136572Y0205198D01*
X0136446Y0205264D01*
X0136323Y0205334D01*
X0136202Y0205407D01*
X0136083Y0205484D01*
X0135966Y0205563D01*
X0135851Y0205646D01*
X0135739Y0205733D01*
X0135629Y0205822D01*
X0135522Y0205915D01*
X0135417Y0206010D01*
X0135315Y0206108D01*
X0135216Y0206209D01*
X0135120Y0206313D01*
X0135027Y0206420D01*
X0134937Y0206529D01*
X0134850Y0206641D01*
X0134766Y0206755D01*
X0134685Y0206871D01*
X0134608Y0206990D01*
X0134534Y0207111D01*
X0134464Y0207233D01*
X0134397Y0207358D01*
X0134333Y0207485D01*
X0134273Y0207613D01*
X0134217Y0207743D01*
X0134164Y0207874D01*
X0134115Y0208007D01*
X0134070Y0208141D01*
X0134029Y0208277D01*
X0133992Y0208413D01*
X0133958Y0208551D01*
X0133928Y0208689D01*
X0133903Y0208829D01*
X0133881Y0208968D01*
X0133863Y0209109D01*
X0133849Y0209250D01*
X0133839Y0209391D01*
X0133833Y0209532D01*
X0133831Y0209674D01*
X0134649Y0220133D02*
X0143121Y0220133D01*
X0143121Y0221244D01*
X0143297Y0220542D02*
X0149490Y0220542D01*
X0134649Y0220542D02*
X0134649Y0220133D01*
X0134649Y0220542D02*
X0128162Y0220542D01*
X0134649Y0220542D02*
X0134649Y0221302D01*
X0154210Y0165087D02*
X0154210Y0157804D01*
X0158934Y0157804D02*
X0158934Y0165087D01*
X0179994Y0159132D02*
X0185144Y0153982D01*
X0188485Y0157322D02*
X0183335Y0162473D01*
X0181060Y0150028D02*
X0177911Y0150028D01*
X0177911Y0141839D01*
X0181060Y0141839D01*
X0181060Y0150028D01*
X0132909Y0152882D02*
X0126807Y0142312D01*
X0121692Y0145265D02*
X0127795Y0155835D01*
X0121624Y0130779D02*
X0115021Y0130779D01*
X0114553Y0130853D01*
X0105029Y0130853D01*
X0104561Y0130779D01*
X0098017Y0130779D01*
X0098017Y0107467D01*
X0105964Y0107467D01*
X0105964Y0107405D01*
X0113735Y0107405D01*
X0113735Y0107467D01*
X0121624Y0107467D01*
X0121624Y0130779D01*
X0120689Y0130545D02*
X0120689Y0123564D01*
X0120280Y0123389D02*
X0121390Y0123389D01*
X0120280Y0123389D02*
X0120280Y0114916D01*
X0120689Y0114916D01*
X0121449Y0114916D01*
X0120689Y0114916D02*
X0120689Y0107642D01*
X0103334Y0119123D02*
X0103336Y0119283D01*
X0103342Y0119444D01*
X0103352Y0119604D01*
X0103366Y0119764D01*
X0103384Y0119923D01*
X0103405Y0120082D01*
X0103431Y0120241D01*
X0103461Y0120398D01*
X0103494Y0120555D01*
X0103531Y0120711D01*
X0103573Y0120866D01*
X0103618Y0121020D01*
X0103666Y0121173D01*
X0103719Y0121325D01*
X0103775Y0121475D01*
X0103835Y0121624D01*
X0103899Y0121771D01*
X0103966Y0121917D01*
X0104037Y0122060D01*
X0104112Y0122203D01*
X0104190Y0122343D01*
X0104271Y0122481D01*
X0104356Y0122617D01*
X0104444Y0122751D01*
X0104535Y0122883D01*
X0104630Y0123013D01*
X0104728Y0123140D01*
X0104829Y0123265D01*
X0104933Y0123387D01*
X0105040Y0123507D01*
X0105149Y0123623D01*
X0105262Y0123738D01*
X0105378Y0123849D01*
X0105496Y0123957D01*
X0105617Y0124063D01*
X0105740Y0124165D01*
X0105866Y0124265D01*
X0105995Y0124361D01*
X0106125Y0124454D01*
X0106258Y0124544D01*
X0106394Y0124630D01*
X0106531Y0124713D01*
X0106670Y0124793D01*
X0106811Y0124869D01*
X0106954Y0124942D01*
X0107099Y0125011D01*
X0107246Y0125076D01*
X0107394Y0125138D01*
X0107543Y0125196D01*
X0107694Y0125251D01*
X0107846Y0125301D01*
X0108000Y0125348D01*
X0108154Y0125391D01*
X0108310Y0125431D01*
X0108466Y0125466D01*
X0108624Y0125498D01*
X0108782Y0125525D01*
X0108940Y0125549D01*
X0109099Y0125569D01*
X0109259Y0125585D01*
X0109419Y0125597D01*
X0109579Y0125605D01*
X0109740Y0125609D01*
X0109900Y0125609D01*
X0110061Y0125605D01*
X0110221Y0125597D01*
X0110381Y0125585D01*
X0110541Y0125569D01*
X0110700Y0125549D01*
X0110858Y0125525D01*
X0111016Y0125498D01*
X0111174Y0125466D01*
X0111330Y0125431D01*
X0111486Y0125391D01*
X0111640Y0125348D01*
X0111794Y0125301D01*
X0111946Y0125251D01*
X0112097Y0125196D01*
X0112246Y0125138D01*
X0112394Y0125076D01*
X0112541Y0125011D01*
X0112686Y0124942D01*
X0112829Y0124869D01*
X0112970Y0124793D01*
X0113109Y0124713D01*
X0113246Y0124630D01*
X0113382Y0124544D01*
X0113515Y0124454D01*
X0113645Y0124361D01*
X0113774Y0124265D01*
X0113900Y0124165D01*
X0114023Y0124063D01*
X0114144Y0123957D01*
X0114262Y0123849D01*
X0114378Y0123738D01*
X0114491Y0123623D01*
X0114600Y0123507D01*
X0114707Y0123387D01*
X0114811Y0123265D01*
X0114912Y0123140D01*
X0115010Y0123013D01*
X0115105Y0122883D01*
X0115196Y0122751D01*
X0115284Y0122617D01*
X0115369Y0122481D01*
X0115450Y0122343D01*
X0115528Y0122203D01*
X0115603Y0122060D01*
X0115674Y0121917D01*
X0115741Y0121771D01*
X0115805Y0121624D01*
X0115865Y0121475D01*
X0115921Y0121325D01*
X0115974Y0121173D01*
X0116022Y0121020D01*
X0116067Y0120866D01*
X0116109Y0120711D01*
X0116146Y0120555D01*
X0116179Y0120398D01*
X0116209Y0120241D01*
X0116235Y0120082D01*
X0116256Y0119923D01*
X0116274Y0119764D01*
X0116288Y0119604D01*
X0116298Y0119444D01*
X0116304Y0119283D01*
X0116306Y0119123D01*
X0116304Y0118963D01*
X0116298Y0118802D01*
X0116288Y0118642D01*
X0116274Y0118482D01*
X0116256Y0118323D01*
X0116235Y0118164D01*
X0116209Y0118005D01*
X0116179Y0117848D01*
X0116146Y0117691D01*
X0116109Y0117535D01*
X0116067Y0117380D01*
X0116022Y0117226D01*
X0115974Y0117073D01*
X0115921Y0116921D01*
X0115865Y0116771D01*
X0115805Y0116622D01*
X0115741Y0116475D01*
X0115674Y0116329D01*
X0115603Y0116186D01*
X0115528Y0116043D01*
X0115450Y0115903D01*
X0115369Y0115765D01*
X0115284Y0115629D01*
X0115196Y0115495D01*
X0115105Y0115363D01*
X0115010Y0115233D01*
X0114912Y0115106D01*
X0114811Y0114981D01*
X0114707Y0114859D01*
X0114600Y0114739D01*
X0114491Y0114623D01*
X0114378Y0114508D01*
X0114262Y0114397D01*
X0114144Y0114289D01*
X0114023Y0114183D01*
X0113900Y0114081D01*
X0113774Y0113981D01*
X0113645Y0113885D01*
X0113515Y0113792D01*
X0113382Y0113702D01*
X0113246Y0113616D01*
X0113109Y0113533D01*
X0112970Y0113453D01*
X0112829Y0113377D01*
X0112686Y0113304D01*
X0112541Y0113235D01*
X0112394Y0113170D01*
X0112246Y0113108D01*
X0112097Y0113050D01*
X0111946Y0112995D01*
X0111794Y0112945D01*
X0111640Y0112898D01*
X0111486Y0112855D01*
X0111330Y0112815D01*
X0111174Y0112780D01*
X0111016Y0112748D01*
X0110858Y0112721D01*
X0110700Y0112697D01*
X0110541Y0112677D01*
X0110381Y0112661D01*
X0110221Y0112649D01*
X0110061Y0112641D01*
X0109900Y0112637D01*
X0109740Y0112637D01*
X0109579Y0112641D01*
X0109419Y0112649D01*
X0109259Y0112661D01*
X0109099Y0112677D01*
X0108940Y0112697D01*
X0108782Y0112721D01*
X0108624Y0112748D01*
X0108466Y0112780D01*
X0108310Y0112815D01*
X0108154Y0112855D01*
X0108000Y0112898D01*
X0107846Y0112945D01*
X0107694Y0112995D01*
X0107543Y0113050D01*
X0107394Y0113108D01*
X0107246Y0113170D01*
X0107099Y0113235D01*
X0106954Y0113304D01*
X0106811Y0113377D01*
X0106670Y0113453D01*
X0106531Y0113533D01*
X0106394Y0113616D01*
X0106258Y0113702D01*
X0106125Y0113792D01*
X0105995Y0113885D01*
X0105866Y0113981D01*
X0105740Y0114081D01*
X0105617Y0114183D01*
X0105496Y0114289D01*
X0105378Y0114397D01*
X0105262Y0114508D01*
X0105149Y0114623D01*
X0105040Y0114739D01*
X0104933Y0114859D01*
X0104829Y0114981D01*
X0104728Y0115106D01*
X0104630Y0115233D01*
X0104535Y0115363D01*
X0104444Y0115495D01*
X0104356Y0115629D01*
X0104271Y0115765D01*
X0104190Y0115903D01*
X0104112Y0116043D01*
X0104037Y0116186D01*
X0103966Y0116329D01*
X0103899Y0116475D01*
X0103835Y0116622D01*
X0103775Y0116771D01*
X0103719Y0116921D01*
X0103666Y0117073D01*
X0103618Y0117226D01*
X0103573Y0117380D01*
X0103531Y0117535D01*
X0103494Y0117691D01*
X0103461Y0117848D01*
X0103431Y0118005D01*
X0103405Y0118164D01*
X0103384Y0118323D01*
X0103366Y0118482D01*
X0103352Y0118642D01*
X0103342Y0118802D01*
X0103336Y0118963D01*
X0103334Y0119123D01*
X0099361Y0114916D02*
X0099361Y0123389D01*
X0098251Y0123389D01*
X0098952Y0123564D02*
X0098952Y0130545D01*
X0104795Y0119123D02*
X0104797Y0119265D01*
X0104803Y0119406D01*
X0104813Y0119547D01*
X0104827Y0119688D01*
X0104845Y0119829D01*
X0104867Y0119968D01*
X0104892Y0120108D01*
X0104922Y0120246D01*
X0104956Y0120384D01*
X0104993Y0120520D01*
X0105034Y0120656D01*
X0105079Y0120790D01*
X0105128Y0120923D01*
X0105181Y0121054D01*
X0105237Y0121184D01*
X0105297Y0121312D01*
X0105361Y0121439D01*
X0105428Y0121564D01*
X0105498Y0121686D01*
X0105572Y0121807D01*
X0105649Y0121926D01*
X0105730Y0122042D01*
X0105814Y0122156D01*
X0105901Y0122268D01*
X0105991Y0122377D01*
X0106084Y0122484D01*
X0106180Y0122588D01*
X0106279Y0122689D01*
X0106381Y0122787D01*
X0106486Y0122882D01*
X0106593Y0122975D01*
X0106703Y0123064D01*
X0106815Y0123151D01*
X0106930Y0123234D01*
X0107047Y0123313D01*
X0107166Y0123390D01*
X0107287Y0123463D01*
X0107410Y0123533D01*
X0107536Y0123599D01*
X0107663Y0123661D01*
X0107791Y0123720D01*
X0107922Y0123776D01*
X0108053Y0123827D01*
X0108187Y0123875D01*
X0108321Y0123919D01*
X0108457Y0123960D01*
X0108594Y0123996D01*
X0108731Y0124029D01*
X0108870Y0124057D01*
X0109009Y0124082D01*
X0109149Y0124103D01*
X0109290Y0124120D01*
X0109431Y0124133D01*
X0109572Y0124142D01*
X0109714Y0124147D01*
X0109855Y0124148D01*
X0109997Y0124145D01*
X0110138Y0124138D01*
X0110280Y0124127D01*
X0110420Y0124112D01*
X0110561Y0124093D01*
X0110700Y0124070D01*
X0110839Y0124044D01*
X0110978Y0124013D01*
X0111115Y0123978D01*
X0111251Y0123940D01*
X0111386Y0123898D01*
X0111520Y0123852D01*
X0111653Y0123802D01*
X0111784Y0123748D01*
X0111913Y0123691D01*
X0112041Y0123630D01*
X0112167Y0123566D01*
X0112292Y0123498D01*
X0112414Y0123427D01*
X0112534Y0123352D01*
X0112652Y0123274D01*
X0112768Y0123192D01*
X0112881Y0123108D01*
X0112992Y0123020D01*
X0113101Y0122929D01*
X0113207Y0122835D01*
X0113310Y0122738D01*
X0113411Y0122638D01*
X0113508Y0122536D01*
X0113603Y0122431D01*
X0113695Y0122323D01*
X0113783Y0122212D01*
X0113869Y0122099D01*
X0113951Y0121984D01*
X0114030Y0121867D01*
X0114105Y0121747D01*
X0114178Y0121625D01*
X0114246Y0121502D01*
X0114312Y0121376D01*
X0114373Y0121248D01*
X0114431Y0121119D01*
X0114486Y0120989D01*
X0114537Y0120856D01*
X0114584Y0120723D01*
X0114627Y0120588D01*
X0114666Y0120452D01*
X0114702Y0120315D01*
X0114733Y0120177D01*
X0114761Y0120038D01*
X0114785Y0119899D01*
X0114805Y0119758D01*
X0114821Y0119618D01*
X0114833Y0119477D01*
X0114841Y0119335D01*
X0114845Y0119194D01*
X0114845Y0119052D01*
X0114841Y0118911D01*
X0114833Y0118769D01*
X0114821Y0118628D01*
X0114805Y0118488D01*
X0114785Y0118347D01*
X0114761Y0118208D01*
X0114733Y0118069D01*
X0114702Y0117931D01*
X0114666Y0117794D01*
X0114627Y0117658D01*
X0114584Y0117523D01*
X0114537Y0117390D01*
X0114486Y0117257D01*
X0114431Y0117127D01*
X0114373Y0116998D01*
X0114312Y0116870D01*
X0114246Y0116744D01*
X0114178Y0116621D01*
X0114105Y0116499D01*
X0114030Y0116379D01*
X0113951Y0116262D01*
X0113869Y0116147D01*
X0113783Y0116034D01*
X0113695Y0115923D01*
X0113603Y0115815D01*
X0113508Y0115710D01*
X0113411Y0115608D01*
X0113310Y0115508D01*
X0113207Y0115411D01*
X0113101Y0115317D01*
X0112992Y0115226D01*
X0112881Y0115138D01*
X0112768Y0115054D01*
X0112652Y0114972D01*
X0112534Y0114894D01*
X0112414Y0114819D01*
X0112292Y0114748D01*
X0112167Y0114680D01*
X0112041Y0114616D01*
X0111913Y0114555D01*
X0111784Y0114498D01*
X0111653Y0114444D01*
X0111520Y0114394D01*
X0111386Y0114348D01*
X0111251Y0114306D01*
X0111115Y0114268D01*
X0110978Y0114233D01*
X0110839Y0114202D01*
X0110700Y0114176D01*
X0110561Y0114153D01*
X0110420Y0114134D01*
X0110280Y0114119D01*
X0110138Y0114108D01*
X0109997Y0114101D01*
X0109855Y0114098D01*
X0109714Y0114099D01*
X0109572Y0114104D01*
X0109431Y0114113D01*
X0109290Y0114126D01*
X0109149Y0114143D01*
X0109009Y0114164D01*
X0108870Y0114189D01*
X0108731Y0114217D01*
X0108594Y0114250D01*
X0108457Y0114286D01*
X0108321Y0114327D01*
X0108187Y0114371D01*
X0108053Y0114419D01*
X0107922Y0114470D01*
X0107791Y0114526D01*
X0107663Y0114585D01*
X0107536Y0114647D01*
X0107410Y0114713D01*
X0107287Y0114783D01*
X0107166Y0114856D01*
X0107047Y0114933D01*
X0106930Y0115012D01*
X0106815Y0115095D01*
X0106703Y0115182D01*
X0106593Y0115271D01*
X0106486Y0115364D01*
X0106381Y0115459D01*
X0106279Y0115557D01*
X0106180Y0115658D01*
X0106084Y0115762D01*
X0105991Y0115869D01*
X0105901Y0115978D01*
X0105814Y0116090D01*
X0105730Y0116204D01*
X0105649Y0116320D01*
X0105572Y0116439D01*
X0105498Y0116560D01*
X0105428Y0116682D01*
X0105361Y0116807D01*
X0105297Y0116934D01*
X0105237Y0117062D01*
X0105181Y0117192D01*
X0105128Y0117323D01*
X0105079Y0117456D01*
X0105034Y0117590D01*
X0104993Y0117726D01*
X0104956Y0117862D01*
X0104922Y0118000D01*
X0104892Y0118138D01*
X0104867Y0118278D01*
X0104845Y0118417D01*
X0104827Y0118558D01*
X0104813Y0118699D01*
X0104803Y0118840D01*
X0104797Y0118981D01*
X0104795Y0119123D01*
X0099361Y0114916D02*
X0098952Y0114916D01*
X0098192Y0114916D01*
X0098952Y0114916D02*
X0098952Y0107642D01*
X0128057Y0087085D02*
X0134159Y0076515D01*
X0129045Y0073562D02*
X0122942Y0084132D01*
X0134033Y0063906D02*
X0134033Y0058198D01*
X0136789Y0058198D02*
X0136789Y0063906D01*
X0151060Y0063119D02*
X0151060Y0065973D01*
X0151453Y0067646D02*
X0151461Y0067579D01*
X0151473Y0067512D01*
X0151488Y0067446D01*
X0151507Y0067381D01*
X0151530Y0067318D01*
X0151557Y0067255D01*
X0151587Y0067195D01*
X0151620Y0067136D01*
X0151656Y0067079D01*
X0151696Y0067024D01*
X0151739Y0066972D01*
X0151785Y0066922D01*
X0151834Y0066875D01*
X0151885Y0066830D01*
X0151938Y0066789D01*
X0151994Y0066751D01*
X0152052Y0066716D01*
X0152112Y0066685D01*
X0152174Y0066656D01*
X0152237Y0066632D01*
X0152301Y0066611D01*
X0152367Y0066594D01*
X0152433Y0066580D01*
X0152500Y0066571D01*
X0152567Y0066565D01*
X0152635Y0066563D01*
X0152703Y0066565D01*
X0152770Y0066571D01*
X0152837Y0066580D01*
X0152903Y0066594D01*
X0152969Y0066611D01*
X0153033Y0066632D01*
X0153096Y0066656D01*
X0153158Y0066685D01*
X0153218Y0066716D01*
X0153276Y0066751D01*
X0153332Y0066789D01*
X0153385Y0066830D01*
X0153436Y0066875D01*
X0153485Y0066922D01*
X0153531Y0066972D01*
X0153574Y0067024D01*
X0153614Y0067079D01*
X0153650Y0067136D01*
X0153683Y0067195D01*
X0153713Y0067255D01*
X0153740Y0067318D01*
X0153763Y0067381D01*
X0153782Y0067446D01*
X0153797Y0067512D01*
X0153809Y0067579D01*
X0153817Y0067646D01*
X0154210Y0065875D02*
X0154210Y0063119D01*
X0153492Y0050932D02*
X0164062Y0044830D01*
X0161109Y0039715D02*
X0150539Y0045818D01*
X0136789Y0048158D02*
X0136789Y0042450D01*
X0134033Y0042450D02*
X0134033Y0048158D01*
X0130224Y0041603D02*
X0130224Y0034320D01*
X0125499Y0034320D02*
X0125499Y0041603D01*
X0194948Y0032026D02*
X0207153Y0032026D01*
X0207153Y0026121D02*
X0194948Y0026121D01*
X0022704Y0142272D02*
X0022704Y0149556D01*
X0017980Y0149556D02*
X0017980Y0142272D01*
D17*
X0179486Y0141623D03*
X0179486Y0150245D03*
D18*
X0179486Y0149457D03*
X0179486Y0148670D03*
D19*
X0177911Y0152824D02*
X0181060Y0152824D01*
X0149190Y0067942D02*
X0139348Y0067942D01*
X0139348Y0056131D01*
X0140529Y0056131D01*
X0139741Y0056918D02*
X0139743Y0056957D01*
X0139749Y0056996D01*
X0139759Y0057034D01*
X0139772Y0057071D01*
X0139789Y0057106D01*
X0139809Y0057140D01*
X0139833Y0057171D01*
X0139860Y0057200D01*
X0139889Y0057226D01*
X0139921Y0057249D01*
X0139955Y0057269D01*
X0139991Y0057285D01*
X0140028Y0057297D01*
X0140067Y0057306D01*
X0140106Y0057311D01*
X0140145Y0057312D01*
X0140184Y0057309D01*
X0140223Y0057302D01*
X0140260Y0057291D01*
X0140297Y0057277D01*
X0140332Y0057259D01*
X0140365Y0057238D01*
X0140396Y0057213D01*
X0140424Y0057186D01*
X0140449Y0057156D01*
X0140471Y0057123D01*
X0140490Y0057089D01*
X0140505Y0057053D01*
X0140517Y0057015D01*
X0140525Y0056977D01*
X0140529Y0056938D01*
X0140529Y0056898D01*
X0140525Y0056859D01*
X0140517Y0056821D01*
X0140505Y0056783D01*
X0140490Y0056747D01*
X0140471Y0056713D01*
X0140449Y0056680D01*
X0140424Y0056650D01*
X0140396Y0056623D01*
X0140365Y0056598D01*
X0140332Y0056577D01*
X0140297Y0056559D01*
X0140260Y0056545D01*
X0140223Y0056534D01*
X0140184Y0056527D01*
X0140145Y0056524D01*
X0140106Y0056525D01*
X0140067Y0056530D01*
X0140028Y0056539D01*
X0139991Y0056551D01*
X0139955Y0056567D01*
X0139921Y0056587D01*
X0139889Y0056610D01*
X0139860Y0056636D01*
X0139833Y0056665D01*
X0139809Y0056696D01*
X0139789Y0056730D01*
X0139772Y0056765D01*
X0139759Y0056802D01*
X0139749Y0056840D01*
X0139743Y0056879D01*
X0139741Y0056918D01*
X0139348Y0056131D02*
X0139348Y0067942D01*
X0140529Y0067942D01*
X0142104Y0067942D02*
X0142497Y0067942D01*
X0144072Y0067942D02*
X0144466Y0067942D01*
X0146041Y0067942D02*
X0146434Y0067942D01*
X0148009Y0067942D02*
X0149190Y0067942D01*
X0149190Y0056131D01*
X0148009Y0056131D01*
X0149190Y0056131D02*
X0139348Y0056131D01*
X0142104Y0056131D02*
X0142497Y0056131D01*
X0144072Y0056131D02*
X0144466Y0056131D01*
X0146041Y0056131D02*
X0146434Y0056131D01*
X0149190Y0056131D02*
X0149190Y0067942D01*
D20*
X0128188Y0076818D03*
X0158739Y0042106D03*
X0203905Y0027007D03*
X0259446Y0031141D03*
X0298795Y0045686D03*
X0328099Y0078885D03*
X0330954Y0150568D03*
X0303739Y0185856D03*
X0262655Y0203257D03*
X0196946Y0207391D03*
X0155045Y0189436D03*
X0124083Y0147635D03*
D21*
G36*
X0123672Y0145940D02*
X0122786Y0144407D01*
X0121424Y0145194D01*
X0122310Y0146727D01*
X0123672Y0145940D01*
G37*
G36*
X0127764Y0143577D02*
X0126878Y0142044D01*
X0125516Y0142831D01*
X0126402Y0144364D01*
X0127764Y0143577D01*
G37*
G36*
X0130929Y0152208D02*
X0131815Y0153741D01*
X0133177Y0152954D01*
X0132291Y0151421D01*
X0130929Y0152208D01*
G37*
G36*
X0126838Y0154570D02*
X0127724Y0156103D01*
X0129086Y0155316D01*
X0128200Y0153783D01*
X0126838Y0154570D01*
G37*
G36*
X0156204Y0184083D02*
X0154671Y0183197D01*
X0153884Y0184559D01*
X0155417Y0185445D01*
X0156204Y0184083D01*
G37*
G36*
X0153841Y0188175D02*
X0152308Y0187289D01*
X0151521Y0188651D01*
X0153054Y0189537D01*
X0153841Y0188175D01*
G37*
G36*
X0160898Y0194064D02*
X0162431Y0194950D01*
X0163218Y0193588D01*
X0161685Y0192702D01*
X0160898Y0194064D01*
G37*
G36*
X0163260Y0189973D02*
X0164793Y0190859D01*
X0165580Y0189497D01*
X0164047Y0188611D01*
X0163260Y0189973D01*
G37*
X0194387Y0202961D03*
X0194387Y0207686D03*
X0205214Y0207686D03*
X0205214Y0202961D03*
X0254387Y0202961D03*
X0254387Y0207686D03*
X0265214Y0207686D03*
X0265214Y0202961D03*
G36*
X0296804Y0188611D02*
X0295271Y0189497D01*
X0296058Y0190859D01*
X0297591Y0189973D01*
X0296804Y0188611D01*
G37*
G36*
X0299167Y0192702D02*
X0297634Y0193588D01*
X0298421Y0194950D01*
X0299954Y0194064D01*
X0299167Y0192702D01*
G37*
G36*
X0307797Y0189537D02*
X0309330Y0188651D01*
X0308543Y0187289D01*
X0307010Y0188175D01*
X0307797Y0189537D01*
G37*
G36*
X0305435Y0185445D02*
X0306968Y0184559D01*
X0306181Y0183197D01*
X0304648Y0184083D01*
X0305435Y0185445D01*
G37*
G36*
X0330417Y0158783D02*
X0329531Y0160316D01*
X0330893Y0161103D01*
X0331779Y0159570D01*
X0330417Y0158783D01*
G37*
G36*
X0326326Y0156421D02*
X0325440Y0157954D01*
X0326802Y0158741D01*
X0327688Y0157208D01*
X0326326Y0156421D01*
G37*
G36*
X0332215Y0149364D02*
X0333101Y0147831D01*
X0331739Y0147044D01*
X0330853Y0148577D01*
X0332215Y0149364D01*
G37*
G36*
X0336307Y0151727D02*
X0337193Y0150194D01*
X0335831Y0149407D01*
X0334945Y0150940D01*
X0336307Y0151727D01*
G37*
G36*
X0330853Y0085820D02*
X0331739Y0087353D01*
X0333101Y0086566D01*
X0332215Y0085033D01*
X0330853Y0085820D01*
G37*
G36*
X0334945Y0083458D02*
X0335831Y0084991D01*
X0337193Y0084204D01*
X0336307Y0082671D01*
X0334945Y0083458D01*
G37*
G36*
X0331779Y0074827D02*
X0330893Y0073294D01*
X0329531Y0074081D01*
X0330417Y0075614D01*
X0331779Y0074827D01*
G37*
G36*
X0327688Y0077190D02*
X0326802Y0075657D01*
X0325440Y0076444D01*
X0326326Y0077977D01*
X0327688Y0077190D01*
G37*
G36*
X0304648Y0050314D02*
X0306181Y0051200D01*
X0306968Y0049838D01*
X0305435Y0048952D01*
X0304648Y0050314D01*
G37*
G36*
X0307010Y0046223D02*
X0308543Y0047109D01*
X0309330Y0045747D01*
X0307797Y0044861D01*
X0307010Y0046223D01*
G37*
G36*
X0299954Y0040333D02*
X0298421Y0039447D01*
X0297634Y0040809D01*
X0299167Y0041695D01*
X0299954Y0040333D01*
G37*
G36*
X0297591Y0044425D02*
X0296058Y0043539D01*
X0295271Y0044901D01*
X0296804Y0045787D01*
X0297591Y0044425D01*
G37*
X0267714Y0031436D03*
X0267714Y0026711D03*
X0256887Y0026711D03*
X0256887Y0031436D03*
X0206464Y0031436D03*
X0206464Y0026711D03*
X0195637Y0026711D03*
X0195637Y0031436D03*
G36*
X0162797Y0045787D02*
X0164330Y0044901D01*
X0163543Y0043539D01*
X0162010Y0044425D01*
X0162797Y0045787D01*
G37*
G36*
X0160435Y0041695D02*
X0161968Y0040809D01*
X0161181Y0039447D01*
X0159648Y0040333D01*
X0160435Y0041695D01*
G37*
G36*
X0151804Y0044861D02*
X0150271Y0045747D01*
X0151058Y0047109D01*
X0152591Y0046223D01*
X0151804Y0044861D01*
G37*
G36*
X0154167Y0048952D02*
X0152634Y0049838D01*
X0153421Y0051200D01*
X0154954Y0050314D01*
X0154167Y0048952D01*
G37*
G36*
X0133541Y0077977D02*
X0134427Y0076444D01*
X0133065Y0075657D01*
X0132179Y0077190D01*
X0133541Y0077977D01*
G37*
G36*
X0129450Y0075614D02*
X0130336Y0074081D01*
X0128974Y0073294D01*
X0128088Y0074827D01*
X0129450Y0075614D01*
G37*
G36*
X0123560Y0082671D02*
X0122674Y0084204D01*
X0124036Y0084991D01*
X0124922Y0083458D01*
X0123560Y0082671D01*
G37*
G36*
X0127652Y0085033D02*
X0126766Y0086566D01*
X0128128Y0087353D01*
X0129014Y0085820D01*
X0127652Y0085033D01*
G37*
D22*
G36*
X0124536Y0082553D02*
X0124192Y0083148D01*
X0125300Y0083787D01*
X0125644Y0083192D01*
X0124536Y0082553D01*
G37*
G36*
X0132565Y0078094D02*
X0132909Y0077499D01*
X0131801Y0076860D01*
X0131457Y0077455D01*
X0132565Y0078094D01*
G37*
G36*
X0152710Y0045247D02*
X0152115Y0045591D01*
X0152754Y0046699D01*
X0153349Y0046355D01*
X0152710Y0045247D01*
G37*
G36*
X0161892Y0045401D02*
X0162487Y0045057D01*
X0161848Y0043949D01*
X0161253Y0044293D01*
X0161892Y0045401D01*
G37*
X0196769Y0027351D03*
X0205332Y0030796D03*
X0258019Y0027351D03*
X0266582Y0030796D03*
G36*
X0300071Y0041309D02*
X0299476Y0040965D01*
X0298837Y0042073D01*
X0299432Y0042417D01*
X0300071Y0041309D01*
G37*
G36*
X0304530Y0049338D02*
X0305125Y0049682D01*
X0305764Y0048574D01*
X0305169Y0048230D01*
X0304530Y0049338D01*
G37*
G36*
X0331393Y0075732D02*
X0331049Y0075137D01*
X0329941Y0075776D01*
X0330285Y0076371D01*
X0331393Y0075732D01*
G37*
G36*
X0331239Y0084915D02*
X0331583Y0085510D01*
X0332691Y0084871D01*
X0332347Y0084276D01*
X0331239Y0084915D01*
G37*
G36*
X0335331Y0151844D02*
X0335675Y0151249D01*
X0334567Y0150610D01*
X0334223Y0151205D01*
X0335331Y0151844D01*
G37*
G36*
X0327302Y0156303D02*
X0326958Y0156898D01*
X0328066Y0157537D01*
X0328410Y0156942D01*
X0327302Y0156303D01*
G37*
G36*
X0306892Y0189151D02*
X0307487Y0188807D01*
X0306848Y0187699D01*
X0306253Y0188043D01*
X0306892Y0189151D01*
G37*
G36*
X0297710Y0188997D02*
X0297115Y0189341D01*
X0297754Y0190449D01*
X0298349Y0190105D01*
X0297710Y0188997D01*
G37*
X0264082Y0207046D03*
X0255519Y0203601D03*
X0204082Y0207046D03*
X0195519Y0203601D03*
G36*
X0160780Y0193088D02*
X0161375Y0193432D01*
X0162014Y0192324D01*
X0161419Y0191980D01*
X0160780Y0193088D01*
G37*
G36*
X0156321Y0185059D02*
X0155726Y0184715D01*
X0155087Y0185823D01*
X0155682Y0186167D01*
X0156321Y0185059D01*
G37*
G36*
X0127224Y0153665D02*
X0127568Y0154260D01*
X0128676Y0153621D01*
X0128332Y0153026D01*
X0127224Y0153665D01*
G37*
G36*
X0127378Y0144482D02*
X0127034Y0143887D01*
X0125926Y0144526D01*
X0126270Y0145121D01*
X0127378Y0144482D01*
G37*
D23*
G36*
X0127837Y0149217D02*
X0127444Y0148538D01*
X0126765Y0148931D01*
X0127158Y0149610D01*
X0127837Y0149217D01*
G37*
G36*
X0159087Y0188931D02*
X0158408Y0188538D01*
X0158015Y0189217D01*
X0158694Y0189610D01*
X0159087Y0188931D01*
G37*
G36*
X0302158Y0189610D02*
X0302837Y0189217D01*
X0302444Y0188538D01*
X0301765Y0188931D01*
X0302158Y0189610D01*
G37*
G36*
X0331459Y0154610D02*
X0331852Y0153931D01*
X0331173Y0153538D01*
X0330780Y0154217D01*
X0331459Y0154610D01*
G37*
G36*
X0331852Y0080467D02*
X0331459Y0079788D01*
X0330780Y0080181D01*
X0331173Y0080860D01*
X0331852Y0080467D01*
G37*
G36*
X0302837Y0045181D02*
X0302158Y0044788D01*
X0301765Y0045467D01*
X0302444Y0045860D01*
X0302837Y0045181D01*
G37*
G36*
X0157158Y0045860D02*
X0157837Y0045467D01*
X0157444Y0044788D01*
X0156765Y0045181D01*
X0157158Y0045860D01*
G37*
G36*
X0128694Y0080860D02*
X0129087Y0080181D01*
X0128408Y0079788D01*
X0128015Y0080467D01*
X0128694Y0080860D01*
G37*
D24*
X0201051Y0029074D03*
X0262301Y0029074D03*
X0259801Y0205324D03*
X0199801Y0205324D03*
D25*
X0331350Y0117148D03*
X0337150Y0117148D03*
D26*
X0229807Y0200663D03*
X0229807Y0206463D03*
X0146559Y0164278D03*
X0146559Y0158478D03*
X0229807Y0033776D03*
X0229807Y0027976D03*
D27*
X0127862Y0035009D03*
X0127862Y0040914D03*
X0020342Y0142961D03*
X0020342Y0148867D03*
X0156572Y0158493D03*
X0156572Y0164398D03*
D28*
G36*
X0183265Y0162820D02*
X0184657Y0161428D01*
X0181039Y0157810D01*
X0179647Y0159202D01*
X0183265Y0162820D01*
G37*
G36*
X0187441Y0158644D02*
X0188833Y0157252D01*
X0185215Y0153634D01*
X0183823Y0155026D01*
X0187441Y0158644D01*
G37*
D29*
X0150962Y0066957D02*
X0150964Y0066991D01*
X0150970Y0067025D01*
X0150980Y0067058D01*
X0150993Y0067089D01*
X0151011Y0067119D01*
X0151031Y0067147D01*
X0151055Y0067172D01*
X0151081Y0067194D01*
X0151109Y0067212D01*
X0151140Y0067228D01*
X0151172Y0067240D01*
X0151206Y0067248D01*
X0151240Y0067252D01*
X0151274Y0067252D01*
X0151308Y0067248D01*
X0151342Y0067240D01*
X0151374Y0067228D01*
X0151404Y0067212D01*
X0151433Y0067194D01*
X0151459Y0067172D01*
X0151483Y0067147D01*
X0151503Y0067119D01*
X0151521Y0067089D01*
X0151534Y0067058D01*
X0151544Y0067025D01*
X0151550Y0066991D01*
X0151552Y0066957D01*
X0151550Y0066923D01*
X0151544Y0066889D01*
X0151534Y0066856D01*
X0151521Y0066825D01*
X0151503Y0066795D01*
X0151483Y0066767D01*
X0151459Y0066742D01*
X0151433Y0066720D01*
X0151405Y0066702D01*
X0151374Y0066686D01*
X0151342Y0066674D01*
X0151308Y0066666D01*
X0151274Y0066662D01*
X0151240Y0066662D01*
X0151206Y0066666D01*
X0151172Y0066674D01*
X0151140Y0066686D01*
X0151109Y0066702D01*
X0151081Y0066720D01*
X0151055Y0066742D01*
X0151031Y0066767D01*
X0151011Y0066795D01*
X0150993Y0066825D01*
X0150980Y0066856D01*
X0150970Y0066889D01*
X0150964Y0066923D01*
X0150962Y0066957D01*
X0151552Y0061249D02*
X0151554Y0061313D01*
X0151560Y0061377D01*
X0151569Y0061441D01*
X0151582Y0061503D01*
X0151599Y0061565D01*
X0151620Y0061626D01*
X0151644Y0061686D01*
X0151672Y0061744D01*
X0151702Y0061800D01*
X0151737Y0061854D01*
X0151774Y0061906D01*
X0151815Y0061956D01*
X0151858Y0062003D01*
X0151904Y0062048D01*
X0151953Y0062090D01*
X0152004Y0062129D01*
X0152057Y0062165D01*
X0152112Y0062197D01*
X0152169Y0062227D01*
X0152228Y0062253D01*
X0152288Y0062275D01*
X0152350Y0062294D01*
X0152412Y0062309D01*
X0152475Y0062320D01*
X0152539Y0062328D01*
X0152603Y0062332D01*
X0152667Y0062332D01*
X0152731Y0062328D01*
X0152795Y0062320D01*
X0152858Y0062309D01*
X0152920Y0062294D01*
X0152982Y0062275D01*
X0153042Y0062253D01*
X0153101Y0062227D01*
X0153158Y0062197D01*
X0153213Y0062165D01*
X0153266Y0062129D01*
X0153317Y0062090D01*
X0153366Y0062048D01*
X0153412Y0062003D01*
X0153455Y0061956D01*
X0153496Y0061906D01*
X0153533Y0061854D01*
X0153568Y0061800D01*
X0153598Y0061744D01*
X0153626Y0061686D01*
X0153650Y0061626D01*
X0153671Y0061565D01*
X0153688Y0061503D01*
X0153701Y0061441D01*
X0153710Y0061377D01*
X0153716Y0061313D01*
X0153718Y0061249D01*
D30*
X0151257Y0067548D03*
D31*
X0151651Y0066761D03*
D32*
X0150962Y0066613D03*
D33*
X0154013Y0067253D03*
D34*
X0152635Y0066318D03*
D35*
X0151257Y0062135D03*
X0154013Y0062135D03*
D36*
X0152635Y0062676D03*
D37*
X0151749Y0062135D03*
X0153521Y0062135D03*
D38*
X0152635Y0064989D03*
D39*
X0158501Y0065973D03*
X0163501Y0065973D03*
X0152675Y0072863D03*
X0147675Y0072863D03*
D40*
X0135411Y0063513D03*
X0135411Y0058591D03*
X0135411Y0047765D03*
X0135411Y0042843D03*
D41*
X0126060Y0124989D03*
X0126060Y0129989D03*
X0147714Y0131957D03*
X0147714Y0126957D03*
X0138856Y0165835D03*
X0138856Y0170835D03*
X0132458Y0170835D03*
X0132458Y0165835D03*
X0127537Y0187981D03*
X0127537Y0192981D03*
D42*
X0319840Y0043611D02*
X0328108Y0043611D01*
X0328108Y0033375D01*
X0319840Y0033375D01*
X0319840Y0043611D01*
X0321415Y0042036D02*
X0324171Y0042036D01*
X0324171Y0039674D01*
X0324171Y0037312D01*
X0321415Y0037312D01*
X0321415Y0034950D01*
X0324171Y0034950D01*
X0321415Y0037312D02*
X0321415Y0039674D01*
X0324171Y0039674D01*
X0326139Y0039674D01*
X0326533Y0042036D02*
X0324171Y0042036D01*
X0328108Y0031800D02*
X0319840Y0031800D01*
D43*
X0138111Y0127539D03*
X0132711Y0131339D03*
X0132711Y0123739D03*
X0127790Y0116575D03*
X0133190Y0112775D03*
X0127790Y0108975D03*
D44*
X0104935Y0106981D03*
X0114764Y0130871D03*
D45*
X0104906Y0130900D03*
D46*
X0110243Y0107578D03*
D47*
X0114764Y0106952D03*
D48*
X0114764Y0129556D03*
D49*
X0104906Y0129979D03*
D50*
X0114764Y0108267D03*
D51*
X0110243Y0107872D03*
D52*
X0104935Y0108296D03*
D53*
X0152179Y0201581D03*
X0125533Y0217708D03*
D54*
X0152208Y0217738D03*
D55*
X0124949Y0209645D03*
D56*
X0125504Y0201581D03*
D57*
X0150864Y0201581D03*
D58*
X0150893Y0217738D03*
D59*
X0126819Y0201581D03*
D60*
X0126030Y0209645D03*
D61*
X0126848Y0217708D03*
M02*
